<svg width="72" height="44" viewBox="0 0 182 154" fill="none" xmlns="http://www.w3.org/2000/svg">
<g clip-path="url(#clip0_46_162)">
<path d="M19.2743 152.292L19.3119 152.589L45.9989 149.211L50.0713 143.957L55.3244 148.03L175.862 132.769C175.473 129.694 177.652 126.999 180.615 126.523L171.848 57.2754C168.773 57.6647 166.078 55.486 165.602 52.5223L45.0639 67.7832L40.9915 73.0363L35.825 68.8521L9.13804 72.2308C9.52741 75.3062 7.36122 78.1005 4.38498 78.4773L13.127 147.526C16.0907 147.05 18.8849 149.216 19.2743 152.292Z" fill="#EDDFB3" fill-opacity="0.7"/>
<path d="M48.294 125.938L47.8921 122.763L47.2969 122.839L47.6988 126.013L48.294 125.938Z" fill="#4A4A4A"/>
<path d="M49.0977 132.287L48.6958 129.113L48.1006 129.188L48.5025 132.363L49.0977 132.287Z" fill="#4A4A4A"/>
<path d="M47.4776 119.49L47.0757 116.315L46.4804 116.39L46.8824 119.565L47.4776 119.49Z" fill="#4A4A4A"/>
<path d="M50.0714 143.957L50.6303 144.391L50.3037 141.811L49.7085 141.887L49.9848 144.069L50.0714 143.957Z" fill="#4A4A4A"/>
<path d="M46.6737 113.14L46.2717 109.966L45.6765 110.041L46.0784 113.216L46.6737 113.14Z" fill="#4A4A4A"/>
<path d="M41.2426 75.0205L41.8378 74.9451L41.5112 72.3657L41.078 72.9246L40.9662 72.8379L41.2426 75.0205Z" fill="#4A4A4A"/>
<path d="M49.9017 138.637L49.4998 135.462L48.9045 135.537L49.3064 138.712L49.9017 138.637Z" fill="#4A4A4A"/>
<path d="M42.6417 81.2943L42.2397 78.1196L41.6445 78.195L42.0464 81.3696L42.6417 81.2943Z" fill="#4A4A4A"/>
<path d="M43.4456 87.6437L43.0437 84.469L42.4485 84.5444L42.8504 87.719L43.4456 87.6437Z" fill="#4A4A4A"/>
<path d="M45.8697 106.791L45.4678 103.616L44.8725 103.692L45.2745 106.866L45.8697 106.791Z" fill="#4A4A4A"/>
<path d="M44.2496 93.993L43.8477 90.8184L43.2524 90.8937L43.6543 94.0684L44.2496 93.993Z" fill="#4A4A4A"/>
<path d="M45.0533 100.342L44.6514 97.1677L44.0561 97.2431L44.4581 100.418L45.0533 100.342Z" fill="#4A4A4A"/>
<path d="M33.0285 80.9996L32.9783 80.6028L15.6169 82.8008L15.6671 83.1977L33.0285 80.9996Z" fill="#4A4A4A"/>
<path d="M33.2044 82.3884L33.1416 81.8923L15.7802 84.0904L15.843 84.5864L33.2044 82.3884Z" fill="#4A4A4A"/>
<path d="M33.3803 83.7772L33.3301 83.3804L15.9687 85.5784L16.0189 85.9753L33.3803 83.7772Z" fill="#4A4A4A"/>
<path d="M33.5938 85.4639L33.5562 85.1663L16.1947 87.3643L16.2324 87.6619L33.5938 85.4639Z" fill="#4A4A4A"/>
<path d="M33.8702 87.6464L33.7446 86.6543L16.3832 88.8524L16.5088 89.8444L33.8702 87.6464Z" fill="#4A4A4A"/>
<path d="M34.0335 88.9362L33.9707 88.4402L16.6093 90.6382L16.6721 91.1343L34.0335 88.9362Z" fill="#4A4A4A"/>
<path d="M34.272 90.821L34.2092 90.325L16.8478 92.523L16.9106 93.0191L34.272 90.821Z" fill="#4A4A4A"/>
<path d="M34.6363 93.6981L34.5107 92.7061L17.1493 94.9041L17.2749 95.8962L34.6363 93.6981Z" fill="#4A4A4A"/>
<path d="M34.9503 96.1784L34.8247 95.1863L17.4633 97.3843L17.5889 98.3764L34.9503 96.1784Z" fill="#4A4A4A"/>
<path d="M35.1262 97.5672L35.0759 97.1704L17.7145 99.3685L17.7648 99.7653L35.1262 97.5672Z" fill="#4A4A4A"/>
<path d="M35.3146 99.0553L35.2644 98.6584L17.903 100.857L17.9532 101.253L35.3146 99.0553Z" fill="#4A4A4A"/>
<path d="M35.616 101.436L35.5532 100.94L18.1918 103.138L18.2546 103.635L35.616 101.436Z" fill="#4A4A4A"/>
<path d="M35.8548 103.321L35.792 102.825L18.4306 105.023L18.4934 105.519L35.8548 103.321Z" fill="#4A4A4A"/>
<path d="M36.131 105.504L36.0054 104.512L18.644 106.71L18.7696 107.702L36.131 105.504Z" fill="#4A4A4A"/>
<path d="M36.2818 106.694L36.219 106.198L18.8576 108.396L18.9204 108.892L36.2818 106.694Z" fill="#4A4A4A"/>
<path d="M36.533 108.679L36.4702 108.183L19.1088 110.381L19.1716 110.877L36.533 108.679Z" fill="#4A4A4A"/>
<path d="M36.7464 110.365L36.7087 110.067L19.3473 112.265L19.385 112.563L36.7464 110.365Z" fill="#4A4A4A"/>
<path d="M37.0103 112.449L36.9727 112.151L19.6112 114.349L19.6489 114.647L37.0103 112.449Z" fill="#4A4A4A"/>
<path d="M37.274 114.532L37.2112 114.036L19.8498 116.234L19.9126 116.73L37.274 114.532Z" fill="#4A4A4A"/>
<path d="M37.4122 115.623L37.3494 115.127L19.988 117.325L20.0508 117.821L37.4122 115.623Z" fill="#4A4A4A"/>
<path d="M37.6007 117.111L37.563 116.814L20.2016 119.012L20.2393 119.309L37.6007 117.111Z" fill="#4A4A4A"/>
<path d="M37.7513 118.302L37.7136 118.004L20.3522 120.202L20.3899 120.5L37.7513 118.302Z" fill="#4A4A4A"/>
<path d="M38.078 120.881L37.9524 119.889L20.591 122.087L20.7166 123.079L38.078 120.881Z" fill="#4A4A4A"/>
<path d="M38.2913 122.568L38.2285 122.072L20.8671 124.27L20.9299 124.766L38.2913 122.568Z" fill="#4A4A4A"/>
<path d="M38.8065 126.635L38.7688 126.338L21.4074 128.536L21.4451 128.833L38.8065 126.635Z" fill="#4A4A4A"/>
<path d="M39.0826 128.818L38.957 127.826L21.5956 130.024L21.7212 131.016L39.0826 128.818Z" fill="#4A4A4A"/>
<path d="M39.2586 130.207L39.1958 129.711L21.8344 131.909L21.8972 132.405L39.2586 130.207Z" fill="#4A4A4A"/>
<path d="M39.6102 132.985L39.5474 132.489L22.186 134.687L22.2488 135.183L39.6102 132.985Z" fill="#4A4A4A"/>
<path d="M39.849 134.869L39.8113 134.572L22.4499 136.77L22.4876 137.067L39.849 134.869Z" fill="#4A4A4A"/>
<path d="M40.1378 137.151L40.0122 136.159L22.6508 138.357L22.7764 139.349L40.1378 137.151Z" fill="#4A4A4A"/>
<path d="M40.3135 138.54L40.2507 138.044L22.8893 140.242L22.9521 140.738L40.3135 138.54Z" fill="#4A4A4A"/>
<path d="M89.2226 111.073L100.17 109.357C100.432 109.337 100.579 109.462 100.611 109.734L100.59 113.265C100.588 113.438 100.562 113.561 100.514 113.636C100.477 113.709 100.38 113.761 100.223 113.791L96.9457 114.307L97.0818 136.273C97.0806 136.548 96.9506 136.707 96.6918 136.75L93.177 137.294C92.9508 137.322 92.8247 137.228 92.7988 137.013L92.6694 114.961L89.3053 115.47C89.0212 115.492 88.8641 115.379 88.8341 115.131L88.8326 111.55C88.8112 111.277 88.9412 111.118 89.2226 111.073ZM108.303 108.995L108.484 134.897C108.482 135.173 108.352 135.332 108.094 135.375L104.613 135.915C104.364 135.945 104.226 135.853 104.201 135.638L104.04 109.613C104.056 109.37 104.188 109.222 104.434 109.169L107.813 108.641C108.108 108.617 108.272 108.735 108.303 108.995ZM124.516 132.671C124.51 132.81 124.482 132.91 124.432 132.974C124.383 133.037 123.843 133.229 122.815 133.548C121.786 133.867 120.734 134.091 119.66 134.221C117.895 134.434 116.475 134.025 115.398 132.996C114.321 131.967 113.664 130.468 113.427 128.5C113.005 125.005 112.934 120.894 113.213 116.167C113.354 113.625 113.686 111.812 114.21 110.727C114.761 109.594 115.487 108.76 116.387 108.227C117.512 107.563 118.747 107.15 120.093 106.988C121.451 106.824 122.36 106.755 122.822 106.779C123.294 106.791 123.559 106.8 123.617 106.804C123.77 106.832 123.86 106.964 123.889 107.202L123.879 110.405C123.869 110.704 123.774 110.865 123.593 110.887C123.412 110.908 122.988 110.914 122.321 110.902C121.653 110.88 121.115 110.893 120.708 110.942C119.622 111.073 118.83 111.45 118.331 112.072C117.831 112.683 117.534 113.786 117.439 115.381C117.355 116.964 117.34 119.083 117.397 121.738C117.452 124.383 117.563 126.4 117.731 127.792C117.929 129.432 118.752 130.165 120.199 129.99C120.618 129.94 121.339 129.784 122.364 129.522C123.386 129.25 123.971 129.105 124.118 129.087C124.356 129.058 124.492 129.185 124.526 129.468L124.516 132.671ZM142.313 130.938C142.336 131.13 142.201 131.244 141.906 131.279L138.275 131.855C138.081 131.867 137.944 131.775 137.863 131.578L132.682 119.31L132.78 131.967C132.779 132.243 132.643 132.402 132.373 132.446L128.892 132.987C128.655 133.015 128.523 132.922 128.497 132.707L128.302 106.687C128.309 106.548 128.331 106.448 128.369 106.386C128.419 106.322 128.522 106.276 128.679 106.245L132.075 105.715C132.371 105.691 132.534 105.809 132.566 106.069L132.653 117.643L136.194 105.752C136.276 105.478 136.44 105.321 136.688 105.279L140.219 104.733C140.516 104.72 140.678 104.821 140.704 105.036C140.72 105.172 140.698 105.323 140.638 105.491L136.547 117.673L142.273 130.753C142.289 130.786 142.302 130.847 142.313 130.938ZM154.547 118.05L149.294 118.89L149.336 125.942L155.808 124.938C156.103 124.914 156.268 125.043 156.302 125.326L156.284 128.891C156.291 129.131 156.161 129.296 155.897 129.386L145.503 130.983C145.254 131.013 145.117 130.921 145.091 130.706L144.93 104.681C144.946 104.438 145.078 104.29 145.324 104.238L154.583 102.794C154.87 102.794 155.03 102.929 155.062 103.201L155.062 106.764C155.062 107.051 154.933 107.221 154.676 107.275L149.231 108.087L149.263 114.487L154.466 113.67C154.761 113.646 154.926 113.775 154.96 114.058L154.937 117.572C154.923 117.838 154.793 117.997 154.547 118.05ZM158.923 102.666L169.87 100.95C170.132 100.93 170.279 101.056 170.311 101.327L170.29 104.859C170.288 105.031 170.262 105.155 170.214 105.229C170.177 105.303 170.08 105.354 169.923 105.385L166.646 105.901L166.782 127.866C166.781 128.142 166.651 128.301 166.392 128.343L162.877 128.888C162.651 128.915 162.525 128.821 162.499 128.606L162.369 106.554L159.005 107.063C158.721 107.086 158.564 106.973 158.534 106.724L158.533 103.144C158.511 102.871 158.641 102.712 158.923 102.666Z" fill="#D8CCA3"/>
<g clip-path="url(#clip1_46_162)">
<path d="M101.72 89.4105L100.668 94.2901L96.4675 96.6173L101.125 97.787L103.396 102.232L104.447 97.3529L108.648 95.0257L103.991 93.856L101.72 89.4105Z" fill="#686247"/>
</g>
<g clip-path="url(#clip2_46_162)">
<path d="M116.836 87.6801L115.784 92.5596L111.583 94.8868L116.241 96.0565L118.511 100.502L119.563 95.6224L123.764 93.2952L119.106 92.1255L116.836 87.6801Z" fill="#686247"/>
</g>
<g clip-path="url(#clip3_46_162)">
<path d="M131.952 86.4105L130.9 91.2901L126.699 93.6173L131.357 94.787L133.627 99.2325L134.679 94.3529L138.88 92.0257L134.222 90.856L131.952 86.4105Z" fill="#686247"/>
</g>
<g clip-path="url(#clip4_46_162)">
<path d="M147.067 85.4105L146.016 90.2901L141.815 92.6173L146.473 93.787L148.743 98.2325L149.795 93.3529L153.996 91.0257L149.338 89.856L147.067 85.4105Z" fill="#686247"/>
</g>
<g clip-path="url(#clip5_46_162)">
<path d="M162.183 83.451L161.131 88.3306L156.93 90.6578L161.588 91.8275L163.859 96.273L164.91 91.3934L169.111 89.0662L164.453 87.8965L162.183 83.451Z" fill="#686247"/>
</g>
</g>
<g filter="url(#filter0_dd_46_162)">
<path d="M29.7622 90.5412L20.2727 47.6348L23.9274 90.8904C23.9689 91.5013 23.7016 91.8619 23.1256 91.9722L16.2448 93.2545C15.7063 93.2852 15.4066 93.0952 15.3455 92.6847L13.4272 36.9531C13.4324 36.6562 13.4743 36.4401 13.553 36.305C13.6558 36.1663 13.8865 36.058 14.2451 35.98L23.3248 34.2968C23.908 34.2347 24.265 34.4778 24.3959 35.0261L34.1766 78.1483L40.3046 32.9569C40.3463 32.4077 40.6431 32.0797 41.1949 31.973L50.6731 30.2305C51.2804 30.1649 51.6253 30.4098 51.7079 30.9652L53.6718 86.5049C53.6855 87.0952 53.4044 87.4456 52.8284 87.5559L45.4042 88.9189C44.8971 88.9943 44.6094 88.8026 44.5412 88.3438L45.0394 43.1379L38.5722 88.787C38.4616 89.3711 38.1546 89.713 37.651 89.8125L30.6615 91.1109C30.1713 91.1344 29.8716 90.9445 29.7622 90.5412ZM71.9673 28.027L73.3221 65.7748C73.4077 68.6746 73.5402 70.7282 73.7198 71.9357C73.8993 73.1431 74.39 74.1191 75.1918 74.8638C75.9936 75.6085 77.1552 75.8677 78.6766 75.6415C80.198 75.4153 81.244 74.4823 81.8147 72.8424C82.3854 71.2026 82.6144 68.6756 82.5017 65.2615L81.1278 26.8871C81.1212 26.3451 81.4059 26.0189 81.9819 25.9086L89.2559 24.5309C89.8632 24.4652 90.2081 24.7101 90.2907 25.2656L91.6509 63.0496C91.9367 70.7821 90.7544 76.2769 88.104 79.5342C85.9506 82.1498 82.8696 83.7557 78.8609 84.3517C74.8764 84.9441 71.6672 84.3599 69.2334 82.5991C66.8201 80.8106 65.31 77.8757 64.7032 73.7946C64.4124 71.8386 64.2297 69.7801 64.1553 67.6191L62.8714 29.6015C62.8731 29.2804 62.915 29.0644 62.9972 28.9534C63.1 28.8147 63.3186 28.7082 63.6531 28.6338L70.9325 27.2923C71.5398 27.2267 71.8847 27.4716 71.9673 28.027ZM100.709 23.1241L122.609 19.0164C123.196 18.9786 123.534 19.2615 123.624 19.8652L112.525 68.9797L124.239 66.8308C124.825 66.793 125.16 67.0517 125.243 67.6072L125.493 75.2708C125.479 75.8406 125.21 76.1891 124.686 76.3164L101.658 80.5548C101.127 80.6338 100.827 80.4439 100.759 79.9851L111.959 30.5592L101.146 32.5372C100.539 32.6028 100.197 32.3821 100.122 31.875L99.8912 24.0973C99.8883 23.5794 100.161 23.255 100.709 23.1241ZM154.316 47.2532L143.115 49.3628L143.621 64.4673L157.424 61.9337C158.056 61.8645 158.416 62.1317 158.506 62.7355L158.679 70.3736C158.706 70.8879 158.439 71.2485 157.877 71.4555L135.708 75.4922C135.177 75.5712 134.877 75.3812 134.809 74.9224L132.927 19.1854C132.948 18.664 133.22 18.3396 133.744 18.2123L153.492 14.5726C154.107 14.5553 154.457 14.8365 154.543 15.416L154.753 23.0488C154.77 23.6633 154.504 24.036 153.956 24.1668L142.341 26.2271L142.787 39.9336L153.884 37.8763C154.516 37.8071 154.876 38.0744 154.966 38.6781L155.123 46.2076C155.109 46.7774 154.84 47.1259 154.316 47.2532Z" fill="url(#paint0_linear_46_162)"/>
</g>
<defs>
<filter id="filter0_dd_46_162" x="0.949219" y="10.2932" width="164.985" height="87.4783" filterUnits="userSpaceOnUse" color-interpolation-filters="sRGB">
<feFlood flood-opacity="0" result="BackgroundImageFix"/>
<feColorMatrix in="SourceAlpha" type="matrix" values="0 0 0 0 0 0 0 0 0 0 0 0 0 0 0 0 0 0 127 0" result="hardAlpha"/>
<feOffset dx="3"/>
<feComposite in2="hardAlpha" operator="out"/>
<feColorMatrix type="matrix" values="0 0 0 0 0 0 0 0 0 0 0 0 0 0 0 0 0 0 0.25 0"/>
<feBlend mode="normal" in2="BackgroundImageFix" result="effect1_dropShadow_46_162"/>
<feColorMatrix in="SourceAlpha" type="matrix" values="0 0 0 0 0 0 0 0 0 0 0 0 0 0 0 0 0 0 127 0" result="hardAlpha"/>
<feOffset dx="-2"/>
<feGaussianBlur stdDeviation="2"/>
<feComposite in2="hardAlpha" operator="out"/>
<feColorMatrix type="matrix" values="0 0 0 0 0 0 0 0 0 0 0 0 0 0 0 0 0 0 0.25 0"/>
<feBlend mode="normal" in2="effect1_dropShadow_46_162" result="effect2_dropShadow_46_162"/>
<feBlend mode="normal" in="SourceGraphic" in2="effect2_dropShadow_46_162" result="shape"/>
</filter>
<linearGradient id="paint0_linear_46_162" x1="141.875" y1="27.4493" x2="15.5537" y2="64.7449" gradientUnits="userSpaceOnUse">
<stop stop-color="#776F4B"/>
<stop offset="0.757997" stop-color="#D8CCA3"/>
</linearGradient>
<clipPath id="clip0_46_162">
<rect width="81" height="169" fill="white" transform="translate(171.244 51.7073) rotate(82.7844)"/>
</clipPath>
<clipPath id="clip1_46_162">
<rect width="13.4011" height="14.1065" fill="white" transform="translate(95 89.6958) rotate(-7.44414)"/>
</clipPath>
<clipPath id="clip2_46_162">
<rect width="13.4011" height="14.1065" fill="white" transform="translate(110.116 87.9653) rotate(-7.44414)"/>
</clipPath>
<clipPath id="clip3_46_162">
<rect width="13.4011" height="14.1065" fill="white" transform="translate(125.231 86.6958) rotate(-7.44414)"/>
</clipPath>
<clipPath id="clip4_46_162">
<rect width="13.4011" height="14.1065" fill="white" transform="translate(140.347 85.6958) rotate(-7.44414)"/>
</clipPath>
<clipPath id="clip5_46_162">
<rect width="13.4011" height="14.1065" fill="white" transform="translate(155.463 83.7363) rotate(-7.44414)"/>
</clipPath>
</defs>
</svg>
