<svg width="600" height="800" viewBox="0 0 600 800" fill="none" xmlns="http://www.w3.org/2000/svg">
<g clip-path="url(#clip0_16_335)">
<rect width="600" height="800" fill="white" fill-opacity="0.26"/>
<g clip-path="url(#clip1_16_335)">
<path d="M123.858 680H53.3491C52.1078 680 51.1097 679.001 51.1097 677.76V676.531C51.1097 675.289 52.1078 674.29 53.3491 674.29H123.858C125.1 674.29 126.098 675.289 126.098 676.531V677.76C126.098 679.001 125.1 680 123.858 680Z" fill="#ADBEC4"/>
<path d="M570.652 680H551.355C550.113 680 549.115 679.001 549.115 677.76V676.531C549.115 675.289 550.113 674.29 551.355 674.29H570.652C571.893 674.29 572.891 675.289 572.891 676.531V677.76C572.904 679.001 571.893 680 570.652 680Z" fill="#ADBEC4"/>
<path d="M256.546 680H186.037C184.796 680 183.798 679.001 183.798 677.76V676.531C183.798 675.289 184.796 674.29 186.037 674.29H256.546C257.788 674.29 258.786 675.289 258.786 676.531V677.76C258.799 679.001 257.788 680 256.546 680Z" fill="#ADBEC4"/>
<path d="M360.084 680H289.574C288.333 680 287.335 679.001 287.335 677.76V676.531C287.335 675.289 288.333 674.29 289.574 674.29H360.084C361.325 674.29 362.323 675.289 362.323 676.531V677.76C362.323 679.001 361.325 680 360.084 680Z" fill="#ADBEC4"/>
<path d="M486.885 680H390.77C389.529 680 388.531 679.001 388.531 677.76V676.531C388.531 675.289 389.529 674.29 390.77 674.29H486.885C488.127 674.29 489.125 675.289 489.125 676.531V677.76C489.125 679.001 488.127 680 486.885 680Z" fill="#ADBEC4"/>
<path d="M147.494 359.604C147.494 359.604 140.046 354.535 129.156 358.439C118.266 362.344 115.822 377.015 118.497 388.934C121.184 400.839 106.186 441.499 106.186 441.499C106.186 441.499 113.979 452.47 141.223 448.271C141.223 448.271 161.532 411.337 160.022 384.824C158.512 358.324 147.494 359.604 147.494 359.604Z" fill="#0E3944"/>
<path d="M156.093 405.422C166.33 402.145 172.601 410.671 178.462 426.546C184.322 442.42 186.306 444.008 186.306 444.008L208.943 458.564L207.062 467.051C207.062 467.051 185.512 458.615 180.304 453.238C175.096 447.874 160.111 420.67 160.111 420.67L156.093 405.422Z" fill="#EF6E4B"/>
<path d="M106.199 507.954C106.199 507.954 101.759 530.46 102.488 564.334C102.488 564.334 84.9823 590.156 99.4297 663.831H107.005C107.005 663.831 113.199 601.152 117.934 584.164C122.668 567.176 140.161 561.966 141.108 510.322L106.199 507.954Z" fill="#FF8B66"/>
<path d="M71.5586 574.127C67.1566 559.61 55.8444 535.299 26.8089 502.346C26.8089 502.346 25.0814 501.45 22.7396 502.884C20.2698 504.395 20.2698 506.174 20.2698 506.174C20.2698 506.174 34.8324 537.91 44.1099 561.159C47.2323 568.981 54.7951 574.127 63.2153 574.127H71.5586Z" fill="#FF8B66"/>
<path d="M124.421 602.202C124.421 602.202 124.524 613.033 117.422 613.212C107.389 613.481 107.018 602.548 95.6547 602.906C84.2913 603.265 60.8479 606.107 53.3875 588.338C49.5357 579.159 54.8079 567.368 42.3824 558.483C29.9569 549.599 35.9841 539.652 42.3824 534.326C48.7807 529.013 39.6311 523.188 46.2853 520.474C47.8721 519.834 49.4333 519.911 50.8921 520.385C51.7495 520.679 52.5429 521.102 53.3107 521.601C56.8297 523.944 59.3123 528.027 59.3123 528.027C78.1361 476.448 111.65 469.637 111.65 469.637L144.794 481.082C145.574 561.338 124.421 602.202 124.421 602.202Z" fill="#164353"/>
<path d="M156.093 405.423C156.093 405.423 148.364 408.034 137.359 406.357C126.354 404.68 122.783 397.78 115.054 402.222C103.448 408.892 108.874 431.872 111.791 443.829C112.879 448.284 114.261 459.985 111.638 469.65C111.638 469.65 127.096 481.684 144.781 481.082L154.429 460.087C154.429 460.074 175.416 434.957 156.093 405.423Z" fill="#CFD8DC"/>
<path d="M136.45 386.143C136.45 386.143 137.743 397.012 133.712 406.908C133.712 406.908 139.445 415.383 144.922 409.801C144.922 409.801 145.421 399.841 151.576 388.562C155.709 381.022 136.45 386.143 136.45 386.143Z" fill="#EF6E4B"/>
<path d="M127.659 386.514C127.659 386.514 122.822 383.454 123.359 388.178C123.999 393.657 129.335 394.72 129.898 392.812C130.474 390.892 127.659 386.514 127.659 386.514Z" fill="#FF8B66"/>
<path d="M155.428 380.587C155.428 380.587 158.499 375.747 160.022 380.254C161.788 385.477 157.411 388.716 156.08 387.231C154.749 385.746 155.428 380.587 155.428 380.587Z" fill="#FF8B66"/>
<path d="M145.433 402.875C136.655 404.846 130.41 400.212 126.558 383.006C124.575 374.134 127.864 367.669 137.704 365.467C147.545 363.266 152.894 367.785 154.89 376.656C159.023 395.155 154.506 400.852 145.433 402.875Z" fill="#FF8B66"/>
<path d="M153.355 383.454C153.7 384.299 153.137 385.349 152.075 385.784C151.013 386.22 149.874 385.887 149.516 385.042C149.17 384.197 149.733 383.147 150.795 382.712C151.857 382.277 152.996 382.609 153.355 383.454Z" fill="#DB614D"/>
<path d="M135.401 387.986C135.542 388.895 134.736 389.778 133.609 389.945C132.471 390.124 131.447 389.535 131.293 388.626C131.152 387.717 131.959 386.834 133.085 386.667C134.224 386.488 135.26 387.077 135.401 387.986Z" fill="#DB614D"/>
<path d="M147.238 375.44C147.148 375.44 147.071 375.414 146.995 375.363C145.497 374.365 143.36 374.89 143.348 374.902C143.104 374.966 142.861 374.813 142.797 374.582C142.733 374.339 142.887 374.096 143.117 374.032C143.22 374.006 145.664 373.392 147.494 374.621C147.698 374.762 147.75 375.043 147.622 375.248C147.519 375.363 147.379 375.44 147.238 375.44Z" fill="#0E3944"/>
<path d="M130.705 379.14C130.628 379.14 130.551 379.114 130.474 379.076C130.257 378.948 130.193 378.666 130.321 378.461C131.46 376.567 133.929 376.08 134.032 376.067C134.275 376.029 134.505 376.183 134.556 376.426C134.608 376.669 134.441 376.9 134.198 376.951C134.172 376.951 132.023 377.386 131.088 378.935C131.012 379.063 130.858 379.14 130.705 379.14Z" fill="#0E3944"/>
<path d="M147.622 380.254C147.865 381.342 147.571 382.34 146.969 382.468C146.368 382.609 145.677 381.828 145.433 380.74C145.19 379.652 145.485 378.653 146.086 378.525C146.688 378.397 147.379 379.166 147.622 380.254Z" fill="#1A4850"/>
<path d="M135.427 382.878C135.67 383.966 135.375 384.965 134.774 385.093C134.172 385.234 133.481 384.453 133.238 383.365C132.995 382.276 133.289 381.278 133.891 381.15C134.492 381.022 135.183 381.79 135.427 382.878Z" fill="#1A4850"/>
<path d="M139.368 393.209C139.368 393.209 145.011 392.748 147.494 390.649C147.494 390.649 146.816 395.053 143.744 395.36C140.673 395.68 139.368 393.209 139.368 393.209Z" fill="#1A4850"/>
<path d="M144.551 380.382C144.551 380.382 144.755 377.514 145.843 377.476C146.943 377.437 148.262 379.55 148.262 379.55L149.631 378.372L148.121 378.922C148.121 378.922 146.777 376.708 145.728 376.938C144.243 377.258 144.551 380.382 144.551 380.382Z" fill="#1A4850"/>
<path d="M136.092 382.609C136.092 382.609 134.684 380.1 133.673 380.535C132.662 380.971 132.381 383.441 132.381 383.441L130.641 382.968L132.24 382.827C132.24 382.827 132.509 380.241 133.558 380.01C135.043 379.665 136.092 382.609 136.092 382.609Z" fill="#1A4850"/>
<path d="M142.209 388.127L141.761 387.269C142.49 386.885 142.554 386.36 142.477 386.002C142.375 385.477 141.953 385.067 141.646 385.042C141.467 385.029 141.313 385.182 141.198 385.49L140.289 385.157C140.673 384.107 141.415 384.056 141.71 384.069C142.477 384.133 143.232 384.888 143.424 385.797C143.629 386.744 143.168 387.615 142.209 388.127Z" fill="#DB614D"/>
<path d="M128.35 389.612C128.35 389.612 125.637 379.639 127.249 372.598C127.249 372.598 134.889 361.96 149.631 367.221C149.631 367.221 154.007 374.262 156.17 384.12C156.17 384.12 156.72 380.574 155.248 372.688C153.777 364.802 146.79 359.898 137.192 361.486C127.608 363.061 117.345 372.598 128.35 389.612Z" fill="#0E3944"/>
<path d="M143.808 365.007C143.808 365.007 144.397 367.605 141.863 374.314C141.863 374.314 140.046 372.406 137.909 374.314C135.772 376.221 131.447 375.581 129.975 376.605C128.504 377.629 128.504 379.985 128.504 379.985C128.504 379.985 127.224 377.053 128.504 373.546C128.504 373.546 125.624 377.207 126.008 381.713C126.008 381.713 122.105 381.086 122.284 374.647C122.464 368.207 131.6 357.799 141.863 358.478C152.126 359.156 154.557 375.402 154.557 375.402C154.557 375.402 153.623 374.672 152.152 374.992C152.152 374.992 151.921 371.548 149.618 367.221C149.618 367.221 150.68 370.345 149.618 373.725C149.618 373.725 146.764 372.227 144.512 372.701C144.525 372.688 145.907 369.961 143.808 365.007Z" fill="#0E3944"/>
<path d="M112.444 404.27C117.435 400.327 121.325 405.346 122.272 412.272C123.219 419.197 114.197 460.061 107.236 458.551C104.548 457.975 103.448 447.259 103.448 447.259C103.448 447.259 106.173 435.776 107.927 418.48C108.758 410.543 109.846 406.331 112.444 404.27Z" fill="#FF8B66"/>
<path d="M97.9197 452.777C91.2014 446.363 79.147 425.112 76.0886 414.281L81.1945 412.233C81.1945 412.233 96.5504 434.214 103.55 439.757C110.55 445.301 113.02 451.471 109.884 456.759C106.762 462.046 99.3401 454.134 97.9197 452.777Z" fill="#FF8B66"/>
<path d="M78.1873 400.11C77.8418 407.061 83.4979 408.713 80.9897 414.051C80.4651 415.152 79.6845 415.741 78.8655 416.023C77.3043 416.573 75.5768 416.048 74.4251 414.883C71.7378 412.156 67.5661 409.276 65.3523 408.009C62.8313 406.549 64.2646 406.152 64.2646 406.152C64.0214 406.037 63.7783 405.947 63.548 405.845C61.7564 405.09 60.3104 404.808 61.6157 404.014C63.0873 403.105 68.2827 405 68.2827 405C61.5133 400.494 59.6834 401.595 60.9119 400.635C62.601 399.329 69.0249 402.337 69.2169 402.427C65.6466 399.047 63.0489 398.279 64.4693 397.767C65.9025 397.255 72.9791 402.376 75.564 404.296C76.1398 404.731 76.4981 405 76.4981 405C76.3958 399.329 78.1873 400.11 78.1873 400.11Z" fill="#FF8B66"/>
<path d="M75.5512 404.296C76.127 404.731 76.4853 405 76.4853 405C76.4853 405 75.2697 407.036 76.8436 409.673C76.8436 409.686 73.9644 407.791 75.5512 404.296Z" fill="#EF6E4B"/>
<path d="M69.6136 408.29C69.0121 407.957 65.5954 406.037 64.239 406.152C63.9958 406.037 63.7527 405.947 63.5224 405.845C64.4437 404.642 68.9353 407.804 69.6136 408.29Z" fill="#EF6E4B"/>
<path d="M96.4481 511.449C96.4481 512.204 95.8338 512.819 95.0788 512.819C94.3238 512.819 93.7096 512.204 93.7096 511.449C93.7096 510.694 94.3238 510.079 95.0788 510.079C95.8338 510.079 96.4481 510.694 96.4481 511.449Z" fill="#6097B2"/>
<path d="M120.813 520.845C120.813 521.601 120.199 522.215 119.444 522.215C118.689 522.215 118.074 521.601 118.074 520.845C118.074 520.09 118.689 519.476 119.444 519.476C120.199 519.476 120.813 520.09 120.813 520.845Z" fill="#6097B2"/>
<path d="M141.569 525.89C141.569 526.645 140.955 527.259 140.2 527.259C139.445 527.259 138.83 526.645 138.83 525.89C138.83 525.134 139.445 524.52 140.2 524.52C140.955 524.52 141.569 525.134 141.569 525.89Z" fill="#6097B2"/>
<path d="M109.667 493.603C109.667 494.358 109.053 494.973 108.298 494.973C107.543 494.973 106.928 494.358 106.928 493.603C106.928 492.847 107.543 492.233 108.298 492.233C109.053 492.233 109.667 492.847 109.667 493.603Z" fill="#6097B2"/>
<path d="M112.905 507.954C113.661 507.954 114.274 507.341 114.274 506.584C114.274 505.828 113.661 505.214 112.905 505.214C112.148 505.214 111.535 505.828 111.535 506.584C111.535 507.341 112.148 507.954 112.905 507.954Z" fill="#6097B2"/>
<path d="M135.874 513.984C135.874 514.739 135.26 515.353 134.505 515.353C133.75 515.353 133.136 514.739 133.136 513.984C133.136 513.228 133.75 512.614 134.505 512.614C135.26 512.614 135.874 513.228 135.874 513.984Z" fill="#6097B2"/>
<path d="M138.843 491.593C138.843 492.348 138.229 492.963 137.474 492.963C136.719 492.963 136.105 492.348 136.105 491.593C136.105 490.838 136.719 490.223 137.474 490.223C138.229 490.223 138.843 490.838 138.843 491.593Z" fill="#6097B2"/>
<path d="M123.321 488.303C124.077 488.303 124.69 487.69 124.69 486.933C124.69 486.177 124.077 485.563 123.321 485.563C122.565 485.563 121.952 486.177 121.952 486.933C121.952 487.69 122.565 488.303 123.321 488.303Z" fill="#6097B2"/>
<path d="M84.3552 538.102C84.3552 538.858 83.741 539.472 82.986 539.472C82.231 539.472 81.6168 538.858 81.6168 538.102C81.6168 537.347 82.231 536.733 82.986 536.733C83.741 536.733 84.3552 537.347 84.3552 538.102Z" fill="#6097B2"/>
<path d="M64.8916 532.29C64.8916 533.046 64.2774 533.66 63.5224 533.66C62.7674 533.66 62.1531 533.046 62.1531 532.29C62.1531 531.535 62.7674 530.921 63.5224 530.921C64.2774 530.921 64.8916 531.535 64.8916 532.29Z" fill="#6097B2"/>
<path d="M53.2979 521.601C53.0547 521.972 52.6325 522.215 52.1462 522.215C51.3912 522.215 50.7769 521.601 50.7769 520.846C50.7769 520.679 50.8025 520.513 50.8793 520.372C51.7239 520.679 52.5301 521.089 53.2979 521.601Z" fill="#6097B2"/>
<path d="M89.973 557.293C90.7292 557.293 91.3422 556.68 91.3422 555.923C91.3422 555.166 90.7292 554.553 89.973 554.553C89.2168 554.553 88.6037 555.166 88.6037 555.923C88.6037 556.68 89.2168 557.293 89.973 557.293Z" fill="#6097B2"/>
<path d="M56.3947 575.28C56.3947 576.035 55.7804 576.65 55.0254 576.65C54.2704 576.65 53.6562 576.035 53.6562 575.28C53.6562 574.524 54.2704 573.91 55.0254 573.91C55.7804 573.91 56.3947 574.524 56.3947 575.28Z" fill="#6097B2"/>
<path d="M69.3064 564.91C70.0626 564.91 70.6757 564.297 70.6757 563.54C70.6757 562.784 70.0626 562.17 69.3064 562.17C68.5502 562.17 67.9372 562.784 67.9372 563.54C67.9372 564.297 68.5502 564.91 69.3064 564.91Z" fill="#6097B2"/>
<path d="M48.0513 554.527C48.8075 554.527 49.4205 553.914 49.4205 553.158C49.4205 552.401 48.8075 551.788 48.0513 551.788C47.2951 551.788 46.682 552.401 46.682 553.158C46.682 553.914 47.2951 554.527 48.0513 554.527Z" fill="#6097B2"/>
<path d="M66.568 594.06C66.568 594.816 65.9537 595.43 65.1987 595.43C64.4437 595.43 63.8295 594.816 63.8295 594.06C63.8295 593.305 64.4437 592.69 65.1987 592.69C65.9665 592.69 66.568 593.305 66.568 594.06Z" fill="#6097B2"/>
<path d="M79.5821 522.215C79.5821 522.971 78.9679 523.585 78.2129 523.585C77.4579 523.585 76.8436 522.971 76.8436 522.215C76.8436 521.46 77.4579 520.845 78.2129 520.845C78.9679 520.845 79.5821 521.46 79.5821 522.215Z" fill="#6097B2"/>
<path d="M92.6986 499.21C92.6986 499.965 92.0844 500.58 91.3294 500.58C90.5744 500.58 89.9602 499.965 89.9602 499.21C89.9602 498.455 90.5744 497.84 91.3294 497.84C92.0844 497.84 92.6986 498.455 92.6986 499.21Z" fill="#6097B2"/>
<path d="M107.543 480.058C107.543 480.814 106.928 481.428 106.173 481.428C105.418 481.428 104.804 480.814 104.804 480.058C104.804 479.303 105.418 478.688 106.173 478.688C106.941 478.688 107.543 479.303 107.543 480.058Z" fill="#6097B2"/>
<path d="M77.4579 507.954C77.4579 508.709 76.8436 509.324 76.0886 509.324C75.3336 509.324 74.7194 508.709 74.7194 507.954C74.7194 507.198 75.3336 506.584 76.0886 506.584C76.8436 506.584 77.4579 507.198 77.4579 507.954Z" fill="#6097B2"/>
<path d="M94.0679 485.563C94.0679 486.319 93.4536 486.933 92.6986 486.933C91.9436 486.933 91.3294 486.319 91.3294 485.563C91.3294 484.808 91.9436 484.193 92.6986 484.193C93.4536 484.193 94.0679 484.808 94.0679 485.563Z" fill="#6097B2"/>
<path d="M67.9372 547.09C67.9372 547.845 67.323 548.459 66.568 548.459C65.813 548.459 65.1987 547.845 65.1987 547.09C65.1987 546.334 65.813 545.72 66.568 545.72C67.323 545.72 67.9372 546.334 67.9372 547.09Z" fill="#6097B2"/>
<path d="M50.7769 535.017C50.7769 535.773 50.1627 536.387 49.4077 536.387C48.6527 536.387 48.0385 535.773 48.0385 535.017C48.0385 534.262 48.6527 533.647 49.4077 533.647C50.1755 533.66 50.7769 534.262 50.7769 535.017Z" fill="#6097B2"/>
<path d="M99.1737 532.29C99.9299 532.29 100.543 531.677 100.543 530.921C100.543 530.164 99.9299 529.551 99.1737 529.551C98.4175 529.551 97.8045 530.164 97.8045 530.921C97.8045 531.677 98.4175 532.29 99.1737 532.29Z" fill="#6097B2"/>
<path d="M127.416 539.472C128.172 539.472 128.785 538.859 128.785 538.102C128.785 537.346 128.172 536.733 127.416 536.733C126.66 536.733 126.047 537.346 126.047 538.102C126.047 538.859 126.66 539.472 127.416 539.472Z" fill="#6097B2"/>
<path d="M127.416 499.21C127.416 499.965 126.802 500.58 126.047 500.58C125.292 500.58 124.677 499.965 124.677 499.21C124.677 498.455 125.292 497.84 126.047 497.84C126.802 497.84 127.416 498.455 127.416 499.21Z" fill="#6097B2"/>
<path d="M143.834 502.065C143.834 502.82 143.22 503.435 142.465 503.435C141.71 503.435 141.095 502.82 141.095 502.065C141.095 501.31 141.71 500.695 142.465 500.695C143.22 500.695 143.834 501.31 143.834 502.065Z" fill="#6097B2"/>
<path d="M111.036 548.459C111.036 549.215 110.422 549.829 109.667 549.829C108.912 549.829 108.298 549.215 108.298 548.459C108.298 547.704 108.912 547.09 109.667 547.09C110.422 547.09 111.036 547.704 111.036 548.459Z" fill="#6097B2"/>
<path d="M97.8045 574.128C98.5607 574.128 99.1737 573.514 99.1737 572.758C99.1737 572.001 98.5607 571.388 97.8045 571.388C97.0483 571.388 96.4353 572.001 96.4353 572.758C96.4353 573.514 97.0483 574.128 97.8045 574.128Z" fill="#6097B2"/>
<path d="M76.8436 578.019C77.5998 578.019 78.2129 577.406 78.2129 576.649C78.2129 575.893 77.5998 575.28 76.8436 575.28C76.0874 575.28 75.4744 575.893 75.4744 576.649C75.4744 577.406 76.0874 578.019 76.8436 578.019Z" fill="#6097B2"/>
<path d="M134.505 557.293C135.261 557.293 135.874 556.68 135.874 555.923C135.874 555.166 135.261 554.553 134.505 554.553C133.749 554.553 133.136 555.166 133.136 555.923C133.136 556.68 133.749 557.293 134.505 557.293Z" fill="#6097B2"/>
<path d="M116.999 566.28C116.999 567.035 116.385 567.65 115.63 567.65C114.875 567.65 114.261 567.035 114.261 566.28C114.261 565.524 114.875 564.91 115.63 564.91C116.385 564.91 116.999 565.524 116.999 566.28Z" fill="#6097B2"/>
<path d="M88.6037 596.787C88.6037 597.542 87.9895 598.157 87.2345 598.157C86.4795 598.157 85.8652 597.542 85.8652 596.787C85.8652 596.032 86.4795 595.417 87.2345 595.417C87.9895 595.417 88.6037 596.032 88.6037 596.787Z" fill="#6097B2"/>
<path d="M108.311 591.039C109.067 591.039 109.68 590.426 109.68 589.669C109.68 588.913 109.067 588.299 108.311 588.299C107.554 588.299 106.941 588.913 106.941 589.669C106.941 590.426 107.554 591.039 108.311 591.039Z" fill="#6097B2"/>
<path d="M128.606 582.999C129.362 582.999 129.975 582.386 129.975 581.629C129.975 580.873 129.362 580.26 128.606 580.26C127.85 580.26 127.237 580.873 127.237 581.629C127.237 582.386 127.85 582.999 128.606 582.999Z" fill="#6097B2"/>
<path d="M120.813 605.134C120.813 605.889 120.199 606.504 119.444 606.504C118.689 606.504 118.074 605.889 118.074 605.134C118.074 604.379 118.689 603.764 119.444 603.764C120.199 603.764 120.813 604.379 120.813 605.134Z" fill="#6097B2"/>
<path d="M119.316 677.081H96.8831C95.4243 672.908 98.1244 668.709 97.6637 665.035C96.8832 658.813 100.505 662.244 100.505 662.244C101.144 655.548 110.55 654.281 110.448 657.264C110.294 661.655 111.139 664.369 112.393 666.187C114.926 669.835 119.072 669.81 119.776 672.421C119.853 672.677 119.904 672.933 119.943 673.164C120.646 676.454 119.316 677.081 119.316 677.081Z" fill="#164353"/>
<path d="M119.955 673.177C115.31 674.252 104.6 672.844 104.177 670.155C103.768 667.544 109.539 666.315 112.405 666.199C114.939 669.848 119.085 669.822 119.789 672.434C119.853 672.69 119.917 672.946 119.955 673.177Z" fill="#205260"/>
<path d="M27.0904 503.243C24.6975 501.066 20.8201 504.664 20.8201 504.664C20.8201 504.664 22.9059 507.762 21.5623 509.016C20.2186 510.271 18.6447 507.416 15.9958 508.658C15.7782 508.76 15.5607 508.888 15.3431 509.029C13.2701 510.271 11.1075 512.87 9.36712 514.841C9.00881 515.238 8.6761 515.609 8.35619 515.93C6.32153 518.067 1.08771 519.309 0.102373 513.625C-0.882966 507.941 5.51534 501.271 12.5279 495.152C19.5404 489.033 24.0832 492.668 24.0832 492.668C24.0832 492.668 25.67 495.241 25.67 496.842C25.67 498.429 27.0904 499.236 27.8838 500.746C28.69 502.257 27.0904 503.243 27.0904 503.243Z" fill="#164353"/>
<path d="M15.3431 509.029C13.2701 510.271 11.1075 512.87 9.36712 514.841C6.74381 515.469 4.37644 515.277 4.00534 512.806C3.10958 506.84 15.0104 499.248 14.0635 503.435C13.5772 505.547 14.409 507.544 15.3431 509.029Z" fill="#205260"/>
<path d="M430.759 667.377C429.659 666.801 428.635 665.521 427.714 663.908C427.714 663.908 426.92 659.133 427.714 654.114C428.507 649.096 426.319 644.999 419.217 643.45C412.307 641.952 408.212 645.281 409.811 659.171C408.762 664.945 408.545 671.525 410.938 677.081H432.193C432.205 677.081 435.558 669.899 430.759 667.377Z" fill="#CFD8DC"/>
<path d="M449.417 592.511C449.417 592.511 449.417 606.363 441.598 620.586C433.639 635.065 423.798 654.921 423.798 654.921C423.798 654.921 417.246 661.322 413.075 650.722C413.075 650.722 416.018 613.826 422.762 600.333C429.505 586.84 449.417 592.511 449.417 592.511Z" fill="#FF8B66"/>
<path d="M551.355 547.384C551.355 547.384 564.011 600.653 572.072 614.71C572.072 614.71 570.217 620.586 561.502 622.365C561.502 622.365 533.951 581.86 532.185 564.795C530.394 547.742 551.355 547.384 551.355 547.384Z" fill="#FF8B66"/>
<path d="M557.472 559.917C554.106 568.034 528.09 568.469 528.09 568.469L526.107 565.537L525.582 564.769L521.513 558.765C521.513 558.765 478.401 516.467 470.007 520.013H469.994C469.751 520.128 469.508 520.256 469.277 520.423C463.506 524.545 462.969 547.128 456.148 585.035C455.495 588.632 454.049 592.818 452.949 595.724C452.821 596.032 452.706 596.339 452.59 596.62C451.963 598.221 451.528 599.245 451.528 599.245C425.219 609.909 416.53 588.837 416.53 588.837C416.53 588.837 416.837 588.222 417.297 587.249C417.4 587.032 417.515 586.788 417.63 586.532C419.012 583.486 421.213 578.224 421.188 575.433C421.162 572.373 421.136 569.429 421.111 566.613C421.111 566.356 421.111 566.113 421.098 565.87C421.06 556.755 421.072 548.843 421.124 541.969V541.239C421.149 538.243 421.2 535.44 421.252 532.828V532.086C421.482 520.103 421.866 512.102 422.275 506.776C422.288 506.533 422.314 506.277 422.327 506.046C423.056 497.072 423.824 496.201 423.824 496.201L418.552 459.549H476.059C476.059 459.549 484.697 468.203 495.907 479.636C496.15 479.866 496.381 480.097 496.598 480.327C500.667 484.462 505.057 488.956 509.459 493.513C509.638 493.692 509.817 493.872 509.97 494.038C511.698 495.83 513.438 497.622 515.153 499.402C515.371 499.62 515.563 499.837 515.78 500.055C521.551 506.033 527.144 511.935 531.929 517.094C532.096 517.261 532.262 517.44 532.416 517.606C538.968 524.699 543.958 530.37 545.673 533.02C550.229 539.997 553.786 549.087 555.744 554.694C555.744 554.694 555.744 554.694 555.744 554.707C555.846 554.963 555.923 555.193 556.013 555.436C556.96 558.176 557.472 559.917 557.472 559.917Z" fill="#8B383E"/>
<path d="M432.449 501.706C430.107 504.484 426.69 506.187 422.288 506.789C422.301 506.545 422.327 506.289 422.339 506.059C426.485 505.457 429.697 503.844 431.898 501.233C435.853 496.573 435.213 490.274 435.2 490.223L435.917 490.133C435.942 490.402 436.595 496.803 432.449 501.706Z" fill="#662C33"/>
<path d="M496.624 480.34C496.393 480.353 496.189 480.365 495.958 480.365C489.56 480.365 482.893 473.376 482.547 473.017L483.059 472.518C483.149 472.62 489.79 479.585 495.933 479.636C496.163 479.879 496.393 480.097 496.624 480.34Z" fill="#662C33"/>
<path d="M452.962 595.737C452.834 596.045 452.718 596.352 452.603 596.633C448.342 598.195 444.439 598.835 440.869 598.835C429.505 598.835 421.635 592.255 417.31 587.262C417.413 587.045 417.528 586.801 417.643 586.545C423.171 593.049 434.982 602.612 452.962 595.737Z" fill="#662C33"/>
<path d="M468.407 506.827C469.354 510.911 469.968 515.353 469.994 520.026C469.751 520.141 469.508 520.269 469.277 520.436C469.252 498.98 456.826 482.235 456.685 482.043L457.248 481.62C457.364 481.761 464.722 491.708 468.202 506.085C469.648 505.137 470.634 503.768 471.043 502.001C472.835 494.473 464.696 482.158 464.619 482.03L465.208 481.633C465.553 482.158 473.59 494.32 471.747 502.155C471.274 504.203 470.147 505.752 468.407 506.827Z" fill="#662C33"/>
<path d="M532.441 517.632C530.33 519.937 528.334 521.895 528.155 522.062L527.771 522.446L527.591 521.934C524.802 514.637 506.899 498.839 506.72 498.685L506.503 498.48L509.484 493.539C509.663 493.718 509.843 493.897 509.996 494.064L507.501 498.212C510.981 499.415 513.451 499.633 515.192 499.415C515.409 499.633 515.601 499.85 515.819 500.068C515.23 500.17 514.616 500.221 513.963 500.221C512.363 500.221 510.521 499.889 508.461 499.274C512.53 502.935 525.16 514.649 528.052 521.178C529.178 520.065 530.599 518.605 531.968 517.107C532.134 517.287 532.288 517.453 532.441 517.632Z" fill="#662C33"/>
<path d="M434.215 566.51L433.933 566.561C433.664 566.638 430.44 567.304 426.729 567.304C424.873 567.304 422.902 567.137 421.136 566.638C421.136 566.382 421.136 566.139 421.124 565.896C425.807 567.24 432.078 566.203 433.498 565.934L432.308 536.361C431.642 537.987 430.324 540.202 427.842 541.418C426.665 542.02 425.347 542.301 423.888 542.301C423.018 542.301 422.109 542.199 421.149 541.994V541.265C423.606 541.828 425.743 541.674 427.509 540.778C430.516 539.28 431.719 536.093 432.078 534.825C429.71 535.184 424.911 533.967 421.264 532.854V532.111C425.206 533.302 430.529 534.684 432.449 534.019L432.909 533.865L434.215 566.51Z" fill="#662C33"/>
<path d="M556.038 555.449C551.905 559.533 543.434 565.768 530.407 565.768C529.025 565.768 527.591 565.691 526.107 565.537L525.582 564.769C541.425 566.587 551.355 559.149 555.77 554.719C555.872 554.976 555.949 555.206 556.038 555.449Z" fill="#662C33"/>
<path d="M486.706 303.711C486.706 303.711 485.12 300.075 478.452 300.062C473.308 300.062 471.338 302.904 471.338 302.904C468.254 311.904 464.952 346.38 463.762 347.596C463.161 348.223 424.988 373.93 424.988 373.93C445.706 374.314 458.63 399.854 458.63 399.854C459.296 391.456 482.688 358.196 482.944 355.239C483.418 349.67 493.309 324.68 486.706 303.711Z" fill="#CE364C"/>
<path d="M420.445 483.937C420.445 483.937 420.254 491.132 422.582 491.606C424.911 492.079 443.85 497.687 465.63 487.778C487.41 477.869 491.198 470.521 484.812 465.08C478.414 459.626 420.445 483.937 420.445 483.937Z" fill="#CE364C"/>
<path d="M411.718 378.922C411.718 378.922 391.896 376.58 380.533 381.496C380.533 381.496 377.359 395.565 392.984 427.058C408.596 458.551 404.974 478.381 422.582 485.845C438.194 492.463 484.224 472.761 485.67 466.232C489.304 449.782 461.164 420.926 459.386 404.194C457.607 387.487 441.266 362.344 411.718 378.922Z" fill="#F24052"/>
<path d="M380.533 381.496C366.674 386.412 351.101 401.979 351.075 409.481C351.049 416.983 364.076 419.876 364.076 419.876L385.421 409.481C385.421 409.481 391.525 405.218 387.635 392.787C383.745 380.356 380.533 381.496 380.533 381.496Z" fill="#CE364C"/>
<path d="M437.452 395.373C433.319 395.373 428.175 393.875 424.988 391.609C423.235 390.355 422.186 388.946 421.955 387.525C421.175 382.597 425.961 380.1 426.165 379.998L426.805 381.265C426.639 381.355 422.736 383.416 423.35 387.308C423.517 388.345 424.361 389.433 425.807 390.457C429.377 393.005 435.558 394.502 439.576 393.786C441.393 393.466 442.571 392.813 443.095 391.852C443.735 390.675 443.185 389.33 443.185 389.318L444.49 388.754C444.529 388.831 445.322 390.713 444.349 392.505C443.607 393.875 442.084 394.784 439.819 395.181C439.09 395.309 438.297 395.373 437.452 395.373Z" fill="#CFD8DC"/>
<path d="M419.882 410.364C416.811 410.364 411.731 409.084 411.014 404.053C410.656 401.492 410.886 399.354 411.091 397.472C411.398 394.694 411.641 392.505 410.016 389.881C407.342 385.541 403.707 385.259 403.554 385.246L403.643 383.825C403.823 383.838 408.148 384.145 411.219 389.138C413.087 392.185 412.806 394.835 412.499 397.639C412.294 399.534 412.076 401.479 412.422 403.861C413.19 409.289 420.113 408.956 420.407 408.943L420.497 410.364C420.292 410.364 420.1 410.364 419.882 410.364Z" fill="#CFD8DC"/>
<path d="M424.195 384.85C424.195 384.85 434.675 377.706 432.193 369.987C429.71 362.254 395.966 362.792 387.264 372.035C378.562 381.278 406.088 387.41 406.088 387.41C408.212 383.109 421.827 382.635 424.195 384.85Z" fill="#CE364C"/>
<path d="M405.358 383.646C400.38 381.956 397.437 378.372 398.499 374.224C399.561 370.076 420.944 369.974 424.988 373.277C429.032 376.58 423.337 389.753 405.358 383.646Z" fill="#A02E44"/>
<path d="M402.991 371.996C402.991 371.996 407.393 379.511 405.358 383.646C405.358 383.646 420.445 388.857 420.445 380.407C420.445 380.407 417.605 374.07 418.679 369.987L402.991 371.996Z" fill="#EF6E4B"/>
<path d="M397.962 365.429C397.962 365.429 390.553 353.549 391.231 342.206C391.576 336.535 394.494 334.307 394.494 334.307C394.494 334.307 392.139 331.03 394.66 326.024C394.66 326.024 398.154 330.07 410.413 328.79C422.237 327.561 423.414 335.984 423.414 335.984C431.86 337.239 426.166 362.805 420.266 365.416H397.962V365.429Z" fill="#FFB878"/>
<path d="M394.814 354.458C394.814 354.458 390.553 350.207 390.028 355.175C389.414 360.935 394.647 363.253 395.671 361.422C396.695 359.591 394.814 354.458 394.814 354.458Z" fill="#FF8B66"/>
<path d="M424.656 354.765C424.656 354.765 428.917 350.515 429.441 355.482C430.043 361.243 424.822 363.56 423.798 361.729C422.774 359.899 424.656 354.765 424.656 354.765Z" fill="#FF8B66"/>
<path d="M409.287 375.325C399.83 375.325 394.494 369.142 394.494 350.617C394.494 341.054 399.357 335.191 409.952 335.191C420.548 335.191 425.001 341.054 425.001 350.617C425.001 370.537 419.051 375.325 409.287 375.325Z" fill="#FF8B66"/>
<path d="M421.866 357.223C422.032 358.17 421.2 359.118 420.01 359.322C418.82 359.527 417.72 358.926 417.553 357.978C417.387 357.031 418.219 356.083 419.409 355.879C420.599 355.674 421.7 356.276 421.866 357.223Z" fill="#DB614D"/>
<path d="M402.415 357.748C402.351 358.708 401.327 359.425 400.124 359.348C398.922 359.271 398 358.426 398.064 357.466C398.128 356.506 399.152 355.789 400.355 355.866C401.558 355.943 402.479 356.788 402.415 357.748Z" fill="#DB614D"/>
<path d="M417.694 347.289C417.566 347.301 417.438 347.276 417.336 347.199C415.826 346.047 413.574 346.456 413.535 346.456C413.279 346.495 413.036 346.341 412.985 346.072C412.934 345.816 413.1 345.573 413.356 345.522C413.458 345.496 416.069 345.035 417.899 346.444C418.104 346.597 418.142 346.905 417.988 347.109C417.924 347.212 417.809 347.276 417.694 347.289Z" fill="#FFB878"/>
<path d="M399.6 347.353C399.485 347.34 399.369 347.276 399.293 347.186C399.126 346.981 399.152 346.687 399.357 346.521C401.148 345.048 403.771 345.445 403.874 345.458C404.13 345.496 404.309 345.74 404.271 345.996C404.232 346.252 403.976 346.431 403.733 346.392C403.72 346.392 401.417 346.06 399.958 347.25C399.856 347.34 399.728 347.378 399.6 347.353Z" fill="#FFB878"/>
<path d="M416.722 352.627C416.722 353.805 416.197 354.752 415.544 354.752C414.892 354.752 414.367 353.805 414.367 352.627C414.367 351.449 414.892 350.502 415.544 350.502C416.197 350.502 416.722 351.462 416.722 352.627Z" fill="#1A4850"/>
<path d="M404.091 352.627C404.091 353.805 403.567 354.752 402.914 354.752C402.261 354.752 401.737 353.805 401.737 352.627C401.737 351.449 402.261 350.502 402.914 350.502C403.567 350.502 404.091 351.462 404.091 352.627Z" fill="#1A4850"/>
<path d="M397.386 337.252C397.386 337.252 407.457 340.939 421.904 339.902C421.904 339.902 424.988 343.742 424.617 357.3C424.617 357.3 433.076 332.886 408.378 332.886C383.681 332.886 394.814 356.762 394.814 356.762C394.814 356.762 392.792 341.822 397.386 337.252Z" fill="#FFB878"/>
<path d="M409.875 358.951L409.172 358.234L411.04 356.378C409.223 353.818 409.236 347.877 409.236 347.609H410.247C410.247 347.673 410.234 354.061 412.089 356.071L412.422 356.429L409.875 358.951Z" fill="#DB614D"/>
<path d="M403.605 362.036C403.605 362.036 412.908 362.433 417.605 361.191C417.605 361.191 418.436 367.964 411.219 368.297C403.605 368.655 403.605 362.036 403.605 362.036Z" fill="#1A4850"/>
<path d="M443.377 387.641C445.156 387.308 444.977 391.955 443.377 390.611C441.777 389.267 441.598 387.974 443.377 387.641Z" fill="#CFD8DC"/>
<path d="M421.955 410.172C421.687 411.964 417.349 410.262 419.153 409.199C420.944 408.124 422.224 408.38 421.955 410.172Z" fill="#CFD8DC"/>
<path d="M402.888 419.876C402.888 419.876 400.073 427.109 400.227 431.193C400.393 435.277 401.724 434.752 401.724 434.752C401.724 434.752 399.587 435.597 399.177 437.952C398.768 440.308 404.718 442.036 405.128 442.036C405.537 442.036 409.735 440.436 409.735 440.436L410.618 427.071L406.907 424.741L402.888 419.876Z" fill="#EF6E4B"/>
<path d="M405.141 418.929C405.141 418.929 410.272 422.129 412.268 424.075C414.252 426.034 413.126 441.127 412.268 441.844C411.411 442.561 404.872 444.021 403.618 443.201C402.364 442.382 404.104 437.94 404.104 437.94C404.104 437.94 407.393 437.223 406.919 438.477C406.446 439.719 406.919 440.782 406.919 440.782L408.263 440.244C408.263 440.244 407.598 436.864 408.263 434.381C408.928 431.897 403.631 429.273 402.991 424.715C402.351 420.183 405.141 418.929 405.141 418.929Z" fill="#FF8B66"/>
<path d="M351.92 411.58C350.282 404.475 357.32 401.966 367.122 403.182C378.485 404.591 401.826 407.561 406.907 419.876C406.907 419.876 408.57 424.728 404.271 427.071C392.293 433.587 355.016 424.92 351.92 411.58Z" fill="#CE364C"/>
<path d="M387.481 406.869C387.481 406.869 373.93 401.236 367.186 400.673C360.442 400.097 376.515 405.999 387.481 406.869Z" fill="#A02E44"/>
<path d="M489.022 284.866C487.999 286.031 486.31 290.563 486.31 290.563C485.593 294.378 485.183 296.477 483.853 298.219C482.535 299.972 483.226 303.045 483.226 303.045C483.226 303.045 478.056 305.708 473.705 302.418C473.705 302.418 474.166 299.358 473.705 298.5C472.809 296.772 469.943 295.837 468.957 292.342C467.972 288.835 465.042 284.917 465.042 284.917C465.042 284.917 465.886 283.099 467.409 284.2C468.957 285.327 469.943 288.118 470.775 288.412C470.941 288.463 471.12 288.515 471.286 288.527C471.286 288.527 471.299 288.527 471.325 288.54C471.965 288.63 472.617 288.489 473.014 288.105C473.04 288.092 473.091 288.067 473.116 288.015C474.524 286.377 474.844 281.576 474.793 279.425C474.703 276.442 474.818 272.32 476.635 273.011C478.452 273.703 476.789 275.367 478.197 281.947L478.875 282.037C479.003 282.51 480.257 278.043 480.551 273.856C480.769 270.976 482.65 272.038 483.072 272.947C483.494 273.856 482.855 276.724 482.727 278.823C482.624 280.206 482.509 281.64 482.445 282.485L483.238 282.92C486.105 277.915 485.132 275.841 486.809 275.738C488.472 275.636 487.871 279.86 486.975 281.461C486.591 282.152 486.22 283.611 485.926 285.032C488.869 281.64 488.536 279.86 489.893 280.078C491.3 280.334 490.046 283.701 489.022 284.866Z" fill="#FF8B66"/>
<path d="M476.315 292.701C475.317 289.961 471.773 288.707 471.325 288.566C471.965 288.655 472.617 288.515 473.014 288.131C476.507 289.68 476.315 292.701 476.315 292.701Z" fill="#EF6E4B"/>
<path d="M414.61 656.24C414.61 656.24 412.639 652.233 414.393 650.504C416.146 648.776 418.206 651.976 421.2 651.272C424.195 650.555 424.886 648.43 425.666 651.336C426.447 654.23 425.5 663.345 414.61 656.24Z" fill="#CFD8DC"/>
<path d="M425.871 656.06C425.871 656.06 417.835 658.915 413.663 656.06L414.725 659.542C414.725 659.542 423.465 660.464 424.668 658.262L425.871 656.06Z" fill="#ADBEC4"/>
<path d="M425.769 660.387C425.769 660.387 418.411 659.363 414.853 661.194V662.922C414.853 662.922 424.451 660.682 427.56 662.922L425.769 660.387Z" fill="#ADBEC4"/>
<path d="M414.495 666.507C414.495 666.507 415.928 663.025 420.407 662.781C424.886 662.525 427.906 664.996 427.906 664.996C427.906 664.996 420.804 662.064 414.495 666.507Z" fill="#ADBEC4"/>
<path d="M604 618.141C589.86 637.011 570.626 640.647 570.626 640.647C565.047 636.179 564.906 630.892 564.906 630.892C564.906 630.892 559.519 626.091 558.815 623.786C558.099 621.482 563.435 614.543 566.634 615.26C568.835 615.747 570.115 617.501 570.703 618.538C568.054 612.585 570.179 610.511 573.928 611.023C577.831 611.548 574.146 612.469 576.935 615.619C577.14 615.849 577.357 616.028 577.601 616.208C578.112 616.566 578.727 616.809 579.418 616.937C580.032 617.053 580.71 617.078 581.427 617.04C581.798 617.027 582.182 616.989 582.566 616.925C583.295 616.809 584.025 616.63 584.792 616.387C585.97 616.016 587.198 615.491 588.388 614.838C593.276 612.162 595.337 611.253 599.061 612.213C602.772 613.148 602.708 615.964 602.708 615.964L604 618.141Z" fill="#CFD8DC"/>
<path d="M604 618.141C589.86 637.011 570.626 640.647 570.626 640.647C580.441 636.422 589.463 630.891 595.631 624.094C601.786 617.283 604 618.141 604 618.141Z" fill="#ADBEC4"/>
<path d="M577.588 616.195C578.1 616.553 578.714 616.797 579.405 616.925C575.668 617.68 575.4 621.021 575.4 621.021L573.813 620.509C574.158 616.489 577.319 616.208 577.588 616.195Z" fill="#ADBEC4"/>
<path d="M580.109 621.418L578.445 621.469C577.818 619.114 578.624 617.705 579.405 616.925C580.019 617.04 580.697 617.065 581.414 617.027C579.443 618.973 580.109 621.418 580.109 621.418Z" fill="#ADBEC4"/>
<path d="M584.216 620.509L582.566 620.727C581.926 619.05 582.105 617.795 582.553 616.912C583.282 616.797 584.012 616.617 584.78 616.374C583.423 618.397 584.216 620.509 584.216 620.509Z" fill="#ADBEC4"/>
<path d="M426.025 445.224C426.025 445.224 429.672 464.926 422.301 472.774C414.93 480.622 419.806 474.169 422.007 464.056C424.195 453.929 422.518 443.278 426.025 445.224Z" fill="#CE364C"/>
<path d="M460.064 436.442C460.064 436.442 471.696 440.27 477.774 451.01C477.787 451.01 469.661 433.51 460.064 436.442Z" fill="#CE364C"/>
<path d="M158 290.102C159.548 290.128 164.04 291.92 164.04 291.92C167.341 293.955 169.171 295.056 171.359 295.236C173.548 295.428 174.431 299.179 174.431 299.179C174.431 299.179 183.03 301.06 183.516 295.632C183.516 295.632 178.705 288.822 178.372 287.9C177.694 286.069 178.935 283.33 177.003 280.244C175.058 277.159 174.136 272.358 174.136 272.358C174.136 272.358 172.23 271.757 172.012 273.639C171.807 275.546 173.215 278.145 172.869 278.964C172.793 279.131 172.716 279.284 172.613 279.425C172.613 279.425 172.601 279.438 172.601 279.463C172.23 279.988 171.692 280.385 171.142 280.424C171.116 280.436 171.065 280.449 171.014 280.436C168.864 280.385 165.076 277.402 163.528 275.917C161.378 273.856 158.243 271.168 157.539 272.986C156.835 274.804 159.177 274.688 163.118 280.142L162.722 280.705C162.978 281.115 158.832 279.041 155.53 276.455C153.252 274.676 152.766 276.788 153.163 277.71C153.547 278.631 156.106 280.091 157.744 281.397C158.832 282.254 159.97 283.125 160.649 283.65L160.444 284.533C154.813 283.304 153.93 281.179 152.728 282.357C151.537 283.522 155.069 285.916 156.861 286.325C157.629 286.505 158.959 287.209 160.214 287.938C155.722 287.836 154.621 286.402 153.879 287.542C153.124 288.732 156.451 290.076 158 290.102Z" fill="#FF8B66"/>
<path d="M172.332 285.941C170.963 283.368 172.422 279.886 172.613 279.463C172.242 279.988 171.705 280.385 171.155 280.424C169.977 284.046 172.332 285.941 172.332 285.941Z" fill="#EF6E4B"/>
<path d="M411.193 290.102C409.645 290.128 405.153 291.92 405.153 291.92C401.852 293.955 400.022 295.056 397.834 295.236C395.646 295.428 394.763 299.179 394.763 299.179C394.763 299.179 386.163 301.06 385.677 295.632C385.677 295.632 390.489 288.822 390.821 287.9C391.5 286.069 390.258 283.33 392.191 280.244C394.136 277.159 395.057 272.358 395.057 272.358C395.057 272.358 396.964 271.757 397.181 273.639C397.386 275.546 395.978 278.145 396.324 278.964C396.401 279.131 396.477 279.284 396.58 279.425C396.58 279.425 396.593 279.438 396.593 279.463C396.964 279.988 397.501 280.385 398.051 280.424C398.077 280.436 398.128 280.449 398.179 280.436C400.329 280.385 404.117 277.402 405.665 275.917C407.815 273.856 410.95 271.168 411.654 272.986C412.358 274.804 410.016 274.688 406.075 280.142L406.472 280.705C406.216 281.115 410.362 279.041 413.663 276.455C415.941 274.676 416.427 276.788 416.031 277.71C415.647 278.631 413.087 280.091 411.449 281.397C410.362 282.254 409.223 283.125 408.545 283.65L408.749 284.533C414.38 283.304 415.263 281.179 416.466 282.357C417.656 283.522 414.124 285.916 412.332 286.325C411.565 286.505 410.234 287.209 408.98 287.938C413.471 287.836 414.572 286.402 415.314 287.542C416.082 288.732 412.742 290.076 411.193 290.102Z" fill="#FF8B66"/>
<path d="M396.861 285.941C398.231 283.368 396.772 279.886 396.58 279.463C396.951 279.988 397.488 280.385 398.039 280.424C399.216 284.046 396.861 285.941 396.861 285.941Z" fill="#EF6E4B"/>
<path d="M335.566 551.058L319.032 448.655L285.927 452.355L252.823 448.655L236.289 551.058L228.355 650.376C228.355 650.376 230.876 658.608 247.397 652.924C247.397 652.924 259.643 560.8 261.537 558.778C263.431 556.755 282.882 496.573 282.882 496.573H288.973C288.973 496.573 308.424 556.742 310.318 558.778C312.212 560.8 324.458 652.924 324.458 652.924C340.966 658.608 343.499 650.376 343.499 650.376L335.566 551.058Z" fill="#0E3944"/>
<path d="M275.511 349.49C277.597 351.526 287.885 355.2 293.324 349.49L297.009 353.113C297.009 353.113 292.812 362.997 285.441 363.342C278.07 363.688 272.747 354.547 272.747 354.547L275.511 349.49Z" fill="#0C476B"/>
<path d="M304.636 348.377C316.946 343.077 356.731 328.982 356.731 328.982C356.731 328.982 383.476 295.466 388.927 290.486C388.927 290.486 394.852 291.549 396.58 298.923C396.58 298.923 379.356 335.805 370.001 346.367C360.647 356.929 313.235 379.767 313.235 379.767L304.636 348.377Z" fill="#0C476B"/>
<path d="M261.537 347.609C265.197 345.291 283.586 357.594 283.586 357.594C283.586 357.594 307.49 344.895 313.107 347.353C313.107 347.353 318.162 354.125 320.197 371.523C322.231 388.921 322.359 460.548 322.359 460.548C322.359 460.548 306.287 466.232 284.545 466.232C259.758 466.232 246.424 459.127 246.424 459.127C246.424 459.127 242.01 359.975 261.537 347.609Z" fill="#FFB878"/>
<path d="M276.471 345.752C276.471 345.752 279.12 354.086 276.471 357.3C276.471 357.3 279.222 363.073 284.162 363.329C289.869 363.624 291.852 357.3 291.852 357.3C291.852 357.3 288.832 349.247 291.852 346.418L276.471 345.752Z" fill="#EF6E4B"/>
<path d="M269.88 337.546C269.88 337.546 264.314 326.818 265.414 315.348C266.515 303.877 283.79 301.253 295.423 306.885C295.423 306.885 291.967 303.506 293.324 302.571C294.68 301.637 297.009 307.641 297.009 307.641C297.009 307.641 300.682 306.514 301.245 307.641C301.808 308.767 297.483 309.382 297.483 309.382C297.483 309.382 304.994 313.543 297.982 335.728L269.88 337.546Z" fill="#8B383E"/>
<path d="M269.036 330.748C269.036 330.748 264.877 326.601 264.365 331.453C263.777 337.073 268.87 339.339 269.868 337.546C270.866 335.767 269.036 330.748 269.036 330.748Z" fill="#FF8B66"/>
<path d="M298.135 331.043C298.135 331.043 302.294 326.895 302.806 331.747C303.395 337.367 298.302 339.633 297.304 337.841C296.306 336.061 298.135 331.043 298.135 331.043Z" fill="#FF8B66"/>
<path d="M283.151 351.104C273.937 351.104 268.729 345.074 268.729 327.01C268.729 317.69 273.464 311.968 283.79 311.968C294.117 311.968 298.468 317.69 298.468 327.01C298.468 346.431 292.671 351.104 283.151 351.104Z" fill="#FF8B66"/>
<path d="M295.41 333.45C295.576 334.371 294.757 335.293 293.605 335.498C292.441 335.703 291.379 335.114 291.212 334.179C291.046 333.258 291.865 332.336 293.017 332.131C294.181 331.939 295.256 332.528 295.41 333.45Z" fill="#DB614D"/>
<path d="M276.445 333.962C276.381 334.896 275.383 335.6 274.206 335.524C273.028 335.447 272.133 334.627 272.197 333.68C272.261 332.746 273.259 332.041 274.436 332.118C275.613 332.195 276.509 333.027 276.445 333.962Z" fill="#DB614D"/>
<path d="M291.2 324.078C291.072 324.078 290.957 324.027 290.867 323.938C289.587 322.593 287.348 322.657 287.322 322.657C287.079 322.657 286.862 322.465 286.849 322.209C286.836 321.953 287.041 321.748 287.297 321.736C287.399 321.736 289.984 321.672 291.545 323.31C291.724 323.49 291.712 323.784 291.532 323.963C291.43 324.04 291.315 324.078 291.2 324.078Z" fill="#8B383E"/>
<path d="M273.835 324.079C273.719 324.079 273.604 324.04 273.515 323.951C273.336 323.771 273.323 323.477 273.502 323.298C275.063 321.659 277.648 321.723 277.75 321.723C278.006 321.736 278.198 321.941 278.198 322.197C278.185 322.453 277.968 322.645 277.725 322.645C277.712 322.645 275.447 322.594 274.18 323.925C274.078 324.027 273.963 324.079 273.835 324.079Z" fill="#8B383E"/>
<path d="M290.406 328.969C290.406 330.108 289.894 331.043 289.255 331.043C288.615 331.043 288.103 330.108 288.103 328.969C288.103 327.83 288.615 326.895 289.255 326.895C289.882 326.895 290.406 327.83 290.406 328.969Z" fill="#1A4850"/>
<path d="M278.083 328.969C278.083 330.108 277.571 331.043 276.931 331.043C276.292 331.043 275.78 330.108 275.78 328.969C275.78 327.83 276.292 326.895 276.931 326.895C277.571 326.895 278.083 327.83 278.083 328.969Z" fill="#1A4850"/>
<path d="M278.083 341.233C278.083 341.233 286.209 342.283 290.393 340.273C290.393 340.273 288.026 345.816 283.586 345.317C279.158 344.818 278.083 341.233 278.083 341.233Z" fill="#1A4850"/>
<path d="M297.508 333.091C297.508 333.091 297.227 323.055 293.311 315.348C293.311 315.348 286.427 318.535 284.917 317.78C283.407 317.025 286.363 315.348 286.363 315.348C286.363 315.348 275.012 319.099 274.321 318.343C273.643 317.588 278.083 315.348 278.083 315.348L271.007 317.78C271.007 317.78 268.831 326.805 269.727 333.091C269.727 333.091 266.681 327.842 266.31 324.219C265.939 320.597 267.526 310.265 278.186 309.51C288.845 308.755 294.821 311.174 297.47 316.077C300.119 320.981 299.786 326.998 297.508 333.091Z" fill="#8B383E"/>
<path d="M284.75 338.327C283.854 338.327 282.946 338.097 282.664 338.02L282.92 337.073C283.893 337.341 285.403 337.495 285.735 337.111C285.851 336.97 285.799 336.663 285.608 336.253C284.277 333.424 283.995 326.242 283.982 325.935L284.968 325.896C284.968 325.973 285.249 333.181 286.491 335.831C286.874 336.637 286.862 337.29 286.478 337.738C286.119 338.199 285.441 338.327 284.75 338.327Z" fill="#DB614D"/>
<path d="M294.962 352.128C294.962 352.128 311.649 403.95 313.235 446.12C313.235 446.12 319.263 447.784 326.045 438.541C332.827 429.298 328.796 356.122 315.795 343.934C315.795 343.934 309.895 342.59 294.962 352.128Z" fill="#105E99"/>
<path d="M297.675 361.191C297.675 361.191 300.656 354.253 299.338 349.49C298.007 344.728 293.324 349.49 293.324 349.49C293.324 349.49 295.218 357.287 297.675 361.191Z" fill="#0C476B"/>
<path d="M264.186 348.377C251.876 343.077 212.091 328.982 212.091 328.982C212.091 328.982 185.282 294.48 179.831 289.513C179.831 289.513 173.087 293.328 172.626 301.24C172.626 301.24 189.467 335.818 198.834 346.38C208.201 356.941 255.599 379.78 255.599 379.78L264.186 348.377Z" fill="#0C476B"/>
<path d="M273.86 352.128C273.86 352.128 257.173 403.95 255.587 446.12C255.587 446.12 249.559 447.784 242.777 438.541C235.995 429.298 240.026 356.122 253.027 343.934C253.027 343.934 258.927 342.59 273.86 352.128Z" fill="#105E99"/>
<path d="M271.147 361.191C271.147 361.191 268.166 354.253 269.484 349.49C270.815 344.728 275.498 349.49 275.498 349.49C275.498 349.49 273.604 357.287 271.147 361.191Z" fill="#0C476B"/>
<path d="M358.228 677.081H325.098C322.782 663.908 326.48 650.709 326.48 650.709L341.631 648.11C343.013 656.444 344.677 659.722 346.967 661.411C346.98 661.411 346.98 661.411 346.98 661.411C348.656 662.628 350.666 663.037 353.161 663.895C356.015 664.894 357.525 666.699 358.28 668.657C359.764 672.562 358.228 677.081 358.228 677.081Z" fill="#662C33"/>
<path d="M358.267 668.67C350.102 669.694 332.149 671.448 333.249 666.712C334.158 662.756 341.733 661.693 346.955 661.424C346.967 661.424 346.967 661.424 346.967 661.424C348.644 662.641 350.653 663.05 353.148 663.908C356.015 664.906 357.525 666.712 358.267 668.67Z" fill="#8B383E"/>
<path d="M247.269 677.081H214.138C214.138 677.081 213.089 673.983 213.575 670.706C213.972 668.03 215.393 665.239 219.219 663.908C222.085 662.909 224.286 662.538 226.09 660.848C228.048 659.005 229.52 655.586 230.748 648.11L245.9 650.709C245.887 650.722 249.572 663.908 247.269 677.081Z" fill="#662C33"/>
<path d="M213.563 670.706C213.959 668.03 215.38 665.239 219.206 663.908C222.072 662.909 224.273 662.538 226.078 660.848C230.275 662.141 236.136 664.51 237.953 668.107C240.487 673.048 221.125 672.268 213.563 670.706Z" fill="#8B383E"/>
<path d="M485.132 674.713C485.132 676.108 484.992 677.081 484.992 677.081H444.746C444.746 676.287 444.759 675.494 444.797 674.713C445.258 664.177 448.572 655.036 448.572 655.036L458.63 650.709C459.501 655.894 461.727 659.21 464.53 661.373C465.272 661.962 466.04 662.436 466.833 662.845C467.204 663.05 467.575 663.229 467.959 663.396C468.804 663.78 469.661 664.087 470.531 664.343C474.089 665.418 477.672 665.649 480.193 666.033C484.48 666.724 485.132 671.691 485.132 674.713Z" fill="#164353"/>
<path d="M485.132 674.713C485.132 676.108 484.992 677.081 484.992 677.081H444.746C444.746 676.287 444.759 675.494 444.797 674.713H485.132Z" fill="#225866"/>
<path d="M466.833 662.858L461.254 664.65L460.077 662.602L464.543 661.386C465.272 661.962 466.04 662.449 466.833 662.858Z" fill="#225866"/>
<path d="M470.519 664.369L466.756 666.865L464.44 665.956L467.946 663.409C468.791 663.793 469.661 664.113 470.519 664.369Z" fill="#225866"/>
<path d="M331.343 674.713C331.24 676.083 330.882 677.081 330.882 677.081H304.073C303.728 676.3 303.484 675.519 303.318 674.713C300.669 661.873 318.495 646.177 318.495 646.177L324.151 653.73C324.151 653.73 323.498 665.816 328.284 668.325C331.163 669.823 331.535 672.665 331.343 674.713Z" fill="#164353"/>
<path d="M303.331 674.713H331.343C331.24 676.083 330.882 677.081 330.882 677.081H304.073C303.74 676.3 303.497 675.519 303.331 674.713Z" fill="#225866"/>
<path d="M327.069 667.352C327.069 667.352 315.769 664.778 310.625 668.107V666.238C310.625 666.251 320.12 661.629 327.069 667.352Z" fill="#225866"/>
<path d="M324.829 664.484C324.829 664.484 317.612 661.181 310.625 664.484L311.418 662.602C311.418 662.602 319.775 659.453 324.829 664.484Z" fill="#225866"/>
<path d="M472.988 560.608C473.001 571.401 463.429 659.35 463.429 659.35C453.857 660.298 446.179 658.377 446.179 658.377C443.556 613.801 443.3 575.472 443.3 575.472L397.412 541.06L397.296 540.97C397.296 540.97 397.13 541.751 396.81 543.147C394.532 553.235 384.922 595.507 380.917 605.185C376.361 616.22 326.493 662.602 326.493 662.602C317.228 661.322 309.371 654.614 309.371 654.614C327.273 624.913 351.676 595.11 351.676 595.11C353.583 584.407 354.94 560.596 355.759 542.801C355.771 542.532 355.784 542.25 355.797 541.982C356.334 529.922 356.603 520.833 356.603 520.833L348.196 503.576L401.634 483.937L413.612 499.274C413.612 499.274 416.35 501.822 420.676 505.88C420.88 506.059 421.072 506.251 421.277 506.43C437.299 521.575 472.988 555.769 472.988 560.608Z" fill="#8BBDDB"/>
<path d="M355.746 542.814C355.759 542.545 355.771 542.263 355.784 541.995C367.032 535.888 365.151 526.133 365.113 526.03L365.804 525.89C365.842 525.979 367.864 536.464 355.746 542.814Z" fill="#6097B2"/>
<path d="M396.58 534.172C396.964 536.31 397.245 538.602 397.399 541.06L397.284 540.97C397.284 540.97 397.117 541.751 396.797 543.147C396.298 526.427 389.414 516.557 389.324 516.442L389.913 516.032C389.989 516.122 394.328 522.395 396.439 533.353C404.565 526.133 396.605 511.334 396.529 511.193L397.156 510.847C397.232 511.014 405.653 526.683 396.58 534.172Z" fill="#6097B2"/>
<path d="M421.252 506.443C421.239 506.456 421.213 506.456 421.2 506.469C420.868 506.597 420.484 506.648 420.087 506.648C416.146 506.648 409.543 501.13 409.236 500.862L409.709 500.324C411.859 502.142 417.835 506.507 420.663 505.88C420.855 506.072 421.06 506.251 421.252 506.443Z" fill="#6097B2"/>
<path d="M351.92 411.58C351.92 411.58 368.171 408.969 376.323 414.154C384.461 419.351 395.159 432.908 395.159 432.908C395.159 432.908 382.465 434.586 381.032 443.214C381.032 443.214 371.806 421.233 351.92 411.58Z" fill="#ADBEC4"/>
<path d="M327.478 420.055C320.606 423.768 309.115 437.735 308.59 446.325C308.078 454.698 314.285 462.404 318.469 468.946C331.509 489.378 345.253 507.429 351.088 531.394C351.126 531.548 380.917 543.377 415.89 501.323C415.89 501.323 396.132 474.72 389.298 452.073C386.522 442.856 383.694 433.062 378.357 424.946C372.484 415.997 362.413 410.736 351.932 411.58C343.064 412.297 334.247 416.394 327.478 420.055Z" fill="#CFD8DC"/>
<path d="M324.586 411.491C324.586 411.491 328.988 419.006 326.953 423.141C326.953 423.141 342.041 428.351 342.041 419.902C342.041 419.902 339.2 413.565 340.275 409.481L324.586 411.491Z" fill="#EF6E4B"/>
<path d="M358.126 462.968C358.126 462.968 349.731 465.349 347.607 468.332C345.483 471.302 343.602 477.971 343.602 477.971H358.113L360.839 472.953L364.038 466.258L358.126 462.968Z" fill="#EF6E4B"/>
<path d="M344.242 403.105C344.242 403.105 350.141 400.635 346.327 382.904C343.807 371.152 340.159 369.398 337.818 369.295C337.818 369.295 334.938 364.955 324.957 367.029C318.124 368.45 312.672 372.598 310.267 380.292C307.758 388.306 312.775 405.499 319.378 407.215L344.242 403.105Z" fill="#164353"/>
<path d="M345.636 391.123C345.636 391.123 349.347 385.951 350.755 391.046C352.38 396.948 347.326 400.276 345.944 398.535C344.562 396.807 345.636 391.123 345.636 391.123Z" fill="#FF8B66"/>
<path d="M314.566 396.576C314.566 396.576 309.384 392.877 309.704 398.151C310.062 404.27 315.923 405.781 316.665 403.694C317.407 401.608 314.566 396.576 314.566 396.576Z" fill="#FF8B66"/>
<path d="M334.132 415.383C343.998 413.757 348.503 406.396 345.317 387.064C343.679 377.092 337.587 371.817 326.544 373.635C315.5 375.453 311.853 382.341 313.491 392.313C316.921 413.078 323.946 417.06 334.132 415.383Z" fill="#FF8B66"/>
<path d="M317.893 398.663C317.881 399.687 318.917 400.519 320.184 400.532C321.464 400.545 322.5 399.726 322.513 398.702C322.526 397.677 321.502 396.845 320.222 396.833C318.943 396.833 317.906 397.652 317.893 398.663Z" fill="#DB614D"/>
<path d="M338.278 395.86C338.509 396.858 339.699 397.421 340.94 397.14C342.181 396.845 343 395.808 342.77 394.823C342.54 393.824 341.35 393.261 340.095 393.542C338.867 393.824 338.035 394.861 338.278 395.86Z" fill="#DB614D"/>
<path d="M320.67 387.897C320.568 387.897 320.478 387.871 320.389 387.807C320.158 387.653 320.107 387.346 320.261 387.116C321.643 385.093 324.407 384.709 324.522 384.683C324.816 384.645 325.047 384.837 325.085 385.119C325.123 385.387 324.932 385.644 324.65 385.682C324.624 385.682 322.206 386.028 321.08 387.679C320.99 387.82 320.837 387.897 320.67 387.897Z" fill="#1A4850"/>
<path d="M339.238 384.837C339.136 384.837 339.033 384.799 338.931 384.735C337.331 383.531 334.938 383.979 334.913 383.992C334.644 384.056 334.375 383.864 334.324 383.595C334.273 383.326 334.452 383.058 334.721 383.006C334.836 382.981 337.587 382.456 339.532 383.941C339.75 384.107 339.801 384.415 339.635 384.645C339.545 384.773 339.392 384.837 339.238 384.837Z" fill="#1A4850"/>
<path d="M322.475 392.992C322.679 394.221 323.396 395.117 324.074 395.002C324.752 394.887 325.136 393.811 324.944 392.582C324.74 391.353 324.023 390.457 323.345 390.572C322.654 390.675 322.27 391.763 322.475 392.992Z" fill="#1A4850"/>
<path d="M335.642 390.816C335.847 392.045 336.564 392.941 337.242 392.825C337.92 392.71 338.304 391.635 338.112 390.406C337.907 389.177 337.191 388.281 336.512 388.396C335.821 388.498 335.438 389.587 335.642 390.816Z" fill="#1A4850"/>
<path d="M339.34 401.94C339.34 401.94 330.78 404.232 326.045 403.323C326.045 403.323 329.321 407.458 334.004 406.268C338.688 405.077 339.34 401.94 339.34 401.94Z" fill="#1A4850"/>
<path d="M339.737 378.09C339.737 378.09 328.604 386.156 314.63 386.77L315.027 399.214C315.027 399.214 302 375.21 327.76 370.947C353.519 366.697 346.02 393.517 346.02 393.517C346.02 393.517 345.227 381.957 339.737 378.09Z" fill="#0E3944"/>
<path d="M330.639 398.599L330.562 397.524C330.575 397.524 332.059 397.409 332.443 396.487C332.597 396.103 331.97 394.899 331.407 393.837C330.626 392.352 329.666 390.508 329.257 388.473L330.319 388.255C330.703 390.15 331.624 391.917 332.366 393.338C333.198 394.912 333.787 396.064 333.441 396.909C332.801 398.446 330.728 398.586 330.639 398.599Z" fill="#DB614D"/>
<path d="M345.777 378.116C327.056 369.987 309.384 386.847 309.384 386.847C309.384 386.847 307.323 373.187 310.932 369.987C311.866 369.142 312.877 368.412 313.926 367.759C322.193 362.549 333.198 362.638 338.24 364.431C339.277 364.802 340.07 365.237 340.531 365.711C343.512 368.809 345.777 378.116 345.777 378.116Z" fill="#CE364C"/>
<path d="M343.512 375.082C343.512 375.082 327.785 371.971 313.12 381.675C313.12 381.675 312.186 372.867 313.926 367.759C322.193 362.549 333.198 362.638 338.24 364.431C341.183 367.785 343.512 375.082 343.512 375.082Z" fill="#CFD8DC"/>
<path d="M310.932 385.247C310.932 385.247 313.427 374.659 316.78 371.664C322.372 366.696 338.074 364.994 346.315 367.977C354.556 370.96 346.315 379.985 346.315 379.985C346.315 379.985 333.173 370.563 310.932 385.247Z" fill="#A02E44"/>
<path d="M335.22 455.632C335.22 455.632 341.644 465.592 352.598 471.455C352.598 471.455 366.29 459.562 384.052 460.638C384.052 460.638 369.336 487.202 356.693 490.146C350.051 491.695 326.045 475.782 326.045 475.782C326.045 475.782 330.831 458.871 335.22 455.632Z" fill="#FF8B66"/>
<path d="M311.546 437.581C317.433 428.005 330.997 442.164 335.617 452.278C340.236 462.392 343.602 464.542 343.602 464.542C343.602 464.542 330.037 470.214 330.14 480.378C330.14 480.366 298.711 458.487 311.546 437.581Z" fill="#ADBEC4"/>
<path d="M352.585 467.077C352.585 467.077 360.839 458.973 388.006 448.386L384.5 437.351C387.609 433.254 393.342 433.254 393.342 433.254C393.342 433.254 407.252 452.905 404.859 458.781C403.362 462.456 374.339 466.296 352.585 467.077Z" fill="#EF6E4B"/>
<path d="M382.337 451.036C382.337 451.036 382.555 449.871 383.553 448.463C384.551 447.042 384.282 444.469 384.641 443.662C384.999 442.869 387.136 439.591 388.556 438.964C389.977 438.324 391.832 437.287 392.229 439.092C392.626 440.897 389.695 440.385 388.377 442.971C388.377 442.971 391.256 442.036 393.547 442.574C395.838 443.112 396.477 445.211 393.662 445.135C391.41 445.083 388.505 446.684 388.505 446.684C388.505 446.684 391.448 447.132 390.975 448.476C390.297 450.371 386.714 449.206 382.337 451.036Z" fill="#FF8B66"/>
<path d="M181.482 488.047C183.913 494.269 193.856 504.92 193.856 504.92C193.856 504.92 218.144 490.351 229.354 496.483C240.563 502.616 249.47 506.354 256.738 503.678C264.007 501.002 232.834 444.302 232.834 444.302L192.423 428.876C192.423 428.876 191.54 439.105 186.92 440.923C182.301 442.741 177.374 459.614 177.707 462.814C178.052 466.015 181.482 488.047 181.482 488.047Z" fill="#3E6575"/>
<path d="M226.948 505.291C226.948 505.291 216.531 525.723 195.02 551.89C195.02 551.89 192.819 583.012 135.926 631.98L129.975 627.294C129.975 627.294 163.848 574.204 170.63 557.92C177.412 541.636 166.881 526.722 198.053 485.55L226.948 505.291Z" fill="#EF6E4B"/>
<path d="M193.779 469.138C184.809 486.331 181.801 508.3 181.801 508.3L177.719 518.605C177.719 518.605 192.205 526.427 208.943 529.269L215.648 511.5L193.779 469.138Z" fill="#662C33"/>
<path d="M240.563 503.691C240.563 503.691 245.004 526.197 244.274 560.071C244.274 560.071 261.78 585.893 247.333 659.568H239.757C239.757 659.568 233.564 596.89 228.829 579.901C224.094 562.913 206.601 557.703 205.654 506.059L240.563 503.691Z" fill="#FF8B66"/>
<path d="M245.004 527.848C245.004 527.848 230.748 530.409 205.654 529.231L205.258 526.402L205.155 525.672L202.558 507.365C202.558 507.365 200.139 504.382 197.656 499.517C197.362 498.954 197.068 498.365 196.786 497.751C193.408 490.543 190.401 480.071 193.779 469.138L199.077 469.381L199.819 469.42L217.555 470.226L218.31 470.265L224.133 470.534L225.041 470.572L228.816 470.738C228.816 470.738 248.024 488.034 244.594 520.013L244.838 524.468L244.863 525.198L245.004 527.848Z" fill="#8B383E"/>
<path d="M199.819 469.433C199.32 470.892 195.967 481.761 197.656 499.517C197.362 498.954 197.068 498.365 196.786 497.751C195.519 481.505 198.437 471.366 199.077 469.382C199.166 469.138 199.205 469.023 199.205 469.01L199.87 469.253C199.87 469.266 199.845 469.33 199.819 469.433Z" fill="#662C33"/>
<path d="M244.863 525.211C239.821 526.504 231.26 526.863 223.135 526.863C215.84 526.863 208.93 526.568 205.245 526.389L205.142 525.659C211.528 525.966 228.317 526.632 239.143 525.442L238.452 513.997C238.618 500.644 234.587 489.25 230.697 481.377C220.831 479.585 218.118 472.275 217.542 470.214C217.453 469.881 217.414 469.689 217.414 469.676L218.105 469.561C218.105 469.574 218.157 469.83 218.285 470.252C218.924 472.39 221.561 478.74 230.275 480.558C227.652 475.424 225.156 471.916 224.107 470.521C223.8 470.099 223.595 469.855 223.582 469.842L224.12 469.382C224.145 469.407 224.478 469.804 225.016 470.559C228.317 475.04 239.437 491.875 239.156 513.958L239.847 525.339C241.741 525.109 243.43 524.827 244.825 524.456L244.863 525.211Z" fill="#662C33"/>
<path d="M208.572 392.019C202.916 388.908 162.171 404.885 162.171 404.885C162.171 404.885 156.144 415.639 159.906 419.863C163.669 424.075 177.003 422.219 181.085 419.863C185.167 417.508 195.993 415.715 195.993 415.715L208.572 392.019Z" fill="#8BBDDB"/>
<path d="M244.594 358.081C244.594 358.081 253.015 361.332 256.086 371.036C259.17 380.74 249.956 405.295 253.143 416.586C256.329 427.877 255.83 449.193 245.9 453.699C235.97 458.205 215.585 450.14 211.208 437.824C206.832 425.509 208.726 378.833 217.133 362.971C225.553 347.097 242.573 355.098 244.594 358.081Z" fill="#F24052"/>
<path d="M234.933 399.943C237.147 402.337 242.867 398.074 242.867 398.074C242.867 398.074 242.752 419.249 236.597 420.862C230.441 422.488 214.765 404.181 215.418 399.214C216.058 394.234 230.006 394.63 234.933 399.943Z" fill="#8BBDDB"/>
<path d="M211.221 394.656C211.221 394.656 217.44 399.943 228.279 402.452C239.117 404.962 244.991 399.866 250.532 406.856C258.85 417.354 245.311 436.698 238.196 446.722C235.547 450.46 229.942 460.83 228.803 470.764C228.803 470.764 209.992 476.23 193.779 469.138L192.563 446.056C192.576 446.056 182.352 414.947 211.221 394.656Z" fill="#0E3944"/>
<path d="M230.659 417.111C230.659 417.111 239.245 396.628 241.741 395.322C244.223 394.016 250.545 397.152 251.812 399.956C253.079 402.76 251.812 408.866 251.812 408.866C251.812 408.866 245.029 401.121 230.659 417.111Z" fill="#8BBDDB"/>
<path d="M271.813 503.678C267.91 511.679 258.312 513.984 258.312 513.984C258.312 513.984 257.583 512.87 256.367 510.885C256.239 510.681 256.099 510.463 255.971 510.233C248.421 497.994 225.374 458.833 225.822 438.465C226.346 414.128 242.214 400.775 242.214 400.775C250.276 402.696 252.81 404.898 252.81 404.898C252.81 404.898 255.523 418.737 253.04 435.405C250.558 452.047 246.04 456.451 248.305 457.706C250.57 458.948 248.305 461.431 248.305 461.431C248.305 461.431 261.678 480.071 264.173 485.87C265.798 489.647 268.55 496.074 270.264 500.081C270.38 500.362 270.495 500.644 270.61 500.9C271.352 502.59 271.813 503.678 271.813 503.678Z" fill="#6097B2"/>
<path d="M248.6 404.898C248.6 404.898 239.028 412.003 244.607 422.846L271.135 450.332C256.572 465.861 255.126 472.236 244.607 479.393L248.6 485.589C248.6 485.589 285.467 457.245 285.518 450.345C285.544 447.362 262.996 411.644 248.6 404.898Z" fill="#FF8B66"/>
<path d="M244.019 479.38C244.019 479.38 238.964 479.943 235.778 480.737C232.591 481.531 228.343 482.324 228.215 482.99C228.087 483.656 235.253 482.99 235.253 482.99C235.253 482.99 229.418 485.384 229.277 486.319C229.149 487.24 236.712 485.653 236.712 485.653C236.712 485.653 231.939 488.572 232.194 489.365C232.463 490.159 238.35 488.175 238.35 488.175C238.35 488.175 237.249 490.966 236.123 492.284C236.123 492.284 237.262 492.912 239.578 490.338C241.894 487.765 245.58 488.597 248.51 486.319C251.415 484.04 246.68 479.034 244.019 479.38Z" fill="#FF8B66"/>
<path d="M216.903 398.061C216.903 398.061 209.621 402.772 205.015 414.141C200.421 425.509 185.896 446.914 182.505 452.431C179.101 457.962 181.469 488.047 181.469 488.047C181.469 488.047 177.207 469.804 175.314 462.699C173.42 455.594 181.43 438.029 182.633 437.095C183.836 436.16 189.991 437.863 188.814 430.732C187.637 423.601 204.144 392.877 208.559 392.019C208.572 392.019 215.636 393.35 216.903 398.061Z" fill="#6097B2"/>
<path d="M194.393 399.598C194.265 399.841 194.125 400.084 193.958 400.314C192.307 402.683 189.236 404.578 189.236 404.578C189.236 404.578 183.683 412.361 183.619 413.257C183.567 414.025 173.97 420.99 169.709 420.849H169.696C169.107 420.836 168.634 420.682 168.288 420.362C165.754 417.968 176.9 397.933 179.357 393.606C179.511 393.325 179.639 393.107 179.728 392.966C179.78 392.851 179.831 392.787 179.831 392.787C179.831 392.787 177.873 385.477 186.05 386.847C192.858 387.973 194.201 393.389 194.918 397.012C195.084 397.882 194.841 398.753 194.393 399.598Z" fill="#6097B2"/>
<path d="M165.818 407.176C171.436 399.79 191.22 385.451 201.636 381.201L204.247 386.04C204.247 386.04 184.118 403.746 179.383 411.324C174.648 418.903 168.8 422.027 163.195 419.505C157.59 416.983 164.628 408.725 165.818 407.176Z" fill="#FF8B66"/>
<path d="M192.423 398.074L191.361 399.29L190.823 399.918L189.057 401.94C189.057 401.94 184.63 407.317 184.796 409.468C184.924 411.017 176.388 417.956 169.709 420.836C166.996 422.014 164.577 422.526 163.17 421.72C158.345 418.929 159.42 410.556 162.159 404.885C164.552 399.943 175.096 393.555 177.822 391.993C178.167 391.776 178.372 391.648 178.449 391.622C178.462 391.609 178.462 391.609 178.462 391.609L179.472 387.692C179.472 387.692 183.158 385.477 186.05 386.834C186.05 386.834 179.652 387.103 180.714 389.587C181.789 392.109 190.657 397.985 192.423 398.074Z" fill="#8BBDDB"/>
<path d="M215.636 377.565C209.199 380.215 210.12 386.04 204.221 386.04C200.574 386.04 200.088 381.867 200.088 381.867C201.739 378.295 202.788 372.214 203.018 369.321C203.261 366.428 204.221 367.541 204.221 367.541C204.221 367.273 204.208 367.017 204.196 366.76C204.106 364.815 203.76 363.394 205.027 364.226C206.473 365.16 206.972 370.678 206.972 370.678C208.162 362.638 206.384 361.435 207.779 362.152C209.685 363.125 209.698 370.23 209.698 370.435C211.234 365.762 210.824 363.086 211.886 364.149C212.961 365.224 211.349 373.814 210.709 376.964C210.568 377.681 210.466 378.116 210.466 378.116C215.584 375.619 215.636 377.565 215.636 377.565Z" fill="#FF8B66"/>
<path d="M210.722 376.964C210.581 377.681 210.479 378.116 210.479 378.116C210.479 378.116 208.124 377.885 206.397 380.433C206.409 380.433 206.896 377.028 210.722 376.964Z" fill="#EF6E4B"/>
<path d="M204.592 373.302C204.631 372.624 204.925 368.707 204.234 367.529C204.234 367.26 204.221 367.004 204.208 366.748C205.68 367.068 204.746 372.483 204.592 373.302Z" fill="#EF6E4B"/>
<path d="M208.585 407.215C208.585 407.215 212.936 395.424 214.318 392.787C215.7 390.15 222.904 390.611 228.368 391.622C233.82 392.646 234.933 399.943 234.933 399.943C234.933 399.943 218.336 392.108 208.585 407.215Z" fill="#8BBDDB"/>
<path d="M236.584 384.005C236.584 384.005 231.376 393.632 231.452 404.309C231.452 404.309 222.994 410.07 219.961 402.849C219.961 402.849 223.173 393.401 221.625 380.663C220.588 372.124 236.584 384.005 236.584 384.005Z" fill="#EF6E4B"/>
<path d="M219.974 370.64C219.974 370.64 218.425 365.122 215.674 369.001C212.488 373.495 215.738 377.86 217.44 376.823C219.129 375.786 219.974 370.64 219.974 370.64Z" fill="#FF8B66"/>
<path d="M244.569 384.837C244.569 384.837 250.084 383.301 248.203 387.666C246.015 392.723 240.602 392.211 240.602 390.214C240.615 388.217 244.569 384.837 244.569 384.837Z" fill="#FF8B66"/>
<path d="M222.226 394.707C214.382 390.291 212.846 382.673 221.497 367.311C225.963 359.387 232.719 356.801 241.51 361.742C250.289 366.684 251.249 373.635 246.795 381.56C237.492 398.074 230.326 399.278 222.226 394.707Z" fill="#FF8B66"/>
<path d="M241.101 385.58C240.794 386.45 239.668 386.834 238.593 386.45C237.505 386.066 236.878 385.055 237.185 384.184C237.492 383.314 238.618 382.929 239.693 383.314C240.781 383.698 241.408 384.709 241.101 385.58Z" fill="#DB614D"/>
<path d="M224.734 376.925C224.235 377.693 223.045 377.809 222.085 377.181C221.125 376.554 220.754 375.428 221.253 374.647C221.752 373.878 222.943 373.763 223.902 374.391C224.862 375.018 225.246 376.157 224.734 376.925Z" fill="#DB614D"/>
<path d="M242.227 375.645C242.022 375.645 241.843 375.504 241.792 375.3C241.344 373.546 239.412 372.522 239.386 372.509C239.169 372.394 239.079 372.125 239.194 371.907C239.309 371.689 239.578 371.6 239.796 371.715C239.885 371.766 242.112 372.944 242.649 375.082C242.713 375.325 242.56 375.568 242.329 375.632C242.304 375.632 242.265 375.645 242.227 375.645Z" fill="#1A4850"/>
<path d="M231.465 367.977C231.388 367.977 231.312 367.951 231.235 367.913C231.222 367.9 229.328 366.773 227.601 367.311C227.357 367.388 227.114 367.247 227.037 367.017C226.961 366.773 227.101 366.53 227.332 366.453C229.443 365.813 231.606 367.093 231.695 367.157C231.913 367.286 231.977 367.567 231.849 367.772C231.759 367.9 231.619 367.977 231.465 367.977Z" fill="#1A4850"/>
<path d="M238.989 379.371C238.439 380.344 237.556 380.881 237.019 380.587C236.481 380.28 236.481 379.243 237.032 378.27C237.582 377.297 238.465 376.759 239.002 377.053C239.54 377.348 239.54 378.385 238.989 379.371Z" fill="#1A4850"/>
<path d="M227.997 373.469C227.447 374.442 226.564 374.98 226.027 374.685C225.489 374.378 225.489 373.341 226.039 372.368C226.59 371.395 227.473 370.857 228.01 371.152C228.547 371.459 228.547 372.496 227.997 373.469Z" fill="#1A4850"/>
<path d="M224.184 383.467C224.184 383.467 228.688 386.898 231.939 387.001C231.939 387.001 228.483 389.817 226.001 387.986C223.506 386.169 224.184 383.467 224.184 383.467Z" fill="#1A4850"/>
<path d="M236.622 377.399C236.622 377.399 238.682 375.402 239.527 376.106C240.372 376.81 239.924 379.268 239.924 379.268L241.728 379.319L240.231 378.718C240.231 378.718 240.717 376.17 239.783 375.632C238.478 374.877 236.622 377.399 236.622 377.399Z" fill="#1A4850"/>
<path d="M228.842 373.405C228.842 373.405 229.482 370.601 228.445 370.243C227.409 369.884 225.54 371.536 225.54 371.536L224.568 370.012L225.86 370.973C225.86 370.973 227.792 369.231 228.727 369.756C230.045 370.512 228.842 373.405 228.842 373.405Z" fill="#1A4850"/>
<path d="M243.583 365.032C243.583 365.032 240.781 361.128 236.891 364.226C233.013 367.324 224.261 372.291 219.961 370.652C215.661 369.014 229.379 350.668 241.293 356.045C253.207 361.422 252.132 378.91 247.179 384.466C242.227 390.022 244.569 384.85 244.569 384.85C244.569 384.85 244.902 376.964 246.552 371.728C248.216 366.492 243.583 365.032 243.583 365.032Z" fill="#F24052"/>
<path d="M230.377 381.675C230.16 381.675 229.929 381.649 229.699 381.585L229.942 380.638C230.748 380.843 231.132 380.497 231.324 380.177C231.593 379.716 231.555 379.127 231.337 378.91C231.209 378.782 231.004 378.795 230.71 378.948L230.262 378.09C231.248 377.578 231.836 378.026 232.041 378.244C232.578 378.807 232.63 379.87 232.156 380.676C231.785 381.329 231.145 381.675 230.377 381.675Z" fill="#DB614D"/>
<path d="M287.796 449.231C287.322 456.119 270.277 478.573 267.436 479.367C266.694 479.572 265.939 479.982 265.235 480.455C264.941 480.673 264.634 480.891 264.352 481.121C262.727 482.427 261.512 483.937 261.512 483.937C256.534 483.605 242.573 477.14 247.064 475.719C247.333 475.629 247.627 475.475 247.96 475.245C248.139 475.117 248.344 474.976 248.549 474.784C253.834 470.354 264.122 452.355 264.186 450.985C264.237 449.487 266.016 449.206 266.016 449.206C266.016 449.206 256.316 434.944 250.686 433.229C245.055 431.513 242.214 424.703 242.214 424.703C236.661 401.185 252.81 404.872 252.81 404.872C264.723 411.99 288.269 442.318 287.796 449.231Z" fill="#8BBDDB"/>
<path d="M265.235 480.455C264.941 480.673 264.634 480.891 264.352 481.121C256.726 480.596 250.327 476.845 247.96 475.245C248.139 475.117 248.344 474.976 248.549 474.784C251.095 476.461 257.596 480.174 265.235 480.455Z" fill="#3E6575"/>
<path d="M194.393 399.598C194.265 399.841 194.125 400.084 193.958 400.315C192.871 400.276 191.821 400.148 190.836 399.931C185.794 398.906 181.917 396.077 179.37 393.619C178.781 393.056 178.282 392.505 177.834 392.019C178.18 391.801 178.385 391.673 178.462 391.648C178.833 392.057 179.255 392.518 179.741 392.979C182.275 395.463 186.203 398.369 191.373 399.303C192.333 399.483 193.331 399.585 194.393 399.598Z" fill="#3E6575"/>
<path d="M270.623 500.9C268.281 504.869 263.943 509.656 256.367 510.898C256.239 510.693 256.099 510.476 255.971 510.245C263.738 509.08 268.051 504.036 270.277 500.081C270.392 500.362 270.508 500.644 270.623 500.9Z" fill="#3E6575"/>
<path d="M141.326 630.226C141.326 630.226 139.547 631.98 137.704 635.18C135.862 638.394 137.883 641.351 128.951 648.802C128.951 648.802 110.921 638.24 102.782 624.67C102.782 624.67 102.923 620.791 106.864 619.882C108.976 619.395 114.811 622.122 120.403 623.185C121.197 623.326 121.99 623.454 122.771 623.518C123.756 623.607 124.716 623.62 125.637 623.505C126.494 623.415 127.301 623.236 128.056 622.916H128.068C129.975 622.135 131.472 620.586 132.266 617.872C132.266 617.872 137.052 620.599 133.853 625.22C133.853 625.208 139.534 622.724 141.326 630.226Z" fill="#CFD8DC"/>
<path d="M128.951 648.802C128.951 648.802 110.921 638.24 102.782 624.67C102.782 624.67 105.802 624.03 108.311 628.523C110.806 633.03 130.41 643.246 128.951 648.802Z" fill="#ADBEC4"/>
<path d="M129.015 627.448C127.557 629.765 127.582 625.489 125.637 623.479C126.494 623.39 127.301 623.21 128.056 622.89H128.068C128.939 623.838 130.167 625.643 129.015 627.448Z" fill="#ADBEC4"/>
<path d="M123.347 627.576C121.798 629.035 121.299 625.22 120.391 623.172C121.184 623.313 121.977 623.441 122.758 623.505C123.679 624.734 124.524 626.462 123.347 627.576Z" fill="#ADBEC4"/>
<path d="M252.247 677.081H226.743C226.743 677.081 225.681 673.522 226.743 669.618C227.204 667.928 229.84 666.353 232.297 664.151C232.975 663.537 233.628 662.897 234.242 662.18C234.728 661.616 235.163 660.989 235.534 660.323C236.008 659.517 236.379 658.634 236.584 657.661C236.993 655.728 236.84 653.449 235.726 650.722C235.726 650.722 244.402 648.904 247.499 653.641C247.499 653.641 247.794 651.452 250.558 652.911C250.558 652.911 250.161 657.302 250.698 660.989C251.249 664.651 254.665 665.713 252.247 677.081Z" fill="#CFD8DC"/>
<path d="M245.605 661.719C245.375 661.975 245.068 662.103 244.748 662.103C244.479 662.103 244.223 662.013 243.993 661.847C242.675 660.797 239.757 659.158 235.522 660.311C235.995 659.504 236.366 658.621 236.571 657.648C238.273 657.02 241.485 656.649 245.452 660.042C245.976 660.477 246.04 661.22 245.605 661.719Z" fill="#ADBEC4"/>
<path d="M243.456 665.956L243.315 666.174C242.969 666.699 242.291 666.865 241.754 666.558C240.026 665.534 236.123 663.601 232.297 664.151C232.975 663.537 233.628 662.897 234.242 662.18C236.136 661.744 239.693 661.501 243.212 664.407C243.66 664.791 243.788 665.457 243.456 665.956Z" fill="#ADBEC4"/>
</g>
</g>
<defs>
<clipPath id="clip0_16_335">
<rect width="600" height="800" fill="white"/>
</clipPath>
<clipPath id="clip1_16_335">
<rect width="604" height="408" fill="white" transform="translate(0 272)"/>
</clipPath>
</defs>
</svg>
