<svg width="600" height="800" viewBox="0 0 600 800" fill="none" xmlns="http://www.w3.org/2000/svg">
<rect width="600" height="800" fill="white" fill-opacity="0.26"/>
<g clip-path="url(#clip0_28_2)">
<path d="M300.007 756C441.948 756 557.014 748.723 557.014 739.746C557.014 730.769 441.948 723.492 300.007 723.492C158.066 723.492 43 730.769 43 739.746C43 748.723 158.066 756 300.007 756Z" fill="#EAE0DF"/>
<path d="M166.449 712.986C166.449 712.986 166.923 715.107 167.843 716.865C168.763 718.623 172.988 724.552 173.421 727.943C173.797 730.998 173.672 734.179 173.686 738.295C173.686 739.118 173.128 739.844 172.319 740.039C169.893 740.639 164.65 741.518 159.867 739.648C153.383 737.109 152.881 726.659 151.263 723.98C149.646 721.302 148.223 720.799 147.596 719.669C146.968 718.539 147.317 712.958 147.317 712.958L152.672 707.95C152.686 707.978 167.313 707.629 166.449 712.986Z" fill="#335A9A"/>
<path d="M83.8289 712.986C83.8289 712.986 83.3548 715.107 82.4345 716.865C81.5142 718.623 77.289 724.552 76.8568 727.943C76.4803 730.998 76.6058 734.179 76.5918 738.295C76.5918 739.118 77.1496 739.844 77.9584 740.039C80.3847 740.639 85.6277 741.518 90.4106 739.648C96.8947 737.109 97.3967 726.659 99.0142 723.98C100.632 721.302 102.054 720.799 102.682 719.669C103.309 718.539 102.96 712.958 102.96 712.958L97.5919 707.95C97.5919 707.978 82.9644 707.629 83.8289 712.986Z" fill="#335A9A"/>
<path d="M117.95 540.96L132.717 539.523L126.875 523.813L116.375 527.147L117.95 541.755" fill="#E6F2FE"/>
<path d="M84.5121 553.572L86.1157 624.908L83.3687 712.986H103.895L113.628 629.568L126.415 578.964L136.482 635.497L144.947 712.986H170.13L166.741 632.316L165.473 557.786C165.473 557.786 149.395 536.397 148.112 535.128C146.829 533.858 121.45 537.137 121.45 537.137L114.144 537.779L84.5121 553.572Z" fill="#FB6F5A"/>
<path d="M112.15 404.775C112.15 404.775 110.727 404.915 109.305 406.617C107.883 408.319 104.439 411.905 102.96 412.825C101.482 413.746 78.8369 421.294 77.9863 422.494C77.1357 423.694 74.4584 439.236 74.4584 439.236L72.8408 461.741L74.5281 477.409C74.5281 477.409 77.9863 492.156 77.9863 492.365C77.9863 492.574 82.3648 497.234 82.3648 497.234L91.2333 498.295L75.8388 549.219C75.8388 549.219 97.8429 560.966 105.68 561.399C113.516 561.831 118.383 551.87 119.749 547.112C121.116 542.355 124.086 531.235 124.086 531.235C124.086 531.235 125.564 551.563 130.64 558.441C135.716 565.319 141.321 564.789 145.56 564.259C149.799 563.729 163.967 560.241 167.146 558.539C170.325 556.837 172.013 554.521 172.013 554.521C172.013 554.521 165.57 531.221 165.57 523.701C165.57 516.181 164.831 506.387 164.831 506.387C164.831 506.387 173.198 505.271 176.363 501.406C179.528 497.541 179.961 481.078 179.961 481.078L179.375 469.749L177.841 455.058L175.624 446.087C175.624 446.087 172.515 427.14 171.469 425.801C170.423 424.461 145.365 414.793 144.445 413.872C143.524 412.951 140.192 408.472 138.923 407.872C138.17 407.51 137.459 407.063 136.789 406.547L124.532 407.091L112.15 404.775Z" fill="#A7CDFE"/>
<path d="M72.8825 451.709C72.8825 451.709 71.4044 472.888 72.2411 478.915C73.0778 484.943 77.526 497.764 79.8547 498.922C82.1834 500.08 125.62 496.704 125.62 496.704C125.62 496.704 87.4822 496.704 80.7053 493.523C73.9284 490.342 73.51 445.57 74.6813 438.469C74.6813 438.483 72.6734 445.152 72.8825 451.709Z" fill="#8EBCED"/>
<path d="M152.979 471.884C152.979 471.884 154.987 456.062 155.196 450.454C155.405 444.845 160.801 435.079 160.801 435.079C160.801 435.079 154.666 447.496 156.032 458.183C157.399 468.87 158.779 474.381 164.497 478.092C170.214 481.804 175.08 489.533 175.08 489.533C175.08 489.533 166.937 481.594 162.377 481.176C157.817 480.757 152.435 482.097 152.435 482.097C152.435 482.097 149.158 481.064 148.949 480.422C148.739 479.781 152.979 471.884 152.979 471.884Z" fill="#8EBCED"/>
<path d="M136.259 486.91V490.384L126.875 491.514L128.227 472.819L135.785 472.623L137.04 478.525L136.259 486.91Z" fill="#E6F2FE"/>
<path d="M111.913 405.389C111.913 405.389 110.881 406.129 110.393 407.984C109.905 409.84 109.765 412.742 109.765 412.742L113.474 426.987C113.474 426.987 118.871 443.924 119.721 449.379C120.572 454.835 121.632 464.726 121.632 464.726C121.632 464.726 123.974 462.285 125.954 455.672C127.935 449.059 127.251 444.496 129.357 439.948C131.462 435.4 133.638 427.559 133.638 427.559C133.638 427.559 137.765 415.811 138.295 413.635C138.825 411.458 139.243 410.035 138.672 408.919C138.239 408.124 137.765 407.342 137.249 406.589C137.249 406.589 132.48 405.961 130.793 406.003C129.106 406.045 111.913 405.389 111.913 405.389Z" fill="#E6F2FE"/>
<path d="M121.102 420.708C121.102 420.708 119.233 422.02 117.058 423.234C114.897 424.447 113.46 426.987 113.46 426.987C113.46 426.987 117.114 423.806 119.861 422.704C122.608 421.601 125.257 421.755 126.791 422.913C128.325 424.071 133.61 427.573 133.61 427.573C133.61 427.573 129.817 423.122 127.795 422.062C125.773 421.001 124.1 420.374 123.933 420.374C123.765 420.374 121.102 420.708 121.102 420.708Z" fill="#C1D5E5"/>
<path d="M109.012 379.132C109.012 379.132 107.632 378.239 106.572 378.601C105.512 378.964 105.582 381.043 106.084 383.931C106.586 386.819 106.823 388.661 108.203 390.07C109.584 391.479 110.992 391.591 110.992 391.591C110.992 391.591 111.104 396.348 112.108 397.785L112.484 402.599L111.899 406.84V409.909C111.899 409.909 115.05 415.7 118.229 418.839C121.409 421.978 125.271 421.28 126.122 420.918C126.972 420.555 137.235 409.658 137.235 409.658V400.269C137.235 400.269 139.174 398.078 139.383 396.781C139.592 395.483 140.192 392.191 140.192 392.191C140.192 392.191 142.102 392.232 143.678 389.261C145.253 386.289 146.285 382.522 146.118 381.21C145.95 379.899 144.361 380.025 144.124 380.318C143.887 380.611 143.05 379.522 143.05 379.522C143.05 379.522 141.962 369.895 141.851 369.533C141.739 369.17 138.602 362.864 138.462 362.724C138.323 362.585 125.94 361.636 125.94 361.636L114.116 363.115L111.899 369.365L110.309 376.244L109.012 379.132Z" fill="#FEB6A0"/>
<path d="M110.713 383.792C110.713 383.792 111.034 378.867 112.568 376.439C114.102 374.011 113.683 371.458 114.255 368.556C114.827 365.654 115.259 364.58 118.536 364.747C121.813 364.915 127.321 365.808 131.393 365.012C135.464 364.217 138.379 364.371 139.062 367.077C139.745 369.784 140.01 374.011 140.484 375.448C140.958 376.885 141.279 384.182 141.279 384.182C141.279 384.182 142.186 381.434 142.813 381.322C143.441 381.211 143.97 381.113 143.97 381.113C143.97 381.113 146.522 366.059 144.514 362.571C142.506 359.083 139.006 359.181 136.789 356.544C134.572 353.907 126.317 351.256 119.219 354.535C112.122 357.813 111.285 361.315 109.068 361.845C106.851 362.376 107.799 379.62 110.713 383.792Z" fill="#303C66"/>
<path d="M109.068 383.01C109.068 383.01 107.618 384.126 107.646 385.633C107.674 387.14 109.946 388.786 109.946 388.786C109.946 388.786 107.911 385.312 109.068 383.01Z" fill="#E89582"/>
<path d="M108.789 379.69C108.789 379.69 107.534 378.657 106.614 379.369C105.693 380.08 106.614 384.768 106.614 384.768C106.614 384.768 105.916 379.383 108.789 379.69Z" fill="#E89582"/>
<path d="M142.562 384.545C142.562 384.545 143.566 386.052 143.413 387.084C143.259 388.117 141.405 389.261 141.405 389.261C141.907 388.563 142.255 387.754 142.423 386.903C142.548 386.121 142.604 385.326 142.562 384.545Z" fill="#E89582"/>
<path d="M143.859 382.396C143.859 382.396 144.18 381.071 144.835 381.517C145.49 381.964 145.309 383.582 145.156 384.378C145.002 385.173 144.417 386.415 144.417 386.415C144.417 386.415 145.309 381.42 143.859 382.396Z" fill="#E89582"/>
<path d="M112.08 397.771C112.08 397.771 113.725 403.589 118.271 406.98C122.817 410.37 128.004 409.1 130.068 408.361C132.132 407.622 137.207 400.269 137.207 400.269V409.226C137.207 409.226 136.942 405.724 136.148 405.347C135.353 404.971 131.923 409.896 128.367 411.221C124.811 412.547 119.693 411.486 117.253 408.417C114.813 405.347 114.13 403.492 113.237 403.338C112.345 403.185 111.857 406.826 111.857 406.826L112.08 397.771Z" fill="#E89582"/>
<path d="M136.259 486.91C136.259 486.91 140.707 486.226 142.45 486.91C144.193 487.594 149.437 487.231 152.128 486.115C154.819 484.999 157.05 483.841 157.05 483.841C157.05 483.841 157.692 482.934 157.05 480.297C156.409 477.66 153.717 472.567 152.978 471.884C152.239 471.2 136.315 472.358 135.785 472.623C135.255 472.888 135.897 486.059 136.259 486.91Z" fill="#FEB6A0"/>
<path d="M118.648 496.439C118.648 496.439 108.44 495.644 105.903 496.439C103.365 497.234 101.51 497.709 99.1257 497.709C96.7412 497.709 92.3069 498.295 92.3069 498.295C92.3069 498.295 90.773 498.769 91.4005 500.569C92.028 502.369 91.9862 502.48 93.0878 502.634C94.1894 502.787 96.1555 501.518 98.5958 502.215C101.036 502.913 101.399 503.694 104.94 503.01C108.482 502.327 109.598 501.001 111.662 501.001C113.725 501.001 118.648 502.327 118.648 502.327V496.439Z" fill="#FEB6A0"/>
<path d="M125.634 496.704L118.648 496.439V505.815L128.227 506.387L125.634 496.704Z" fill="#E6F2FE"/>
<path d="M86.8547 431.228C86.8547 431.228 89.8109 443.031 91.7213 451.402C93.6317 459.774 95.9604 467.921 95.7373 470.558C95.5141 473.195 83.8846 473.949 80.7053 478.916C80.7053 478.916 90.2293 474.256 94.1476 474.158C98.0659 474.06 128.213 472.819 128.213 472.819C128.213 472.819 111.69 471.619 105.721 466.638C99.7532 461.657 86.8547 431.228 86.8547 431.228Z" fill="#8EBCED"/>
<path d="M129.706 513.112C129.706 513.112 160.383 506.764 166.003 506.973C171.622 507.182 177.744 509.261 179.863 499.174C181.983 489.087 179.752 459.969 178.273 454.36C176.795 448.752 175.624 446.101 175.624 446.101C175.624 446.101 183.14 486.115 177.311 496.439C171.483 506.764 158.04 504.224 148.949 505.913C139.857 507.601 129.706 513.112 129.706 513.112Z" fill="#8EBCED"/>
<path d="M129.705 513.112L128.227 506.387C128.227 506.387 127.837 508.521 132.717 509.372C137.598 510.223 146.132 507.182 146.132 507.182L137.877 510.991L129.705 513.112Z" fill="#8EBCED"/>
<path d="M393.406 725.334C393.406 725.334 392.848 734.458 396.348 739.509C399.848 744.559 413.471 743.653 414.726 743.234C415.981 742.815 415.424 732.91 415.424 732.631C415.424 732.352 410.446 725.334 410.446 725.334L406.736 720.492L393.406 725.334Z" fill="#FB6E5A"/>
<path d="M323.364 717.855C323.364 717.855 317.842 727.65 317.633 730.175C317.423 732.7 317.633 739.23 317.633 739.23C317.633 739.23 328.049 740.388 331.73 739.76C335.411 739.132 340.78 726.38 341.937 725.334C343.095 724.287 345.939 721.441 345.828 720.381C345.716 719.32 346.4 717.855 346.4 717.855C346.4 717.855 340.027 715.637 339.72 715.539C339.413 715.442 324.144 712.596 323.364 717.855Z" fill="#FB6E5A"/>
<path d="M326.752 578.672C326.752 578.672 330.155 616.118 330.001 628.452C329.848 640.771 323.364 717.856 323.364 717.856H346.414L365.057 591.968C365.322 590.182 367.874 590.14 368.209 591.912L374.888 628.019L392.988 725.32H410.46L403.725 570.942L363.942 563.785C363.942 563.799 336.918 555.023 326.752 578.672Z" fill="#4174C0"/>
<path d="M323.977 543.136L326.752 578.686C326.752 578.686 389.515 581.825 398.677 578.686C407.838 575.546 408.145 572.7 408.312 572.072C408.48 571.445 407.057 533.314 407.057 533.314L417.725 506.931L419.063 492.7L418.031 477.548C418.031 477.548 411.924 433.195 409.553 431.228C407.183 429.261 384.454 423.569 384.454 423.569L374.079 414.835L351.141 415.044L348.24 415.239C348.24 415.239 343.722 420.415 340.878 422.159C338.033 423.903 314.662 431.479 313.561 433.684C312.459 435.888 309.712 452.003 309.712 452.003L307.607 470.279L306.979 491.444C306.979 491.444 304.134 504.085 306.979 507.768C309.824 511.451 313.393 520.297 313.393 520.297L318.023 530.831L323.977 543.136Z" fill="#A2DFF1"/>
<path d="M397.408 452.002C397.408 452.002 395.037 494.026 397.408 497.179C399.778 500.332 408.298 500.974 408.298 500.974C408.298 500.974 399.402 499.397 396.348 504.141C393.294 508.884 386.978 529.254 381.776 533.049C376.575 536.844 374.665 540.178 374.665 540.178L364.346 543.136L354.808 540.653C354.808 540.653 369.77 542.676 375.934 533.202C382.097 523.729 390.296 512.665 391.719 500.192C393.141 487.719 395.358 457.22 397.408 452.002Z" fill="#84C8D8"/>
<path d="M321.788 452.798C321.788 452.798 325.581 494.5 327.951 503.192C330.322 511.884 338.828 531.472 342.621 535.1C346.414 538.727 351.726 542.439 351.726 542.439L353.985 544.252L356.216 544.908L369.338 542.048C369.338 542.048 357.987 543.625 346.037 529.254C334.087 514.884 325.888 494.179 321.788 452.798Z" fill="#84C8D8"/>
<path d="M368.641 540.876L353.553 541.476C353.553 541.476 353.065 541.615 353.204 542.955C353.344 544.294 353.177 543.443 353.177 543.443L350.918 541.894C350.918 541.894 348.282 540.806 346.107 543.513C343.932 546.219 338.563 550.893 338.563 550.893L351.866 560.646C351.866 560.646 350.081 560.855 349.3 561.762C348.854 562.278 348.687 562.99 348.882 563.645C348.882 563.645 353.232 565.599 355.268 565.529C357.304 565.459 359.619 565.529 359.619 565.529C359.619 565.529 359.27 566.938 362.701 566.868C366.131 566.798 369.338 565.752 369.338 565.752C369.338 565.752 374.149 562.878 374.177 561.511C374.205 560.143 372.838 559.823 372.838 559.823L382.655 553.642C382.655 553.642 382.906 548.591 381.037 546.512C379.169 544.434 375.92 541.671 375.78 541.601C375.641 541.532 373.884 540.904 373.884 540.904C373.884 540.904 369.728 540.374 368.641 540.876Z" fill="#FEB6A0"/>
<path d="M354.808 469.442L348.254 436C348.254 436 345.967 424.155 346.037 421.49C346.107 418.825 348.254 415.239 348.254 415.239H349.69L374.093 414.835C374.093 414.835 374.525 421.42 374.455 423.457C374.386 425.494 366.73 453.44 366.73 453.44L360.762 470.279L354.808 469.442Z" fill="#E6F2FE"/>
<path d="M356.258 429.261L358.183 435.177C358.183 435.177 354.669 467.405 354.822 469.442C354.975 471.479 358.824 492.114 358.824 492.114C358.824 492.114 363.663 467.126 364.234 464.308C364.806 461.49 366.758 453.426 366.758 453.426C366.758 453.426 366.479 439.878 365.852 437.213C365.224 434.549 364.304 433.488 364.304 433.488V428.842L361.78 427.098H357.918L356.258 429.261Z" fill="#FB6E5A"/>
<path d="M348.826 416.104C348.826 416.104 354.613 424.629 357.081 425.689C359.549 426.75 360.595 426.485 361.46 426.485C362.324 426.485 374.065 414.849 374.065 414.849L373.647 410.482L374.065 409.226C374.065 409.226 376.645 406.324 377.007 405.334C377.37 404.343 377.76 401.329 377.76 401.329L379.685 396.014C379.685 396.014 381.316 384.322 381.316 384.113C381.316 383.903 382.264 374.737 381.316 373.161C380.368 371.584 368.85 365.682 368.473 365.626C368.097 365.571 358.099 364.413 357.207 364.831C356.314 365.25 349.886 369.993 349.886 369.993L344.378 382.62C344.378 382.62 342.412 382.578 342.579 387.531C342.746 392.484 342.997 394.646 344.057 396.167C345.117 397.688 346.525 397.59 346.525 397.59C346.525 397.59 347.892 405.068 348.784 407.482C349.328 408.961 349.509 410.538 349.314 412.1L348.826 416.104Z" fill="#FEB6A0"/>
<path d="M378.457 396.614L377.802 401.301C377.802 401.301 380.117 398.706 380.535 397.227C380.953 395.748 380.926 395.079 381.483 393.823C382.041 392.567 382.641 390.949 382.641 389.749C382.641 388.549 382.013 387.503 382.013 387.503C382.013 387.503 380.256 391.716 380.228 391.828C380.2 391.94 378.457 396.614 378.457 396.614Z" fill="#EA9986"/>
<path d="M344.392 382.857C344.392 382.857 343.36 383.317 343.151 385.801C343.025 387.322 343.179 388.842 343.597 390.307C343.597 390.307 342.691 387.629 343.75 386.582C344.81 385.536 345.577 385.829 345.605 384.824C345.633 383.82 344.908 381.894 344.392 382.857Z" fill="#EA9986"/>
<path d="M347.892 389.568C347.892 389.568 351.573 384.043 351.517 380.722C351.461 377.402 350.416 375.979 352.521 372.672C354.627 369.366 355.463 368.877 358.461 369.672C361.459 370.468 367.511 372.198 369.617 371.988C371.722 371.779 371.402 371.668 374.874 372.254C378.346 372.84 379.085 374.89 379.768 376.411C380.452 377.932 378.346 383.052 378.555 384.099C378.764 385.145 379.141 387.629 379.141 389.317C379.141 391.005 378.458 396.641 378.458 396.641C378.458 396.641 380.563 393.265 381.985 389.847C383.408 386.429 382.78 380.374 383.505 377.89C384.23 375.407 383.659 368.933 380.772 364.524C377.886 360.115 371.039 357.158 364.778 358.623C358.517 360.088 357.625 363.213 352.786 363.631C347.947 364.05 346.372 375.323 345.786 377.792C345.2 380.262 344.266 382.271 344.364 383.583C344.461 384.894 345.884 389.777 347.892 389.568Z" fill="#303C66"/>
<path d="M344.35 391.8C344.35 391.8 345.828 394.409 346.246 394.674C346.665 394.939 345.451 393.195 345.828 391.8C346.204 390.405 346.344 389.805 346.344 389.805C346.344 389.805 344.866 392.037 344.35 391.8Z" fill="#EA9986"/>
<path d="M348.826 407.468C349.914 409.533 351.364 411.375 353.093 412.937C355.882 415.407 365.197 414.514 366.772 414.095C368.348 413.677 374.079 409.198 374.079 409.198V414.835C374.079 414.835 373.549 413.356 372.503 413.091C371.457 412.826 369.45 415.462 366.089 416.202C362.728 416.941 356.774 416.886 354.571 415.728C352.368 414.57 351.838 412.784 350.945 412.463C350.053 412.142 348.84 416.09 348.84 416.09L348.826 407.468Z" fill="#EA9986"/>
<path d="M348.254 436C348.254 436 355.812 428.354 357.304 427.308C358.796 426.261 361.473 426.471 361.473 426.471C363.077 427.043 364.541 427.936 365.768 429.108C367.72 431.005 371.764 435.372 371.764 435.372C371.764 435.372 364.276 428.047 362.184 427.74C360.093 427.433 358.238 427.852 356.244 429.275C354.25 430.698 349.621 435.693 348.254 436Z" fill="#C1D7E8"/>
<path d="M348.31 556.056C348.31 556.056 355.84 557.897 358.782 557.828C361.724 557.758 365.768 556.628 365.768 556.628L369.979 557.507C369.979 557.507 366.967 557.897 364.611 557.828C362.254 557.758 360.748 558.804 357.946 558.567C355.143 558.33 348.31 556.056 348.31 556.056Z" fill="#EA9986"/>
<path d="M356.216 545.857C356.216 545.857 363.551 546.387 365.057 546.945C366.563 547.503 367.163 547.573 367.163 548.424C367.163 549.275 365.266 550.782 365.266 550.782C365.266 550.782 367.372 549.903 368.39 548.326C369.408 546.75 372.489 544.922 372.489 544.922C372.489 544.922 368.822 546.471 366.521 546.61C364.22 546.75 357.165 545.369 356.216 545.857Z" fill="#EA9986"/>
<path d="M350.917 558.595C352.661 559.083 354.362 559.711 356.007 560.45C358.712 561.678 363.941 561.748 363.941 561.748C363.941 561.748 358.684 561.329 356.579 561.148C354.473 560.967 353.386 560.869 353.288 560.869C353.19 560.869 350.917 558.595 350.917 558.595Z" fill="#EA9986"/>
<path d="M351.419 549.512C351.419 549.512 352.967 550.921 355.589 550.782C358.21 550.642 361.794 551.061 362.854 551.061C363.663 551.033 364.471 550.935 365.28 550.782C365.28 550.782 361.724 551.689 359.145 552.079C356.565 552.47 355.212 552.958 354.989 552.61C354.766 552.261 352.912 550.824 351.866 550.363C351.043 549.987 350.248 549.54 349.481 549.066C349.481 549.052 350.917 549.47 351.419 549.512Z" fill="#EA9986"/>
<path d="M359.619 565.515C359.619 565.515 362.464 564.887 363.942 563.799C365.42 562.711 365.141 562.222 366.507 562.041C367.874 561.86 369.352 561.762 369.352 561.762C369.352 561.762 368.683 561.734 367.135 562.711C365.587 563.687 361.557 565.585 359.619 565.515Z" fill="#EA9986"/>
<path d="M374.679 540.165L368.641 540.862C368.641 540.862 373.73 540.611 377.133 543.36C380.535 546.108 382.683 553.614 382.683 553.614L385.736 551.438C385.722 551.438 380.005 541.853 374.679 540.165Z" fill="#EA9986"/>
<path d="M332.469 558.106C332.469 558.106 318.26 532.881 314.161 526.268C310.061 519.655 306.268 511.033 305.85 507.336C305.431 503.638 306.059 473 307.537 464.796C309.015 456.593 309.74 452.002 309.74 452.002C309.74 452.002 305.376 493.551 310.577 509.666C315.778 525.78 332.469 558.106 332.469 558.106Z" fill="#84C8D8"/>
<path d="M389.613 559.265C389.613 559.265 407.503 534.305 411.394 525.362C415.284 516.418 420.025 505.355 420.025 500.513C420.025 495.672 418.129 478.079 418.129 478.079C418.129 478.079 420.764 492.086 417.39 503.778C414.015 515.47 389.613 559.265 389.613 559.265Z" fill="#84C8D8"/>
<path d="M235.417 701.002C235.417 701.002 234.316 699.913 233.66 701.002C233.005 702.09 229.63 708.159 229.282 710.294C228.933 712.428 234.971 719.697 234.971 719.697V733.747H238.039V723.464C238.039 723.464 241.762 727.901 242.32 729.966C242.877 732.031 242.166 736.16 243.282 737.332C244.397 738.504 265.104 737.332 265.104 737.332C265.104 737.332 265.913 734.961 265.104 734.263C264.296 733.565 256.32 728.501 256.32 728.501C256.32 728.501 250.296 724.176 249.835 722.976C249.375 721.776 245.555 713.642 245.345 712.638C245.136 711.633 245.29 708.103 244.899 707.196C244.509 706.289 238.443 701.602 238.443 701.602L235.417 701.002Z" fill="#303C66"/>
<path d="M213.148 709.889C213.148 709.889 211.238 710.447 212.242 713.419C213.246 716.391 216.481 722.599 216.62 723.004C216.76 723.409 216.62 735.407 216.62 735.407C216.62 735.407 214.096 736.565 226.144 739.146C238.192 741.727 240.814 740.514 240.911 739.146C241.009 737.779 241.065 734.612 240.563 733.649C240.061 732.687 237.509 730.301 237.509 730.301C237.509 730.301 230.634 720.841 229.63 719.125C228.626 717.409 221.264 708.536 220.957 708.187C220.65 707.838 214.361 706.722 214.361 706.722L213.148 709.889Z" fill="#303C66"/>
<path d="M236.128 696.886C236.128 696.886 236.003 699.914 235.543 700.779C235.082 701.644 234.204 701.853 233.869 703.067C233.535 704.28 232.991 707.838 233.869 709.387C234.748 710.936 239.057 716.586 239.921 718.4C240.786 720.214 240.73 723.646 244.021 726.673C247.312 729.701 250.003 729.226 252.694 729.226C255.385 729.226 256.32 728.487 256.32 728.487C256.32 728.487 252.415 721.288 252.025 715.107C251.634 708.926 250.812 696.956 251.146 692.24C251.481 687.524 253.907 667.475 253.907 667.475C253.907 667.475 255.664 649.882 255.664 645.111C255.664 640.339 253.656 631.061 254.521 625.955C255.385 620.848 259.764 612.575 259.429 608.543C259.094 604.511 254.521 600.674 253.921 600.674C253.322 600.674 237.397 604.301 237.188 604.776C236.979 605.25 235.682 610.831 235.57 611.166C235.459 611.5 234.106 618.03 234.106 619.035C234.106 620.039 234.246 625.899 234.511 626.499C234.776 627.099 235.57 630.001 235.57 630.001C235.57 630.001 235.766 635.581 235.57 636.112C235.375 636.642 233.841 644.985 233.841 644.985C233.841 644.985 232.363 650.022 233.981 655.337C235.598 660.653 236.128 664.42 236.128 664.42L236.198 674.772L236.337 683.171L236.128 696.886Z" fill="#FEB6A0"/>
<path d="M216.578 719.683C216.578 719.683 218.893 728.696 222.184 731.04C225.475 733.384 237.509 730.301 237.509 730.301C237.509 730.301 227.023 706.164 226.493 701.657C225.963 697.151 223.272 690.496 223.132 683.98C222.993 677.465 224.011 658.769 224.206 655.142C224.401 651.514 223.397 639.069 225.614 633.628C227.831 628.187 229.979 626.303 230.788 620.653C231.596 615.002 232.001 605.459 232.001 605.459L217.513 603.06L211.363 608.626C211.363 608.626 210.136 614.137 210.053 614.751C209.969 615.365 207.668 624.964 207.403 626.178C207.138 627.392 204.586 638.553 204.586 638.553C204.586 638.553 203.847 649.171 203.987 651.528C204.126 653.886 207.013 668.606 207.013 668.606L209.704 680.367L212.73 690.245C213.65 692.728 214.166 695.337 214.278 697.974C214.417 702.216 213.748 706.708 214.082 706.987C214.417 707.266 215.825 710.084 215.965 710.28C216.104 710.475 216.439 715.191 216.439 715.191L216.578 719.683Z" fill="#FEB6A0"/>
<path d="M233.005 609.101C233.005 609.101 231.094 619.341 231.792 622.355C232.489 625.369 235.724 627.503 234.72 631.731C233.716 635.958 232.712 643.729 232.405 650.789C232.098 657.849 234.929 663.192 235.333 667.224C235.738 671.256 236.128 696.886 236.128 696.886C236.128 696.886 237.244 669.359 237.244 664.113C237.244 658.867 233.967 656.649 234.441 648.585C234.915 640.52 237.829 634.368 237.941 628.424C238.052 622.481 235.821 621.769 236.533 616.021C237.244 610.273 239.461 604.12 239.461 604.12C239.461 604.12 232.698 604.399 233.005 609.101Z" fill="#EA9986"/>
<path d="M208.407 609.101C208.407 609.101 209.62 613.998 208.407 618.128C207.194 622.257 203.164 632.052 202.662 638.707C202.16 645.362 204.279 664.518 205.283 669.471C206.287 674.423 212.841 692.561 213.148 696.593C213.455 700.625 213.148 709.903 213.148 709.903C213.148 709.903 214.152 709.303 214.863 711.005C215.574 712.707 216.272 719.474 216.578 719.683C216.885 719.893 218.084 712.121 217.178 708.885C216.272 705.648 214.961 705.759 215.058 702.732C215.156 699.704 216.774 694.361 213.943 686.701C211.112 679.042 201.588 655.993 206.427 637.535C211.266 619.076 211.865 620.29 212.772 613.328C213.678 606.366 213.678 603.046 213.678 603.046C213.678 603.046 207.891 605.013 208.407 609.101Z" fill="#EA9986"/>
<path d="M212.995 498.253C212.995 498.253 208.7 511.41 205.284 520.995C201.867 530.579 199.441 553.977 200.04 559.823C200.64 565.668 203.415 573.844 203.415 584.127C203.415 594.409 204.015 609.087 204.015 609.087H267.517C267.517 609.087 270.905 550.391 269.218 538.434C267.531 526.478 263.097 501.155 263.097 501.155C263.097 501.155 274.628 503.331 280.081 499.704C285.533 496.076 283.915 480.604 283.915 480.604L281.587 474.102L278.212 464.699L271.714 451.305C271.714 451.305 263.445 438.399 260.126 434.967C256.808 431.535 251.146 428.173 251.146 428.173L247.019 415.295C247.019 415.295 241.692 412.77 241.023 412.421C240.353 412.072 226.953 414.486 225.349 415.086C223.746 415.686 215.867 416.9 213.455 418.309C211.043 419.718 204.893 422.941 204.893 422.941L200.487 426.443C200.487 426.443 195.411 428.898 193.807 437.269C192.204 445.64 193.096 456.23 193.807 457.137C194.519 458.044 197.238 465.313 197.238 465.313L201.435 477.116L204.795 484.817L209.495 491.612L211.949 496.021L212.995 498.253Z" fill="#FB6E5A"/>
<path d="M248.427 480.869L261.535 481.804C261.535 481.804 265.063 476.125 264.965 470.335C264.867 464.545 264.658 449.812 262.65 444.775C260.642 439.739 255.748 433.377 255.748 433.377C255.748 433.377 262.441 440.757 261.437 457.597C260.433 474.437 244.16 479.404 244.16 479.404C245.22 480.618 246.837 481.162 248.427 480.869Z" fill="#E05344"/>
<path d="M216.174 441.734C216.174 441.734 217.652 460.555 222.31 471.019C226.967 481.483 248.427 480.869 248.427 480.869C248.427 480.869 236.226 478.051 228.264 467.154C220.302 456.258 216.174 434.981 216.174 434.981V441.734Z" fill="#E05344"/>
<path d="M278.477 478.986C278.477 478.986 279.997 478.093 278.393 475.832L278.017 475.33C278.017 475.33 278.603 475.916 278.296 474.367C277.989 472.819 277.738 472.777 277.738 472.777L273.708 473.391L275.075 472.33L277.236 471.033C277.236 471.033 277.696 471.172 277.166 470.196C276.636 469.219 276.804 468.982 275.089 469.54C273.373 470.098 270.585 471.898 270.585 471.898C270.585 471.898 270.362 471.159 270.487 471.033C270.613 470.907 271.393 469.387 271.393 469.387L271.156 468.717C271.156 468.717 271.491 468.229 270.445 468.047C269.399 467.866 268.367 468.801 267.308 469.61C266.248 470.419 262.846 475.302 261.632 477.395C260.419 479.488 260.963 482.557 260.963 482.557H271.686L273.82 481.804C273.834 481.804 277.306 478.986 278.477 478.986Z" fill="#FEB6A0"/>
<path d="M242.556 446.478C242.556 446.478 238.136 429.177 233.548 425.494C228.961 421.811 219.716 417.011 219.716 417.011C219.716 417.011 219.688 406.38 219.716 406.24C219.744 406.101 220.706 389.596 220.706 388.689C220.706 387.782 223.523 383.248 223.523 383.248C223.523 383.248 236.072 376.244 236.072 376.09C236.072 375.937 243.323 374.067 243.323 374.067L246.098 377.346C246.098 377.346 250.184 383.903 250.839 386.568C251.495 389.233 250.839 398.567 250.839 398.567L248.525 413.495L246.307 418.63L240.423 418.253C240.423 418.253 239.545 419.788 239.545 419.997V425.145C239.545 425.145 242.11 429.735 242.222 429.889C242.333 430.042 243.784 433.865 243.784 433.865L243.63 437.088L243.156 442.711L242.556 446.478Z" fill="#FEB6A0"/>
<path d="M240.814 419.174C240.814 419.174 239.977 421.713 240.507 423.89C241.037 426.052 243.407 429.484 244.035 431.954C244.662 434.423 242.557 446.478 242.557 446.478C242.557 446.478 244.244 436.6 242.557 432.456C240.869 428.312 238.234 426.359 237.927 422.327C237.62 418.295 239.559 416.118 239.559 416.118C239.559 416.118 240.744 417.625 240.814 419.174Z" fill="#EA9986"/>
<path d="M228.166 388.787C228.166 388.787 224.262 392.247 223.662 396.083C223.062 399.92 223.062 404.887 224.262 407.58C225.461 410.272 226.353 412.784 232.461 414.095C238.569 415.407 241.399 415.309 241.399 415.309L231.457 416.118C231.457 416.118 224.206 413.83 223.927 413.76C223.648 413.691 220.288 411.905 220.246 411.486C220.204 411.068 219.088 409.463 219.088 408.445C219.088 407.426 219.688 390.489 220.162 389.289C220.636 388.075 225.266 383.778 225.266 383.778L228.166 388.787Z" fill="#EA9986"/>
<path d="M219.242 405.124C219.242 405.124 223.732 411.375 226.2 413.342C228.668 415.309 234.762 415.463 236.979 415.463C239.196 415.463 242.626 415.156 242.626 415.156L240.716 419.746C240.716 419.746 241.525 418.337 238.903 417.276C236.282 416.216 232.81 418.797 228.264 416.621C223.718 414.444 219.814 416.816 219.814 416.816C219.814 416.816 217.582 415.365 217.373 414.207C217.164 413.049 216.774 409.017 216.774 408.612C216.774 408.208 219.242 405.124 219.242 405.124Z" fill="#EA9986"/>
<path d="M241.539 376.383C241.539 376.383 239.461 382.564 234.343 385.857C229.226 389.149 223.592 389.414 222.254 392.651C220.915 395.888 220.176 405.027 220.106 408.654C220.037 412.282 221.445 415.504 218.628 418.602C215.811 421.699 204.182 424.782 200.487 426.471C196.791 428.159 208.072 421.629 207.807 415.114C207.542 408.598 202.899 407.915 209.021 398.776C215.142 389.638 210.833 386.471 212.576 380.555C214.319 374.639 224.262 367.58 229.449 366.436C234.636 365.292 243.156 368.989 246.447 374.305C249.738 379.62 250.616 383.722 252.569 385.466C254.521 387.21 253.377 394.409 253.782 397.437C254.186 400.464 256.194 400.869 255.664 405.375C255.134 409.882 252.234 414.723 252.903 419.09C253.573 423.457 251.495 428.103 250.756 428.703C250.017 429.303 245.513 422.718 243.296 421.448C241.078 420.178 240.339 420.443 240.339 419.425C240.339 418.406 240.813 415.728 241.413 415.323C242.013 414.918 245.847 411.891 247.395 408.529C248.943 405.166 249.543 394.884 249.417 390.712C249.292 386.54 250.086 384.992 248.078 382.173C246.07 379.355 241.539 376.383 241.539 376.383Z" fill="#303C66"/>
<path d="M251.202 493.272C251.202 493.272 245.248 491.961 242.64 491.556C240.033 491.152 239.057 491.751 236.086 490.845C233.116 489.938 230.397 487.566 227.664 487.315C224.931 487.064 222.519 487.217 221.417 487.817C220.315 488.417 217.234 489.324 216.174 489.184C215.114 489.045 214.208 489.128 214.515 488.222C214.821 487.315 219.855 484.887 221.877 484.134C223.899 483.38 225.865 482.878 225.865 482.878C225.865 482.878 219.869 483.283 218.461 484.134C217.053 484.985 215.142 485.85 214.222 486.603C213.302 487.357 212.311 488.068 211.349 487.719C210.387 487.371 209.23 487.315 209.843 486.157C210.457 484.999 218.308 479.85 218.963 479.697C219.618 479.544 216.69 479.753 215.686 480.409C214.682 481.064 211.321 484.803 209.676 484.287C208.031 483.771 207.222 482.976 208.282 481.469C209.341 479.962 214.529 475.972 215.937 475.874C217.345 475.777 220.218 475.874 220.218 475.874C220.218 475.874 219.06 474.619 217.945 474.06C216.829 473.502 211.294 474.367 209.829 473.558C208.365 472.749 208.365 471.438 208.867 470.74C209.369 470.042 220.608 470.391 221.724 470.74C222.839 471.089 234.078 478.399 237.202 479.362C240.326 480.325 248.441 480.869 248.441 480.869C248.441 480.869 254.186 483.492 254.493 486.366C254.8 489.24 251.202 493.272 251.202 493.272Z" fill="#FEB6A0"/>
<path d="M269.26 471.786C269.26 471.786 263.208 478.846 262.608 480.185L262.009 481.525C262.009 481.525 264.937 477.925 266.248 476.376C267.559 474.828 270.445 472.247 270.445 472.247C270.585 472.037 270.654 471.786 270.612 471.535C270.543 471.131 271.421 469.791 271.421 469.345C271.435 469.094 271.351 468.856 271.184 468.675C271.17 468.689 270.529 471.047 269.26 471.786Z" fill="#EA9986"/>
<path d="M277.25 471.019C277.25 471.019 273.555 472.526 272.383 473.544C271.212 474.563 266.234 480.13 266.234 480.13C266.234 480.13 270.738 475.525 272.216 474.619C273.694 473.712 277.766 472.777 277.766 472.777C277.766 472.777 275.925 472.944 275.381 472.777C274.838 472.61 277.25 471.019 277.25 471.019Z" fill="#EA9986"/>
<path d="M278.031 475.316C278.031 475.316 273.527 477.228 272.286 477.897C271.045 478.567 269.232 480.618 269.232 480.618C269.232 480.618 272.16 478.427 273.471 477.8C274.782 477.172 278.31 476.223 278.407 475.818C278.505 475.414 278.602 475.065 278.031 475.316Z" fill="#EA9986"/>
<path d="M272.383 481.79C272.383 481.79 276.72 478.986 277.32 478.986H278.477C277.682 479.404 276.915 479.879 276.176 480.395C274.796 481.343 274.336 482.25 273.694 482.348C273.053 482.446 271.714 482.543 271.714 482.543L272.383 481.79Z" fill="#EA9986"/>
<path d="M197.224 465.327C197.224 465.327 202.969 483.38 206.497 489.84C210.024 496.3 213.859 499.118 217.178 501.643C220.497 504.169 236.533 505.676 245.304 504.978C254.074 504.28 258.606 501.95 258.606 501.95C258.606 501.95 228.975 505.982 217.373 498.016C205.785 490.035 197.823 467.043 197.224 465.327Z" fill="#E05344"/>
<path d="M261.995 500.932C261.995 500.932 277.055 504.559 283.595 500.932C290.134 497.304 289.144 487.719 287.025 483.087C284.905 478.455 271.7 451.319 271.7 451.319C271.7 451.319 283.595 475.623 283.288 487.426C282.981 499.23 275.172 502.146 261.995 500.932Z" fill="#E05344"/>
<path d="M478.284 722.013C478.284 722.013 478.284 722.083 478.298 722.236C478.452 724.231 479.679 739.397 479.958 739.579C480.251 739.774 483.486 739.83 490.29 739.579C497.095 739.327 497.639 739.523 498.239 738.532C498.838 737.542 498.49 733.021 498.239 731.724C497.988 730.426 494.418 722.585 494.418 722.585C494.418 722.585 493.525 719.906 493.079 719.558" fill="#303C66"/>
<path d="M455.723 718.288C455.723 718.288 453.017 724.817 450.438 727.929C447.858 731.04 448.583 738.727 448.583 738.727C448.583 738.727 458.121 741.309 462.751 739.062C467.38 736.816 472.944 732.17 472.944 732.17V718.874L469.5 717.2L455.723 718.288Z" fill="#303C66"/>
<path d="M473.655 684.58L473.557 718.26C473.557 718.26 463.671 724.413 455.332 720.046L454.384 717.311C454.384 717.311 450.159 606.38 446.589 593.67C443.02 580.96 437.26 562.278 437.26 557.102C437.26 551.926 438.85 530.482 438.85 530.482C438.85 530.482 472.051 512.093 472.219 509.945C472.386 507.796 487.516 508.033 487.516 508.033L503.635 513.781L517.078 537.96C517.078 537.96 515.125 555.721 513.145 566.84C511.165 577.96 507.846 600.018 505.532 610.161C503.217 620.304 501.823 666.987 499.647 680.506C497.472 694.026 495.478 722.836 495.478 722.836C495.478 722.836 480 723.436 478.006 721.846C476.012 720.255 475.816 694.821 475.816 692.84C475.816 690.859 473.655 684.58 473.655 684.58Z" fill="#FB6E5A"/>
<path d="M471.828 514.981C471.828 514.981 463.685 537.332 460.408 538.225C457.131 539.118 434.486 539.118 431.515 535.393C428.545 531.668 436.717 517.925 441.862 500.806C447.007 483.687 453.561 489.938 453.561 489.938L471.828 497.988L474.812 506.331L471.828 514.981Z" fill="#4074C0"/>
<path d="M461.565 421.392C461.565 421.392 468.049 443.841 469.541 453.984C471.033 464.127 474.268 483.827 474.268 483.827L471.828 514.981H490.89C490.89 514.981 490.095 474.744 490.89 469.972C491.685 465.201 490.388 448.012 489.496 437.981C488.603 427.949 485.382 421.085 485.661 420.332C485.94 419.578 483.848 416.216 483.848 416.216L479.776 418.197L464.48 417.011L462.527 416.216L461.565 421.392Z" fill="#E6F2FE"/>
<path d="M473.083 481.497L487.808 480.241L485.647 420.346C485.647 420.346 490.932 426.01 500.163 427.503C509.394 428.996 514.47 431.075 515.502 432.121C516.534 433.167 522.85 462.132 522.85 462.132C522.85 462.132 528.317 478.176 527.117 483.994C525.918 489.812 522.056 497.402 522.056 497.402L516.394 499.327C516.394 499.327 517.273 504.699 517.064 508.563C516.854 512.428 523.408 538.225 523.408 538.225C523.408 538.225 495.701 537.486 494.209 534.054C492.717 530.621 490.04 500.806 490.04 500.806L490.597 494.849L474.701 493.551L472.093 487.636L473.083 481.497Z" fill="#4074C0"/>
<path d="M496.356 512.093L497.416 506.331L497.681 500.806L492.982 499.285L475.9 497.499L474.701 493.551L468.649 485.166L474.101 483.185C474.101 483.185 475.105 453.774 474.798 452.881C474.492 451.988 467.854 433.405 467.547 431.326C467.241 429.247 464.563 421.294 464.271 420.987C463.978 420.68 461.551 418.406 461.551 418.406L457.619 422.383L448.193 431.326C448.193 431.326 433.788 436.293 433.398 438.385C433.007 440.478 434.597 450.007 434.597 450.007L436.786 483.296L439.868 498.992L446.422 504.95C446.422 504.95 462.012 508.521 462.304 508.521C462.597 508.521 479.581 509.819 479.581 509.819L488.673 511.158L493.247 511.8L496.356 512.093Z" fill="#4074C0"/>
<path d="M505.281 480.869H507.93L509.994 480.241H510.984C510.984 480.241 513.396 480.157 514.344 479.85C515.293 479.543 519.323 473.684 519.337 472.958C519.35 472.233 518.388 471.172 517.9 471.772C517.9 471.772 518.709 470.572 517.078 470.907C517.078 470.907 515.781 468.187 512.713 469.986C512.713 469.986 513.117 468.842 512.323 468.549C511.528 468.256 509.589 469.191 509.213 469.596C508.836 470 504.834 475.135 504.556 475.902C504.277 476.669 503.621 480.883 503.621 480.883L505.281 480.869Z" fill="#FEB6A0"/>
<path d="M464.41 422.383C464.41 422.383 471.061 430.6 472.107 432.651C473.153 434.702 474.018 442.92 475.733 446.422C477.448 449.924 480.557 453.509 480.557 453.509C480.557 453.509 482.607 446.087 481.882 443.771C481.157 441.455 479.902 440.66 480.292 438.344C480.683 436.028 483.277 436.153 483.737 432.721C484.197 429.289 485.061 421.532 484.727 419.676C484.392 417.82 487.306 414.109 487.306 414.109C487.306 414.109 492.34 399.641 492.201 399.125C492.061 398.609 490.026 385.103 488.966 382.913C487.906 380.722 480.028 373.049 478.898 372.84C477.769 372.63 470.42 372.979 469.96 373.174C469.5 373.37 464.271 376.816 463.406 378.867C462.541 380.918 459.571 389.135 459.571 389.666C459.571 390.196 460.896 405.557 460.896 405.557L461.956 414.36L464.41 422.383Z" fill="#FEB6A0"/>
<path d="M468.091 378.504C468.091 378.504 464.535 382.369 464.535 387.531C464.535 392.693 463.476 396.474 464.535 402.501C465.595 408.528 466.78 411.179 469.96 413.37C473.139 415.56 477.183 416.355 477.183 416.355L474.938 417.151C474.938 417.151 471.494 416.495 471.103 416.355C470.713 416.216 467.854 415.435 467.073 415.03C466.292 414.625 464.354 414.165 463.559 413.635C462.764 413.105 459.85 411.779 459.055 409.993C458.26 408.208 455.541 409.198 457.075 402.571C458.609 395.944 458.735 391.242 460.059 387.796C461.384 384.35 463.043 377.988 463.573 377.458C464.103 376.927 468.091 378.504 468.091 378.504Z" fill="#E5917F"/>
<path d="M465.177 410.956C465.177 410.956 468.858 414.43 472.958 415.965C477.057 417.499 484.741 411.654 484.741 411.654V413.97C484.741 413.97 479.972 417.681 476.332 418.211C472.693 418.741 471.298 416.16 468.649 416.621C466 417.081 464.41 422.383 464.41 422.383L462.96 420.248C462.96 420.248 461.97 417.29 461.97 415.63C461.97 413.97 462.095 411.988 462.235 411.584C462.374 411.179 465.177 410.956 465.177 410.956Z" fill="#E5917F"/>
<path d="M471.828 375.686C471.828 375.686 478.284 382.536 483.848 386.317C489.412 390.098 489.008 399.334 488.617 404.594C488.227 409.854 484.741 411.654 484.741 411.654V419.313C484.741 419.313 489.008 424.475 492.786 425.675C496.565 426.875 496.761 420.011 494.376 413.063C491.992 406.115 496.705 395.372 495.938 386.54C495.171 377.709 485.94 369.756 480.766 367.663C475.593 365.571 464.786 367.956 460.603 375.309C456.42 382.662 454.147 392.498 453.45 401.539C452.752 410.579 455.639 412.867 453.45 420.318C451.26 427.768 448.193 431.34 448.193 431.34C448.193 431.34 457.131 428.159 459.808 424.489C462.486 420.806 464.075 419.23 464.48 417.039C464.884 414.849 465.177 410.984 465.177 410.984C465.177 410.984 462.193 408.598 462.095 405.417C461.997 402.236 461.3 393.195 462.29 389.414C463.28 385.633 464.968 379.76 471.828 375.686Z" fill="#303C66"/>
<path d="M504.555 480.869C504.555 480.869 505.755 476.893 506.41 475.735C507.065 474.577 512.699 469.972 512.699 469.972C512.699 469.972 508.432 473.977 507.595 475.665C506.759 477.353 505.281 480.869 505.281 480.869H504.555Z" fill="#E5917F"/>
<path d="M506.842 480.869C506.842 480.869 508.237 477.158 509.492 476.167C510.747 475.177 517.077 470.893 517.077 470.893C517.077 470.893 511.291 476.097 510.287 477.06C509.283 478.023 507.93 480.869 507.93 480.869H506.842Z" fill="#E5917F"/>
<path d="M509.994 480.241C509.994 480.241 511.555 478.19 512.908 476.6C514.261 475.009 517.9 471.758 517.9 471.758C517.9 471.758 513.201 477.493 512.336 478.385C511.806 478.944 511.346 479.571 510.984 480.241H509.994Z" fill="#E5917F"/>
<path d="M473.083 481.497C473.083 481.497 463.183 481.525 460.701 482.46C458.219 483.394 454.649 484.776 454.51 485.71C454.37 486.645 454.97 487.957 456.127 488.849C457.285 489.742 466.948 493.788 468.468 493.788C469.988 493.788 474.687 493.551 474.687 493.551C474.687 493.551 475.398 482.99 473.083 481.497Z" fill="#FEB6A0"/>
<path d="M445.711 454.081C445.711 454.081 451.804 482.864 454.51 485.71C457.215 488.556 473.083 481.511 473.083 481.511C473.083 481.511 460.004 477.939 454.496 469.484C448.988 461.029 443.521 444.943 443.521 444.943L445.711 454.081Z" fill="#2D66AA"/>
<path d="M497.681 500.806L505.49 501.574C505.49 501.574 505.629 502.494 505.322 503.192C505.016 503.89 497.416 506.345 497.416 506.345C497.416 506.345 496.775 501.462 497.681 500.806Z" fill="#FEB6A0"/>
<path d="M434.583 456.453C434.583 456.453 435.977 484.078 436.368 490.831C436.758 497.583 441.039 505.634 444.511 507.922C447.983 510.21 473.613 509.61 478.173 510.21C482.733 510.81 496.342 512.093 496.342 512.093C496.342 512.093 466.85 506.331 457.424 505.829C447.997 505.327 441.932 500.067 439.952 494.905C437.971 489.742 434.597 449.101 434.597 449.101V456.453H434.583Z" fill="#2D66AA"/>
<path d="M479.763 548.661C479.763 548.661 476.528 566.547 474.799 587.266C473.069 607.984 473.655 684.58 473.655 684.58C473.655 684.58 478.117 592.484 480.808 560.143C483.5 527.803 482.008 526.757 482.008 526.757L479.763 548.661Z" fill="#E05041"/>
<path d="M475.9 497.5L474.701 493.551C474.701 493.551 480.502 489.701 480.599 489.282C480.697 488.863 489.565 488.319 489.565 488.319C489.565 488.319 495.659 493.384 495.757 493.788C495.854 494.193 496.328 497.5 496.328 497.5L493.177 498.741L492.201 499.202L475.9 497.5Z" fill="#4074C0"/>
<path d="M475.9 497.5L497.681 500.806L505.49 501.574C505.49 501.574 521.581 500.681 524.649 497.5C527.731 494.319 528.623 483.297 527.424 478.12C526.225 472.944 522.85 462.118 522.85 462.118C522.85 462.118 527.312 476.321 525.235 485.668C523.157 495.016 515.557 499.188 505.504 499.188C495.45 499.188 475.9 497.5 475.9 497.5Z" fill="#2D66AA"/>
</g>
<defs>
<clipPath id="clip0_28_2">
<rect width="514" height="403" fill="white" transform="translate(43 353)"/>
</clipPath>
</defs>
</svg>
