<svg width="600" height="800" viewBox="0 0 600 800" fill="none" xmlns="http://www.w3.org/2000/svg">
<g clip-path="url(#clip0_17_336)">
<rect width="600" height="800" fill="white" fill-opacity="0.26"/>
<g clip-path="url(#clip1_17_336)">
<path d="M384.4 505.16L386.45 493.5L357.1 446.69C356.14 445.51 355.43 444.15 354.99 442.7L339.77 391.7L325.11 391.62L333.69 448.77C334.68 455.59 336.74 462.21 339.79 468.39L375.46 529.65L384.4 505.16Z" fill="#F3B2A7"/>
<path d="M342.6 400.4C342.6 400.4 339.52 393.37 338.98 387.49C338.43 381.61 339.39 380.11 338.95 375.08C338.51 370.05 339.55 362.24 338.76 362.14C337.96 362.03 335.08 361.93 334.66 365.57C334.24 369.21 333.5 372.96 333.5 372.96L326.19 358C326.19 358 323.37 352.08 321.15 353.41C318.89 354.77 325.99 366.03 325.14 366.66C323.91 367.57 319.46 360.79 319.46 360.79C319.46 360.79 314.95 353.31 312.71 354.6C310.47 355.89 319.48 367.85 319.48 367.85C319.48 367.85 320.55 370.09 318.95 369.72C317.35 369.35 310.91 359.31 308.66 360.06C306.42 360.81 312.85 368.71 312.85 368.71C312.85 368.71 317.14 372.77 315.21 373.52C313.29 374.27 306.85 367.23 305.57 368.51C304.29 369.8 309.65 374.97 311.9 376.65C314.15 378.33 316.83 381.32 318.23 384.1C319.63 386.88 321.58 390.52 324.99 391.37L328.1 401.4L342.6 400.4Z" fill="#F3B2A7"/>
<path opacity="0.24" d="M333.16 373.45C333.16 373.45 330.35 380.85 331.17 383.94L328.7 379.4C328.7 379.41 331.94 375.29 333.16 373.45Z" fill="#F3B2A7"/>
<path d="M424.47 509.52C424.47 509.52 415.6 483.45 400.64 482.84C383.1 482.13 360.34 446.68 360.34 446.68L344.13 391.7L321.52 396.97C321.52 396.97 326.37 449.1 331.94 464.7C339.69 486.43 379.75 537.04 379.75 537.04L424.47 509.52Z" fill="#FFF9E2"/>
<path d="M423.66 424.27L424.47 411.01C424.47 411.01 402.86 410.55 396.2 431.97C389.42 453.8 394.25 482.42 394.25 482.42L413.29 488.4L413.75 429.34L423.66 424.27Z" fill="#221E1F"/>
<path d="M421.38 424.27L423.64 411.01C423.64 411.01 442.63 412.41 447.72 430.85C453.74 452.68 451.78 483.05 451.78 483.05L433.98 488.4L431.28 429.34L421.38 424.27Z" fill="#221E1F"/>
<path d="M419.15 453.15L445.12 446.77L447.41 492.46L399.96 488.4L401.51 444.6L419.15 453.15Z" fill="#221E1F"/>
<path d="M459.22 508.33L457.17 496.67L485.63 461.39C486.59 460.21 488.19 447.32 488.62 445.86L503.85 394.87L518.51 394.79L509.93 451.94C508.94 458.76 506.88 465.38 503.83 471.56L468.16 532.82L459.22 508.33Z" fill="#F3B2A7"/>
<path d="M501.02 403.57C501.02 403.57 504.1 396.54 504.64 390.66C505.19 384.78 504.23 383.28 504.67 378.25C505.11 373.22 504.07 365.41 504.86 365.31C505.65 365.21 508.54 365.1 508.96 368.74C509.38 372.38 510.12 376.13 510.12 376.13L517.42 361.16C517.42 361.16 520.24 355.24 522.46 356.57C524.72 357.93 517.62 369.19 518.47 369.82C519.7 370.73 524.15 363.95 524.15 363.95C524.15 363.95 528.66 356.47 530.9 357.76C533.14 359.05 524.13 371.01 524.13 371.01C524.13 371.01 523.06 373.25 524.66 372.88C526.27 372.51 532.7 362.47 534.95 363.22C537.19 363.97 530.76 371.87 530.76 371.87C530.76 371.87 526.47 375.93 528.4 376.68C530.33 377.43 536.76 370.39 538.04 371.67C539.32 372.96 533.96 378.13 531.71 379.81C529.46 381.49 526.78 384.48 525.38 387.26C523.98 390.04 522.03 393.68 518.62 394.53L515.51 404.56L501.02 403.57Z" fill="#F3B2A7"/>
<path opacity="0.24" d="M510.46 376.63C510.46 376.63 513.27 384.03 512.45 387.12L514.92 382.58C514.92 382.58 511.68 378.46 510.46 376.63Z" fill="#F3B2A7"/>
<path d="M419.15 512.69C419.15 512.69 438.09 483.6 453.05 482.99C470.59 482.28 484.4 456.56 484.4 456.56L499.5 394.87L522.11 400.14C522.11 400.14 517.26 452.27 511.69 467.87C503.94 489.6 462.65 541.32 462.65 541.32L419.15 512.69Z" fill="#FFF9E2"/>
<path d="M409.12 453.4V480.56C409.12 480.56 421.58 484.83 428.86 484.08C436.13 483.32 436.69 478.77 436.69 478.77L435.45 453.4H409.12Z" fill="#F3B2A7"/>
<path opacity="0.64" d="M413.51 460.64L409.92 466.86C409.92 466.86 419.9 479.53 436.68 478.77L435.84 455.92L413.51 460.64Z" fill="#F3B2A7"/>
<path d="M392.96 481.02C380.49 479.86 373 566.97 386.83 612.35C386.83 612.35 407.48 612.43 409.65 611.8C411.82 611.17 416.8 616.16 427.27 612.08C427.27 612.08 452.51 621.44 454.31 614.88C470.77 555.08 459.9 482.75 459.9 482.75C459.9 482.75 424.47 483.95 392.96 481.02Z" fill="#FFF9E2"/>
<path d="M408.12 475.71C408.12 475.71 414.78 480.87 422.5 481.35C422.5 481.35 420.99 492.74 412.04 492.46C403.09 492.18 398.41 482.06 398.41 482.06L408.12 475.71Z" fill="#F9E4B9"/>
<path d="M436.88 475.71C436.88 475.71 430.22 480.87 422.5 481.35C422.5 481.35 424.01 491.62 432.96 491.34C441.91 491.06 446.59 483.18 446.59 483.18L436.88 475.71Z" fill="#F9E4B9"/>
<path d="M497.29 699.84C497.1 699.27 496.91 700.41 496.73 699.84C489.06 676.47 483.39 636.73 472.95 615.06C462.51 593.39 448.5 591.47 448.5 591.47L410.4 598.13L391.08 593.68L387.84 590.36C387.84 590.36 375.84 597.06 364.26 618.14C352.68 639.22 346.12 676.93 337.22 699.85C336.93 700.59 336.64 699.1 336.34 699.85H497.29V699.84Z" fill="#006E58"/>
<path opacity="0.65" d="M496.73 699.84C489.06 676.47 483.39 636.73 472.95 615.06C462.51 593.39 448.5 591.47 448.5 591.47L442.49 592.52C446.39 596.11 450.83 601.57 454.67 609.77C454.56 610.15 437.9 669.67 442.79 662.95C447.69 656.2 455.22 637.87 455.37 653.47C455.52 669.07 426.44 702.59 434.55 699.85C442.66 697.11 453.38 686.96 453.05 690.32C452.72 693.68 446.59 699.85 446.59 699.85H469.61H480.56H497.29C497.1 699.27 496.92 700.41 496.73 699.84Z" fill="#006E58"/>
<path d="M408.12 474.59C408.12 474.59 414.78 479.75 422.5 480.23C422.5 480.23 420.99 491.62 412.04 491.34C403.09 491.06 398.41 480.94 398.41 480.94L408.12 474.59Z" fill="#024386"/>
<path d="M436.88 474.59C436.88 474.59 430.22 479.75 422.5 480.23C422.5 480.23 424.01 490.5 432.96 490.22C441.91 489.94 446.59 482.06 446.59 482.06L436.88 474.59Z" fill="#024386"/>
<path d="M401.3 438.41C401.93 425.72 408.46 414.61 423.41 415.15C446.4 415.98 446.92 454.33 435.18 466.66C428.06 474.13 415.63 473.74 409.91 466.86C404.11 459.86 400.79 448.62 401.3 438.41Z" fill="#F3B2A7"/>
<path opacity="0.24" d="M441.25 434.86C439.97 429.96 438.81 425.19 436.11 421.55L424.5 427.73C424.5 427.73 422.91 437.65 423.56 442.57C425 453.51 429.07 452.97 425.87 456.25C423.28 458.9 427.99 465.22 425.48 472.01C429.54 471.25 435.99 466.6 437.82 463.11C442.49 454.16 444.11 445.85 441.25 434.86Z" fill="#F3B2A7"/>
<path d="M431.57 416.86C431.57 416.86 434.86 409.89 417.78 414.02C400.7 418.15 399.96 438.6 399.96 438.6L434.18 438.37L435.74 426.08L437.2 438.43L440.43 438.5C442.67 420.95 431.57 416.86 431.57 416.86Z" fill="#221E1F"/>
<path d="M405.57 439.96C405.57 439.96 402.99 433.83 399.3 438.12C395.6 442.4 400.36 454.51 407.24 449.07" fill="#F3B2A7"/>
<path d="M439.85 439.96C439.85 439.96 442.43 433.83 446.12 438.12C449.82 442.4 445.06 454.51 438.18 449.07" fill="#F3B2A7"/>
<path opacity="0.24" d="M439.85 439.96C439.85 439.96 442.43 433.83 446.12 438.12C449.82 442.4 445.06 454.51 438.18 449.07" fill="#F3B2A7"/>
<path d="M379.15 581.49C379.15 581.49 425.78 591 461.58 581.49V597.48C461.58 597.48 433.43 611.41 379.15 597.48V581.49Z" fill="#006E58"/>
<path d="M360.63 460.64C358.26 463.21 360.34 446.68 360.34 446.68L364.47 452.08C364.48 452.08 362.79 458.3 360.63 460.64Z" fill="#F9E4B9"/>
<path d="M484.51 468.88C485.76 466.98 484.39 456 484.39 456L480.57 462.25C480.57 462.25 483.26 470.78 484.51 468.88Z" fill="#F9E4B9"/>
<path d="M345.42 489.5L380.87 521.83L378.85 536.37L345.42 489.5Z" fill="#F9E4B9"/>
<path d="M496.84 496.32L463.74 525.19L462.4 541.18L496.84 496.32Z" fill="#F9E4B9"/>
<path d="M428.43 513.94C429.2 516.13 427.69 518.66 425.06 519.59C422.43 520.51 419.67 519.48 418.9 517.29C418.13 515.1 419.64 512.57 422.27 511.64C424.9 510.72 427.66 511.74 428.43 513.94Z" fill="#F9E4B9"/>
<path d="M428.47 535.51C427.75 537.72 425.01 538.81 422.36 537.95C419.71 537.08 418.14 534.59 418.86 532.38C419.58 530.17 422.32 529.08 424.97 529.94C427.62 530.81 429.19 533.3 428.47 535.51Z" fill="#F9E4B9"/>
<path d="M428.17 550.01C429.22 552.09 428.05 554.79 425.56 556.05C423.07 557.31 420.2 556.65 419.15 554.57C418.1 552.49 419.27 549.79 421.76 548.53C424.26 547.27 427.12 547.93 428.17 550.01Z" fill="#F9E4B9"/>
<path d="M428.47 572.19C427.75 574.4 425.01 575.49 422.36 574.63C419.71 573.76 418.14 571.27 418.86 569.06C419.58 566.85 422.32 565.76 424.97 566.62C427.62 567.48 429.19 569.98 428.47 572.19Z" fill="#F9E4B9"/>
<path d="M427.31 512.82C428.08 515.01 426.57 517.54 423.94 518.47C421.31 519.39 418.55 518.37 417.78 516.17C417.01 513.98 418.52 511.45 421.15 510.52C423.78 509.6 426.54 510.63 427.31 512.82Z" fill="#024386"/>
<path d="M427.35 534.4C426.63 536.61 423.89 537.7 421.24 536.84C418.59 535.97 417.02 533.48 417.74 531.27C418.46 529.06 421.2 527.97 423.85 528.83C426.5 529.69 428.07 532.19 427.35 534.4Z" fill="#024386"/>
<path d="M427.05 548.89C428.1 550.96 426.93 553.67 424.44 554.93C421.95 556.19 419.08 555.53 418.03 553.45C416.98 551.37 418.15 548.67 420.64 547.41C423.14 546.15 426.01 546.81 427.05 548.89Z" fill="#024386"/>
<path d="M427.35 571.07C426.63 573.28 423.89 574.37 421.24 573.51C418.59 572.64 417.02 570.15 417.74 567.94C418.46 565.73 421.2 564.64 423.85 565.5C426.5 566.37 428.07 568.86 427.35 571.07Z" fill="#024386"/>
<path opacity="0.65" d="M379.15 581.49C379.15 581.49 425.78 591 461.58 581.49V597.48C461.58 597.48 433.43 611.41 379.15 597.48V581.49Z" fill="#006E58"/>
<path d="M106.98 373.3C106.98 373.3 107.97 364.46 110.83 358.24C113.69 352.02 115.52 351.07 117.99 345.77C120.46 340.47 126.03 333.23 125.29 332.67C124.55 332.1 121.71 330.33 119.18 333.74C116.65 337.15 113.73 340.49 113.73 340.49L115.07 321.23C115.07 321.23 115.67 313.65 112.67 313.71C109.61 313.76 110.22 329.18 108.99 329.32C107.23 329.52 106.69 320.14 106.69 320.14C106.69 320.14 106.51 310.01 103.51 310C100.51 309.99 102.63 327.22 102.63 327.22C102.63 327.22 102.41 330.09 101.01 328.79C99.61 327.49 98.97 313.68 96.28 313.13C93.59 312.59 95.47 324.25 95.47 324.25C95.47 324.25 97.42 330.8 95.06 330.45C92.69 330.09 90.32 319.29 88.29 319.84C86.26 320.39 88.64 328.68 89.93 331.68C91.22 334.68 92.17 339.23 91.96 342.82C91.75 346.42 91.6 351.2 94.54 354.03L91.85 365.9L106.98 373.3Z" fill="#F3B2A7"/>
<path opacity="0.24" d="M113.12 340.78C113.12 340.78 106.01 346.59 105.05 350.16L105.2 344.17C105.19 344.17 110.83 341.91 113.12 340.78Z" fill="#F3B2A7"/>
<path d="M135.46 607.83L126.56 612.54C126.56 612.54 121.32 663.18 128.65 699.83H170.3L176.31 651.55L183.64 699.83H227.63C227.63 699.83 238.63 633.48 217.68 598.92C196.73 564.37 135.46 607.83 135.46 607.83Z" fill="#024386"/>
<path opacity="0.55" d="M219.54 615.79C219.54 615.79 215.87 613.27 205.06 612.48L206.45 616.77C208.9 624.37 210.04 632.31 210.02 640.29C210.01 643.84 210.25 647.41 211.06 649.41C213.1 654.41 216.82 666.38 216.82 666.38L229.69 653.95L228.55 625.78L219.54 615.79Z" fill="#024386"/>
<path d="M113.6 358.65L115.73 435.01C115.73 435.01 128.49 457.38 142.07 463.51C155.71 469.66 131.4 544.52 120.93 532.72C111.55 522.14 90.85 473.49 83.44 454.89C81.1 449.03 80.23 442.7 80.87 436.42L90.13 356.72L113.6 358.65Z" fill="#FFF9E2"/>
<path d="M233.18 628.78L234.38 648.05C234.5 649.94 234.03 651.82 233.04 653.43L227.41 662.61C226.74 663.71 225.81 664.63 224.7 665.29C222.87 666.39 220.01 668.05 218.46 668.6C217.24 669.04 216.88 667.75 216.82 666.38C216.75 664.8 217.44 663.29 218.63 662.25L221.41 659.83C221.87 659.43 222.19 658.88 222.31 658.28L224.37 647.92C224.48 647.39 224.25 646.84 223.8 646.54L222.5 645.68C221.69 645.14 220.58 645.63 220.43 646.59L219.12 654.94C218.92 656.21 217.33 656.68 216.48 655.71L215.43 654.52C214.92 653.94 214.57 653.23 214.41 652.47L212.58 643.44C212.25 641.82 212.5 640.13 213.29 638.68L219.1 627.96L233.18 628.78Z" fill="#F3B2A7"/>
<path d="M196.14 416.72C196.14 416.72 200.39 430.14 197.5 437.88L196.57 436.39C196.57 436.39 197.04 442.73 194.05 445.53L193.21 443.76C193.21 443.76 191.29 449.88 190.06 451.78L189.48 450.47L187.11 456.98L176.9 453.65L174.49 444.43C174.49 444.43 179.61 429.01 180.26 428.51C180.91 428 196.14 416.72 196.14 416.72Z" fill="#221E1F"/>
<path d="M189.27 467.46C189.27 467.46 197 464.32 209.65 466.49C222.3 468.66 229.48 478.55 239.92 514.26C250.36 549.97 249.81 568.1 249.81 568.1L239.88 632.47L215.75 629.11V561.5L189.27 467.46Z" fill="#FFF9E2"/>
<path d="M148.33 416.72C148.33 416.72 144.08 430.14 146.97 437.88L147.9 436.39C147.9 436.39 147.43 442.73 150.42 445.53L151.26 443.76C151.26 443.76 153.18 449.88 154.41 451.78L154.99 450.47L157.36 456.98L167.57 453.65L169.98 444.43C169.98 444.43 164.86 429.01 164.21 428.51C163.56 428 148.33 416.72 148.33 416.72Z" fill="#221E1F"/>
<path d="M160.84 444.69L159.05 443.1L158.74 454.48C158.68 456.82 157.2 458.89 155 459.7C151.29 461.08 150.84 466.16 154.27 468.14C159.12 470.93 165.69 473.67 172.23 473.11C179.2 472.51 185.94 470.08 190.61 468.01C193.18 466.87 193.15 463.21 190.57 462.09C188.52 461.2 187.17 459.21 187.11 456.98L186.7 441.49L160.84 444.69Z" fill="#F3B2A7"/>
<path d="M158.73 465.25C158.73 465.25 206.18 455.99 215.79 479.34C225.4 502.68 219.25 568.23 219.25 568.23L222.35 616.29C222.35 616.29 212.05 607.37 190.54 616.29C169.03 625.21 129.36 645.18 121.68 621.1C112.95 593.7 120.58 548 121.68 487.91C121.88 477.05 121.66 457.7 158.73 465.25Z" fill="#FFF9E2"/>
<path d="M149.4 468.93C149.4 468.93 168.7 476.83 187.6 473.66C190.07 473.25 192.38 472.03 193.93 470.06C194.83 468.92 195.57 467.47 195.72 465.69C196.16 460.59 184.2 465.69 184.2 465.69L149.4 468.93Z" fill="#F9E4B9"/>
<path d="M153.57 454.71C160.09 452.11 161.84 458.53 182.04 454.52C186.28 453.68 192.94 452.64 195.32 457.39C196.49 459.72 195.72 465.7 197.71 466.87C200.79 468.68 191.28 470.14 188.07 470.59C177.38 472.09 166.41 472.25 155.71 470.79C153.09 470.42 144.14 469.83 145.95 467.52C151.94 459.89 147.89 456.98 153.57 454.71Z" fill="#FFF9E2"/>
<path d="M164.5 448.65L158.79 452.52C158.79 452.52 162.1 463.23 173.76 463.44C183.09 463.61 188.55 447.58 188.55 447.58L164.5 448.65Z" fill="#F9E4B9"/>
<path d="M149.57 418.85C151.08 404.91 158.99 393.09 175.43 394.65C200.7 397.05 198.8 439.33 185.08 452.15C176.76 459.92 163.09 458.69 157.23 450.74C151.28 442.66 148.35 430.07 149.57 418.85Z" fill="#F3B2A7"/>
<path opacity="0.33" d="M193.8 417.5C192.71 412.02 191.73 406.69 188.99 402.5L175.8 408.56C175.8 408.56 173.41 419.39 173.8 424.85C174.69 436.99 179.2 436.66 175.46 440.06C172.44 442.81 177.22 450.07 174.01 457.4C178.53 456.82 185.56 452.92 187.7 449.12C193.17 439.42 196.25 429.8 193.8 417.5Z" fill="#F3B2A7"/>
<path d="M190.06 406.89C190.06 406.89 182.11 411.6 171.48 411.49C160.85 411.38 156.47 407.95 153.54 405.2C150.61 402.45 148.18 396.65 148.37 392.24C148.57 387.83 149 391.16 151.71 393.42C154.42 395.68 154.13 392.75 152.66 390.07C151.2 387.39 151.2 384.06 152.95 385.14C154.7 386.22 158.12 389.98 160.55 389.87C162.99 389.76 158.5 387.83 159.38 386.54C160.26 385.25 162.21 389.66 169.03 389.87C175.85 390.09 184.43 389.87 188.82 393.85C193.22 397.83 190.06 406.89 190.06 406.89Z" fill="#221E1F"/>
<path d="M181.56 401.08C181.56 401.08 181.17 409.44 188.71 415.11C193.48 418.7 194.76 428.5 194.76 428.5L195.45 427.43C195.45 427.43 198.06 425.93 198.06 420.36C198.06 414.79 197.22 411.47 197.22 411.47C197.22 411.47 198.8 416.29 198.8 414.79C198.8 413.29 199.55 412.12 197.59 408.69C195.63 405.26 196.19 405.35 196.19 405.35L198.52 407.72C198.52 407.72 196.75 403.08 195.01 400.22C192.51 396.1 188.63 394.19 184.16 394.52C179.7 394.84 181.56 401.08 181.56 401.08Z" fill="#221E1F"/>
<path d="M161.71 401.21C161.71 401.21 160.79 409.65 154.56 415.53C147.89 421.81 149.3 429.96 149.3 429.96L147.82 428.1C147.82 428.1 145.21 426.57 145.21 420.89C145.21 415.21 146.05 411.82 146.05 411.82C146.05 411.82 144.47 416.74 144.47 415.21C144.47 413.68 143.72 412.48 145.68 408.98C147.64 405.48 147.08 405.58 147.08 405.58L144.75 408C144.75 408 146.52 403.27 148.26 400.35C150.76 396.15 154.64 394.2 159.11 394.53C163.58 394.84 161.71 401.21 161.71 401.21Z" fill="#221E1F"/>
<path d="M153.21 422.92C153.21 422.92 151.63 418.84 148.36 419.42C143.66 420.26 142.59 433.82 151.93 433.82" fill="#F3B2A7"/>
<path d="M191.3 422.92C191.3 422.92 192.88 418.84 196.15 419.42C200.85 420.26 201.92 433.82 192.58 433.82" fill="#F3B2A7"/>
<path opacity="0.33" d="M191.3 422.92C191.3 422.92 192.88 418.84 196.15 419.42C200.85 420.26 201.92 433.82 192.58 433.82" fill="#F3B2A7"/>
<path d="M112.39 451.05L115.89 434.89L119.06 439.61L112.39 451.05Z" fill="#F9E4B9"/>
<path d="M94.3 480.81L123.49 514.96L120.95 532.73C120.94 532.72 99.65 500.21 94.3 480.81Z" fill="#F9E4B9"/>
<path d="M215.92 613.86L219.54 561.72L208.62 505.52L213.51 561.5L205.06 612.48L215.92 613.86Z" fill="#F9E4B9"/>
<path opacity="0.55" d="M168.09 635.06C168.09 635.06 166.38 646.83 165.81 650.75C161.88 677.43 151.29 682.17 154.58 682.17C157.87 682.17 161.24 682.17 161.24 682.17L152.76 699.84H159.33H162.98H170.31L176.32 651.56L168.09 635.06Z" fill="#024386"/>
<path d="M257.54 474.83L250.89 472.09C250.89 472.09 254.03 455.85 278.08 450.66C306.1 444.61 312.98 449.02 322.03 460.22" fill="#FA9900"/>
<path d="M277.17 447.24L275.24 445.82L275.97 457.18C276.12 459.52 274.83 461.71 272.72 462.72L264.68 466.56C264.68 466.56 278.52 476.75 291.1 474.5C303.68 472.25 314.92 464.01 314.92 464.01L308.36 461.86C306.24 461.16 304.72 459.3 304.45 457.08L302.63 441.69L277.17 447.24Z" fill="#F3B2A7"/>
<path opacity="0.74" d="M277.17 447.24L275.71 453.16C275.71 453.16 282.99 462.13 293.12 462.27C303.25 462.41 305.66 459.99 305.66 459.99C305.66 459.99 304.19 457.49 303.21 444.61L277.17 447.24Z" fill="#F3B2A7"/>
<path d="M290.17 397.5C290.17 397.5 304.7 389.03 308.37 395.75C312.04 402.47 308.85 402.74 312.32 406.77C315.08 409.97 315.94 414.17 313.56 419.2C311.74 423.05 312.06 427.6 314.29 431.24C314.32 431.29 314.35 431.35 314.39 431.4C320.47 438.33 312.57 447.81 308.28 447.42C300.12 446.68 297.67 450.05 298.14 452.24C298.62 454.43 280.49 450.83 280.49 450.83C280.49 450.83 272.25 453.13 268.45 452.83C264.65 452.53 259.43 451.23 259.33 446.04C259.23 440.85 265.06 438.29 260.8 434.97C256.54 431.66 250.25 423.01 255.36 415.95C261.3 407.75 271.52 404.33 271.52 404.33L290.17 397.5Z" fill="#221E1F"/>
<path d="M264.7 422.46C264.93 409.27 271.33 397.52 286.87 397.57C310.76 397.66 312.59 437.45 300.83 450.64C293.7 458.64 280.78 458.65 274.61 451.7C268.34 444.63 264.52 433.08 264.7 422.46Z" fill="#F3B2A7"/>
<path opacity="0.27" d="M306.04 417.42C304.55 412.37 303.18 407.46 300.25 403.78L288.4 410.59C288.4 410.59 287.08 420.94 287.92 426.03C289.79 437.33 293.99 436.63 290.78 440.15C288.18 442.99 293.29 449.38 290.91 456.52C295.1 455.59 301.53 452.02 303.09 448.22C306.84 439.04 309.39 428.73 306.04 417.42Z" fill="#F3B2A7"/>
<path d="M308.57 610.53V662.66L297.65 699.84H261.57L258.77 618.34L263.13 590.16L288.36 588.14L303.67 596.95L308.57 610.53Z" fill="#667EA2"/>
<path opacity="0.09" d="M308.57 610.53V662.66L297.65 699.84H261.57L258.77 618.34L263.13 590.16L288.36 588.14L303.67 596.95L308.57 610.53Z" fill="#667EA2"/>
<path d="M301.56 397.28C301.56 397.28 297.66 412.94 291.86 412.65C286.06 412.36 283.43 410.83 281.68 412.85C279.92 414.87 280.82 419.93 276.23 420.48C271.65 421.03 269.05 418.41 267.29 421.67C265.53 424.94 258.62 429.24 256.94 425.19C255.26 421.14 256.77 429.2 256.77 429.2C256.77 429.2 249.87 420.98 255.73 414.24C260.09 409.22 257.41 408.31 257.72 403.51C258.03 398.71 261.81 395.04 269.07 394.9C276.33 394.76 277.77 386.54 284.6 388.61C291.43 390.68 290.12 392.84 294.9 391.95C299.68 391.06 305.33 391.01 308.37 395.74C311.41 400.49 301.56 397.28 301.56 397.28Z" fill="#221E1F"/>
<path d="M341.41 573.98C341.41 573.98 351.69 595.55 353.14 626.11C354.59 656.67 350.58 699.84 350.58 699.84H308.58L299.99 587.91L299.92 588.15L341.41 573.98Z" fill="#667EA2"/>
<path d="M340.24 397.38C340.24 397.38 333.92 392.11 328.04 389.79C322.15 387.47 320.32 388.01 315.29 386.05C310.25 384.1 301.91 382.83 302.04 381.98C302.17 381.13 302.93 378.13 306.8 378.78C310.67 379.44 314.75 379.8 314.75 379.8L301.54 367.81C301.54 367.81 296.29 363.14 298.33 361.26C300.4 359.34 309.86 370.02 310.77 369.32C312.08 368.33 306.43 361.72 306.43 361.72C306.43 361.72 300.09 354.85 302.08 352.92C304.08 351 313.69 363.84 313.69 363.84C313.69 363.84 315.68 365.62 315.78 363.85C315.88 362.09 307.47 352.46 308.92 350.38C310.37 348.3 316.57 357.28 316.57 357.28C316.57 357.28 319.46 362.9 320.81 361.15C322.16 359.4 316.83 350.67 318.54 349.74C320.25 348.81 323.96 355.87 325.02 358.68C326.08 361.5 328.35 365.15 330.79 367.41C333.23 369.68 336.39 372.77 336.24 376.54L345.63 382.74L340.24 397.38Z" fill="#F3B2A7"/>
<path opacity="0.24" d="M315.34 379.61C315.34 379.61 323.8 378.94 326.73 380.7L322.8 376.8C322.79 376.8 317.59 378.9 315.34 379.61Z" fill="#F3B2A7"/>
<path d="M269.01 424.67C269.01 424.67 266.9 417.87 262.52 422.05C258.13 426.23 261.94 439.63 269.84 434.56" fill="#F3B2A7"/>
<path d="M308.93 424.91C308.93 424.91 309.2 418.43 305.96 418.57C301.86 418.75 301.21 415.66 301.44 412.16C301.83 406.32 295.89 414.51 289.74 412.48C285.94 411.22 287.3 404.02 287.3 404.02L291.09 398.73L303.88 397.91L310.75 407.95L308.93 424.91Z" fill="#221E1F"/>
<path d="M305.13 421.68C305.13 421.68 305.95 415.65 310.23 418.56C314.51 421.47 313.2 433.29 305.82 430.13" fill="#F3B2A7"/>
<path opacity="0.24" d="M305.13 421.68C305.13 421.68 305.95 415.65 310.23 418.56C314.51 421.47 313.2 433.29 305.82 430.13" fill="#F3B2A7"/>
<path d="M266.98 465.94C266.98 465.94 276.07 473.1 292.45 469.51C308.83 465.91 309.58 462.26 309.58 462.26L323.61 466.39L332.4 482.69C332.4 482.69 338.99 496.67 338.99 497.87C338.99 499.07 335.39 517.44 335.39 517.44L341.18 581.76C341.18 581.76 330.89 595.5 304.08 599.1C277.27 602.7 260.57 592.55 260.57 592.55V544.61V507.86V476.7L258.89 466.71L266.98 465.94Z" fill="#FFF9E2"/>
<path d="M201.74 609.75L189.26 624.48C188.04 625.92 187.29 627.71 187.12 629.6L186.14 640.33C186.02 641.62 186.22 642.91 186.71 644.1C187.52 646.08 188.82 649.11 189.73 650.48C190.45 651.56 191.51 650.74 192.37 649.68C193.36 648.46 193.72 646.83 193.39 645.29L192.61 641.69C192.48 641.09 192.55 640.46 192.82 639.91L197.36 630.37C197.59 629.88 198.1 629.58 198.65 629.61L200.2 629.7C201.18 629.75 201.77 630.8 201.31 631.67L197.37 639.15C196.77 640.29 197.77 641.61 199.03 641.35L200.59 641.02C201.35 640.86 202.05 640.5 202.63 639.99L209.49 633.84C210.72 632.74 211.53 631.23 211.77 629.6L213.52 617.54L201.74 609.75Z" fill="#F3B2A7"/>
<path d="M255.3 482.82C255.3 482.82 279.56 491.66 328.85 480.03V505.9C328.85 505.9 296.05 519.59 255.3 509.82V482.82Z" fill="#024386"/>
<path d="M257.69 525.52C257.69 525.52 281.95 534.36 331.24 522.73V548.6C331.24 548.6 298.44 562.29 257.69 552.52V525.52Z" fill="#024386"/>
<path d="M260.09 569.43C260.09 569.43 284.35 578.27 333.64 566.64V592.51C333.64 592.51 300.84 606.2 260.09 596.43V569.43Z" fill="#024386"/>
<path d="M307.68 460.21C307.68 460.21 305.86 462.62 307.49 476.3C309.12 489.98 305.57 501.99 307.01 516C308.45 530.01 302.74 544.02 309.43 561.7C316.12 579.38 316.33 624.41 316.33 624.41L319.13 630.41C319.13 630.41 347.49 630.08 358.49 621.07C358.49 621.07 359.82 605.39 356.82 593.05C353.82 580.71 345.14 559.36 344.48 543.51C343.82 527.66 345.31 506.36 345.31 506.36L333.81 471.62L339.81 453.14C339.81 453.15 327.46 464.21 307.68 460.21Z" fill="#FA9900"/>
<path d="M317.53 468.29L321.78 461.68C330.47 456.08 342.45 448.43 347.5 439.4L352.15 431.09L325.46 391.55C325.46 391.55 337.55 383.21 341.18 375.87C341.18 375.87 369.49 394.37 380.84 411.81L387.85 424.64C387.85 424.64 389.52 474.61 336.48 513.31L317.53 468.29Z" fill="#FA9900"/>
<path d="M264.68 466.57C264.68 466.57 270.09 471.96 273.09 484.31C276.09 496.65 280.43 512 280.76 529.01C281.09 546.02 280.76 574.04 280.76 582.72C280.76 591.39 284.89 634.43 284.89 634.43C284.89 634.43 255.74 635.76 251.4 629.09C251.4 629.09 255.07 596.4 255.4 587.72C255.73 579.05 255.73 572.71 256.07 558.36C256.4 544.02 251.07 527.67 251.4 517.33C251.73 506.99 243.73 480.97 243.73 480.97C243.73 480.97 252.26 465.51 264.68 466.57Z" fill="#FA9900"/>
<path d="M258.89 480.97L250.89 472.09C250.89 472.09 240.07 476.3 237.4 494.31C234.73 512.32 226.73 552.02 226.73 552.02C226.73 552.02 219.72 560.69 216.72 566.7C213.72 572.7 197.71 611.07 197.71 611.07C197.71 611.07 210.05 620.41 216.39 620.74C216.39 620.74 251.37 580.71 258.9 566.03C266.42 551.35 258.89 480.97 258.89 480.97Z" fill="#FA9900"/>
<path d="M316.33 462.27L322.03 460.22C322.03 460.22 320.38 463.1 318.19 466.52C316.51 469.15 312.15 476.23 309.34 483.83L316.33 462.27Z" fill="#FA9900"/>
<path d="M256.78 471.19L250.89 472.62C250.89 472.62 256.86 476.12 260.09 479.31C262.31 481.5 267.03 485.2 272.37 492.49L256.78 471.19Z" fill="#FA9900"/>
<path d="M274.51 461.38C270.46 476.2 274 487.42 275.71 494.92C275.71 494.92 264.68 476.25 250.89 472.09C250.89 472.09 278 448.64 274.51 461.38Z" fill="#FA9900"/>
<path d="M305.14 458.01C308.29 468.6 307.8 488.96 307.8 488.96C307.8 488.96 312.41 472.38 315.13 468.29C320.16 460.72 322.03 460.22 322.03 460.22C322.03 460.22 301.72 446.51 305.14 458.01Z" fill="#FA9900"/>
<path d="M275.71 455.03C275.71 455.03 269.02 458.67 272.64 474.83C272.64 474.83 272.45 463.99 274.51 461.38C274.51 461.38 276.81 458.37 275.71 455.03Z" fill="#FA9900"/>
<path d="M303.99 453.15C303.99 453.15 304.25 458.65 305.67 459.99L306.82 466.71C306.82 466.71 308.19 457.91 303.99 453.15Z" fill="#FA9900"/>
<path d="M255.9 523.34V571.09L241.54 590.54L250.89 562.29L255.9 523.34Z" fill="#FA9900"/>
<path d="M366.87 481.83C366.87 481.83 346.34 493.82 342.26 500.87C336.76 510.37 344.34 538.91 344.34 538.91L345.3 506.35C345.31 506.36 359.71 492.99 366.87 481.83Z" fill="#FA9900"/>
<path d="M359.27 444.6L352.27 431.1L349.8 435.51L359.27 444.6Z" fill="#FA9900"/>
<path d="M226.72 552.02L233.96 546.42L227.29 549.22L226.72 552.02Z" fill="#FA9900"/>
<path opacity="0.42" d="M302.4 620.82L306.33 674.1L297.65 699.84H290.27L302.4 620.82Z" fill="#667EA2"/>
<path d="M101.22 445.59L104.25 426.64C104.25 426.64 117.4 452.29 107.22 478.06C107.22 478.06 102.85 498.45 103.38 502.09C103.91 505.73 90.86 502.09 90.86 502.09L77.06 496.82L75.38 462.6L101.22 445.59Z" fill="#221E1F"/>
<path d="M91.2 465.17L103.38 458.09C103.38 458.09 101.82 472.32 100.1 480.88C98.38 489.44 101.14 508.99 101.14 508.99L79.02 508.47L78.3 489.44" fill="#221E1F"/>
<path d="M88.98 476.83C88.98 476.83 85.11 489.19 85.66 491.78C86.21 494.36 102.1 496.76 108.82 505.07C115.55 513.37 85.6 517.43 85.6 517.43L67.2 521.67L40.08 493.07L45.06 479.42L64.27 486.8L68.5 470L88.98 476.83Z" fill="#F3B2A7"/>
<path opacity="0.58" d="M88.98 476.83C88.98 476.83 85.17 489.71 85.66 491.78C86.15 493.84 100.09 498.58 100.09 498.58C100.09 498.58 84.44 504.05 74.94 497.34C65.45 490.63 67.82 473.57 67.82 473.57L88.98 476.83Z" fill="#F3B2A7"/>
<path d="M72.03 436.34L61.27 428.67C61.27 428.67 48.98 443.15 46.8 471.92L59.41 482.21L65.38 482.33L75.38 452.95L72.03 436.34Z" fill="#221E1F"/>
<path d="M65.09 444.68C68.95 432.99 77.91 424.28 91.75 428.64C113.02 435.34 103.62 471.31 89.48 479.81C80.9 484.96 69.39 481.39 65.82 473.49C62.19 465.44 61.99 454.09 65.09 444.68Z" fill="#F3B2A7"/>
<path opacity="0.24" d="M103.34 451.64C103.41 446.73 103.55 441.97 101.96 437.87L89.52 440.65C89.52 440.65 85.48 449.51 84.81 454.28C83.34 464.87 87.28 465.42 83.44 467.65C80.34 469.46 83.11 476.58 79.01 482.28C83 482.61 90.22 479.93 92.83 477.14C99.53 470 103.18 462.65 103.34 451.64Z" fill="#F3B2A7"/>
<path d="M91.2 614.33C91.2 614.33 105.25 640.52 107.73 699.84H-13C-13 699.84 -13.08 672.34 -2.12998 637.7C8.82002 603.06 20.76 595 20.76 595" fill="#A1B84E"/>
<path d="M18.45 612.02C18.45 612.02 5.90005 626.22 4.11005 675.21C4.11005 675.21 14.86 629.81 29.2 616.06" fill="#A1B84E"/>
<path d="M85.2901 613.16C85.2901 613.16 95.9501 628.83 91.5601 677.65C91.5601 677.65 86.6101 631.25 74.1201 615.82" fill="#A1B84E"/>
<path d="M37.8 613.65C37.8 613.65 28.62 630.23 37.47 678.45C37.47 678.45 38.15 631.79 49.18 615.28" fill="#A1B84E"/>
<path d="M54.37 613.97C54.37 613.97 49.18 635.95 56.99 688.96C56.99 688.96 60.19 637.7 66 615.65" fill="#A1B84E"/>
<path d="M101.11 424.79C101.11 424.79 103.45 446.82 85.92 447.6C68.39 448.38 68.95 442.85 60.56 452.95C56.16 458.25 54.52 443.84 55.81 437.87C58.04 427.53 82.1 405.76 101.11 424.79Z" fill="#221E1F"/>
<path d="M93.28 431.46C93.28 431.46 97.52 456.55 103.37 458.09C111.17 460.14 112.96 428.67 98.32 422.45C85.18 416.87 93.42 433 93.42 433L101.96 437.88" fill="#221E1F"/>
<path d="M82.54 533.55L101.14 508.99C101.47 508.56 102.03 508.37 102.55 508.53C106.1 509.66 119.17 515.29 118.89 536.84C118.58 560.26 114.87 581.64 114.42 584.15C114.39 584.32 114.39 584.47 114.43 584.64C115.16 587.93 121.92 626.44 125.09 635.83C128.42 645.68 129.54 653.31 126.21 660.3C122.88 667.29 115.27 669.42 114.79 668.09C114.36 666.91 118.64 662.34 118.72 658.65C118.73 658.4 118.87 658.17 118.84 657.92L118.34 653.95C118.19 652.74 116.6 652.39 115.95 653.43L114.4 655.93C114.38 655.96 114.36 655.99 114.35 656.02L113.59 657.5C112.99 658.66 111.24 658.31 111.15 657.01C110.91 653.84 111.7 650.07 111.46 649.32C111.1 648.24 112.86 643.01 113.96 641.06C114.21 640.61 114.18 640.07 113.87 639.65C110.94 635.73 96.24 615.79 93.73 607.71C91.08 599.2 83.12 540.66 82.29 534.5C82.24 534.16 82.33 533.82 82.54 533.55Z" fill="#F3B2A7"/>
<path d="M36.98 498.57L41.59 487.66L23.46 435.47C22.79 434.11 22.4 432.62 22.3 431.11L18.86 378.01L4.59003 374.65L0.170027 432.27C-0.389973 439.14 0.140026 446.05 1.73003 452.76L22.79 520.45L36.98 498.57Z" fill="#F3B2A7"/>
<path d="M100.1 498.57L78.3 527.34C78.3 527.34 86.88 591.07 90.54 607.35C103.38 588.94 114.34 583.83 114.34 583.83C114.34 583.83 119.02 558.49 119.39 530.56C119.76 502.62 100.1 498.57 100.1 498.57Z" fill="#006E58"/>
<path d="M19.67 387.12C19.67 387.12 18.25 379.58 19.03 373.72C19.81 367.87 21.08 366.62 21.78 361.62C22.48 356.62 25.24 349.24 24.49 348.96C23.74 348.68 20.95 347.93 19.72 351.39C18.5 354.84 16.93 358.33 16.93 358.33L13.16 342.11C13.16 342.11 11.74 335.71 9.28 336.51C6.77 337.33 11.18 349.89 10.2 350.32C8.8 350.93 5.98 343.33 5.98 343.33C5.98 343.33 3.26 335.03 0.780005 335.79C-1.69 336.54 4.41 350.22 4.41 350.22C4.41 350.22 4.96 352.65 3.47 351.93C1.99 351.21 -2.04 339.98 -4.4 340.22C-6.76 340.45 -2.25 349.59 -2.25 349.59C-2.25 349.59 1.02 354.5 -1.02 354.8C-3.06 355.1 -7.76 346.8 -9.29 347.76C-10.83 348.73 -6.76 354.97 -4.94 357.11C-3.12 359.25 -1.17999 362.77 -0.439995 365.79C0.300005 368.81 1.38001 372.8 4.53001 374.39L5.32 384.86L19.67 387.12Z" fill="#F3B2A7"/>
<path opacity="0.24" d="M16.49 358.74C16.49 358.74 12.1 365.33 12.21 368.52L10.82 363.54C10.82 363.55 14.9 360.26 16.49 358.74Z" fill="#F3B2A7"/>
<path d="M23.45 435.47C22.78 434.11 22.39 432.62 22.29 431.11C22.29 431.11 14.33 443.1 0.480042 445.9C0.770041 448.21 1.18004 450.5 1.72004 452.76L20.2 530.66L36.98 498.57C36.98 498.57 49.32 483.57 46.19 479.41C35.48 465.17 23.45 435.47 23.45 435.47Z" fill="#006E58"/>
<path d="M80.97 501.99C87.28 502.23 95.13 501.74 100.09 498.58C100.09 498.58 111.18 503.21 113.97 513.84C116.77 524.47 102.15 537.97 100.09 554.71C98.03 571.45 94.95 596.9 94.95 596.9C94.95 596.9 100.16 623.24 93.22 627.13C86.28 631.02 76.77 628.55 69.22 627.13C61.67 625.71 49.36 632.18 37.9 629.22C26.43 626.27 21.4 618.99 14.13 618.99C6.86 618.99 -0.410003 617.59 1.54 609.76C3.5 601.93 15.52 571.17 15.8 561.94C16.08 552.71 19.44 521.67 19.44 521.67C19.44 521.67 30.02 480.29 42.11 478.06C46.79 477.2 53.96 484.6 53.96 484.6C53.96 484.6 54.84 487.02 57.4 490.27C63.08 497.49 71.79 501.64 80.97 501.99Z" fill="#006E58"/>
<path opacity="0.65" d="M102.33 539.84C102.33 539.84 94.34 586.06 94.96 596.89C95.45 605.63 95.6 600.62 95.6 600.62L104.25 591.32C104.24 591.32 101.29 570.69 102.33 539.84Z" fill="#006E58"/>
<path d="M58.04 466.34C58.04 466.34 50.77 451.58 47.69 465.51C44.61 479.44 47.24 488.98 48.2 497.31C50 512.98 38.01 521.13 38.01 521.13C38.01 521.13 64.88 527.76 65.03 508.48C65.18 488.8 62.91 493.16 65.81 479.08C66.57 475.42 54.41 475.03 58.04 466.34Z" fill="#221E1F"/>
<path opacity="0.65" d="M8.61005 482.34L26.16 519.27L16.83 552.96C16.83 552.96 18.05 534.98 18.86 527.34C19.45 521.67 8.61005 482.34 8.61005 482.34Z" fill="#006E58"/>
<path d="M67.29 451.1C67.29 451.1 66.43 444.51 61.73 447.65C57.03 450.8 58.39 463.73 66.47 460.32" fill="#F3B2A7"/>
<path d="M98.91 457.46C98.91 457.46 101.41 452.36 104.35 456.19C107.29 460.02 102.64 470.11 97.04 465.14" fill="#F3B2A7"/>
<path opacity="0.24" d="M98.91 457.46C98.91 457.46 101.41 452.36 104.35 456.19C107.29 460.02 102.64 470.11 97.04 465.14" fill="#F3B2A7"/>
<path d="M539.32 434.18C539.32 434.18 534.94 438.22 538.33 435.7C545.33 430.5 562.09 432.83 565.39 453.66C568.06 470.54 564.93 477.22 579.23 481.25C588.21 483.78 594.28 489.73 596.97 498.88C599.66 508.03 599.75 517.26 609.75 528.22C619.75 539.18 603.95 558.01 589.45 559.07C574.95 560.13 529.96 554.52 529.96 554.52L539.32 434.18Z" fill="#221E1F"/>
<path d="M544.19 433.28C544.19 433.28 544.26 430.82 537.23 429.75C522.02 427.43 512.35 437.42 508.28 452.27C504.2 467.18 510.62 471.45 497.84 479.29C485.06 487.13 478.84 489.35 476.81 506.78C474.78 524.21 483.49 523.27 476.81 534.34C470.13 545.41 484.36 559.06 484.36 559.06L507.02 556.16L521.25 554.71L534.03 554.42L542.45 522.18L544.19 433.28Z" fill="#221E1F"/>
<path d="M519.76 451.92C519.76 451.92 509.67 459.86 515.61 479.29C515.61 479.29 518.79 484.47 509.61 488.66C500.42 492.85 480.44 504.13 485.92 528.95C491.4 553.77 534.26 547 534.26 547L579.06 543.13C579.06 543.13 596.79 549.16 597.11 539.54C597.43 529.92 593.56 508.49 582.27 499.01C572.39 490.72 556.81 487.49 557.93 479.3C559.97 464.41 546.83 457.79 546.83 457.79L519.76 451.92Z" fill="#221E1F"/>
<path d="M510.8 627.48L489.2 647.14L488.6 699.84H534.97L550.96 636.42L510.8 627.48Z" fill="#024386"/>
<path opacity="0.1" d="M510.8 627.48L489.2 647.14L488.6 699.84H534.97L550.96 636.42L510.8 627.48Z" fill="#024386"/>
<path opacity="0.36" d="M535.24 636.58L530.96 655.59C530.11 659.38 528.75 663.04 526.94 666.47C522.83 674.25 515.73 688.12 517.83 687.19C520.09 686.19 523.53 683.44 524.96 682.26L524.78 683.06L515.25 699.83H521.53H521.33H534.97L546.25 662.93L535.24 636.58Z" fill="#024386"/>
<path d="M536.67 641.1L570.98 617.59C581.14 610.63 594.87 617.89 597.27 629.97C602.14 654.38 594.67 658.95 590.21 678.54L584.08 699.83H539.66L536.67 641.1Z" fill="#024386"/>
<path d="M453.89 526.66C453.89 526.66 450.9 519.58 450.42 513.68C449.95 507.78 450.93 506.29 450.55 501.25C450.17 496.21 451.31 488.4 450.52 488.28C449.72 488.16 446.83 488.03 446.37 491.67C445.91 495.31 445.11 499.06 445.11 499.06L437.98 483.98C437.98 483.98 435.23 478.02 432.99 479.32C430.71 480.65 437.68 492.02 436.82 492.65C435.58 493.55 431.2 486.7 431.2 486.7C431.2 486.7 426.78 479.15 424.51 480.42C422.25 481.68 431.12 493.78 431.12 493.78C431.12 493.78 432.17 496.04 430.56 495.65C428.96 495.26 422.63 485.12 420.38 485.85C418.12 486.58 424.47 494.57 424.47 494.57C424.47 494.57 428.71 498.69 426.78 499.42C424.84 500.15 418.49 493.01 417.19 494.28C415.89 495.55 421.19 500.8 423.43 502.51C425.66 504.22 428.31 507.25 429.67 510.05C431.03 512.85 432.94 516.52 436.35 517.42L439.34 527.5L453.89 526.66Z" fill="#F3B2A7"/>
<path opacity="0.24" d="M444.77 499.54C444.77 499.54 441.87 506.92 442.65 510.03L440.23 505.45C440.23 505.45 443.53 501.36 444.77 499.54Z" fill="#F3B2A7"/>
<path d="M564.93 502.11C564.93 502.11 549.95 505.17 524.98 502.87C494.16 500.03 494.97 515.28 496.29 538.48C497.61 561.68 498.99 589.61 498.99 589.61C498.99 589.61 486.3 643.27 489.2 647.14C492.1 651.01 563.29 669.3 598.1 647.06C598.1 647.06 603.94 637.44 587.48 598.52C574.08 566.83 582.51 534.81 582.51 534.81C582.51 534.81 589.28 500.62 564.93 502.11Z" fill="#BD262B"/>
<path d="M512.24 503.12C512.24 503.12 502.98 500.9 493.82 509.53C484.68 518.14 472.73 558.66 472.73 558.66L450.88 516.07C450.88 516.07 446.11 518.89 436.2 520.33C436.2 520.33 438.51 612.17 467.38 609.39C480.99 608.08 503.25 581 503.25 581L504.36 515.46L512.24 503.12Z" fill="#BD262B"/>
<path d="M496.29 549.75L498.42 586.48C498.42 586.48 479.79 608.44 467.37 609.4C467.37 609.4 479.31 603.34 483.94 594.87C488.34 586.83 483.2 584.98 484.88 582.37C490.21 574.04 496.29 549.75 496.29 549.75Z" fill="#BD262B"/>
<path d="M562.37 534.34L574.65 579.06L545.28 621.68L568.76 577.64L562.37 534.34Z" fill="#BD262B"/>
<path d="M564.14 614.89L535.23 651.61L594.63 617.64L587.48 598.52L564.14 614.89Z" fill="#BD262B"/>
<path d="M520.46 649C519.93 647.72 521.66 647 526.05 645.18C526.21 645.11 527.01 644.19 527.2 644.11C527.89 643.75 521.71 646.52 521.07 645.37C520.22 643.85 521.42 643 526.97 640.64C530.55 639.12 533.97 637.91 534.28 636.58C535.1 633.15 525.35 634.27 529.02 632.26C530.24 631.59 533.47 630.49 535.15 630.03C538.36 629.15 537.88 629.08 543.98 628.86C553.56 628.52 560.62 613.12 558.13 624.49C557.3 628.3 556.18 632.28 553.63 635.94C548.57 643.22 540.39 649.41 535.24 651.6C534.91 651.74 534.58 651.89 534.26 652.03C531.69 653.29 529.22 653.79 528.75 653.19C528.03 652.27 531.09 650.56 533.5 649.58C534.19 649.3 525.55 652.76 524.74 651.74C523.88 650.65 527.75 648.84 530.6 647.65C531.37 647.33 521.26 650.95 520.46 649Z" fill="#EA9883"/>
<path d="M558.72 503.73H559.69C559.69 503.73 580.41 495.66 591.05 515.79C598.5 529.9 603.89 563.21 605.46 580.8C606.16 588.65 603.9 596.49 599.04 602.69C591.04 612.91 574.01 627.67 554.97 640.22L544.19 626.17L574.65 579.05L557.84 534.8C553.74 524.04 550.56 511.87 558.72 503.73Z" fill="#BD262B"/>
<path d="M526.86 483.45L525 481.92L525.1 493.35C525.12 495.7 523.71 497.83 521.54 498.73L513.27 502.14C513.27 502.14 524.55 509.8 539.33 509.62C552.17 509.46 563.79 502.35 563.79 502.35L557.33 499.83C555.24 499.02 553.82 497.06 553.68 494.83L552.7 479.3L526.86 483.45Z" fill="#F3B2A7"/>
<path opacity="0.69" d="M527.5 479.29L524.54 476.4V487.78C524.54 487.78 529.7 502.66 544.19 503.72C558.84 504.8 565.04 503.09 564.93 502.11C564.93 502.11 554.09 500.79 553.77 495.71C553.45 490.63 552.7 479.3 552.7 479.3H527.5V479.29Z" fill="#F3B2A7"/>
<path d="M515.73 457.92C516.68 444.71 523.75 433.27 539.32 434.18C563.27 435.58 562.92 475.58 550.4 488.15C542.81 495.78 529.85 495.08 524.05 487.77C518.15 480.35 514.96 468.56 515.73 457.92Z" fill="#F3B2A7"/>
<path opacity="0.27" d="M557.45 455.14C556.23 450 555.13 445 552.39 441.14L540.14 447.31C540.14 447.31 538.25 457.62 538.81 462.76C540.06 474.19 544.32 473.73 540.9 477.07C538.14 479.77 542.9 486.47 540.13 493.49C544.38 492.79 551.03 489.56 552.79 485.84C557.07 476.86 560.18 466.66 557.45 455.14Z" fill="#F3B2A7"/>
<path d="M476.81 573.88L472.73 558.66L474.77 552.1L476.81 573.88Z" fill="#BD262B"/>
<path d="M509.08 455.86C509.75 449.06 515.61 431.61 537.22 429.75C545.48 429.04 545.28 443.47 539.41 451.17C535.59 456.18 531.36 456.31 525.19 458.25C513.35 461.96 515.6 479.3 515.6 479.3C515.6 479.3 508.54 461.33 509.08 455.86Z" fill="#221E1F"/>
<path d="M539.97 444.04C539.97 444.04 541.18 454.25 549.87 454.99C564.46 456.24 553.47 482.19 561.38 482.19C564.73 482.19 561.18 463.44 561.18 463.44L559.45 451.65L556.21 441.25L551.73 438.36L542.26 433.36L538.36 437.07L539.97 444.04Z" fill="#221E1F"/>
<path d="M521.23 464.06C521.23 464.06 520.83 458.6 516.02 460.38C511.21 462.16 511.49 475.58 520.37 474.44" fill="#F3B2A7"/>
<path d="M553.77 463.77C553.77 463.77 554.17 458.31 558.98 460.09C563.79 461.87 563.51 475.29 554.63 474.15" fill="#F3B2A7"/>
<path opacity="0.27" d="M553.77 463.77C553.77 463.77 554.17 458.31 558.98 460.09C563.79 461.87 563.51 475.29 554.63 474.15" fill="#F3B2A7"/>
</g>
</g>
<defs>
<clipPath id="clip0_17_336">
<rect width="600" height="800" fill="white"/>
</clipPath>
<clipPath id="clip1_17_336">
<rect width="625.88" height="390.05" fill="white" transform="translate(-13 310)"/>
</clipPath>
</defs>
</svg>
